# architecture-0.2; original synthetic architecture, meters, Z up
mtllib apartment.mtl
o shell-south-pier-0
usemtl wall
v 0 0 0
v 0 0 2.8
v 0 0.2 0
v 0 0.2 2.8
v 0.7 0 0
v 0.7 0 2.8
v 0.7 0.2 0
v 0.7 0.2 2.8
f 3 7 5 1
f 6 8 4 2
f 5 6 2 1
f 4 8 7 3
f 2 4 3 1
f 7 8 6 5
o shell-south-sill-0
usemtl wall
v 0.7 0 0
v 0.7 0 0.9
v 0.7 0.2 0
v 0.7 0.2 0.9
v 2.3 0 0
v 2.3 0 0.9
v 2.3 0.2 0
v 2.3 0.2 0.9
f 11 15 13 9
f 14 16 12 10
f 13 14 10 9
f 12 16 15 11
f 10 12 11 9
f 15 16 14 13
o shell-south-lintel-0
usemtl wall
v 0.7 0 2.3
v 0.7 0 2.8
v 0.7 0.2 2.3
v 0.7 0.2 2.8
v 2.3 0 2.3
v 2.3 0 2.8
v 2.3 0.2 2.3
v 2.3 0.2 2.8
f 19 23 21 17
f 22 24 20 18
f 21 22 18 17
f 20 24 23 19
f 18 20 19 17
f 23 24 22 21
o shell-south-pane-0
usemtl glass
v 0.7 0.08 0.9
v 0.7 0.08 2.3
v 0.7 0.12 0.9
v 0.7 0.12 2.3
v 2.3 0.08 0.9
v 2.3 0.08 2.3
v 2.3 0.12 0.9
v 2.3 0.12 2.3
f 27 31 29 25
f 30 32 28 26
f 29 30 26 25
f 28 32 31 27
f 26 28 27 25
f 31 32 30 29
o shell-south-pier-1
usemtl wall
v 2.3 0 0
v 2.3 0 2.8
v 2.3 0.2 0
v 2.3 0.2 2.8
v 3.3 0 0
v 3.3 0 2.8
v 3.3 0.2 0
v 3.3 0.2 2.8
f 35 39 37 33
f 38 40 36 34
f 37 38 34 33
f 36 40 39 35
f 34 36 35 33
f 39 40 38 37
o shell-south-sill-1
usemtl wall
v 3.3 0 0
v 3.3 0 0.9
v 3.3 0.2 0
v 3.3 0.2 0.9
v 4.9 0 0
v 4.9 0 0.9
v 4.9 0.2 0
v 4.9 0.2 0.9
f 43 47 45 41
f 46 48 44 42
f 45 46 42 41
f 44 48 47 43
f 42 44 43 41
f 47 48 46 45
o shell-south-lintel-1
usemtl wall
v 3.3 0 2.3
v 3.3 0 2.8
v 3.3 0.2 2.3
v 3.3 0.2 2.8
v 4.9 0 2.3
v 4.9 0 2.8
v 4.9 0.2 2.3
v 4.9 0.2 2.8
f 51 55 53 49
f 54 56 52 50
f 53 54 50 49
f 52 56 55 51
f 50 52 51 49
f 55 56 54 53
o shell-south-pane-1
usemtl glass
v 3.3 0.08 0.9
v 3.3 0.08 2.3
v 3.3 0.12 0.9
v 3.3 0.12 2.3
v 4.9 0.08 0.9
v 4.9 0.08 2.3
v 4.9 0.12 0.9
v 4.9 0.12 2.3
f 59 63 61 57
f 62 64 60 58
f 61 62 58 57
f 60 64 63 59
f 58 60 59 57
f 63 64 62 61
o shell-south-pier-2
usemtl wall
v 4.9 0 0
v 4.9 0 2.8
v 4.9 0.2 0
v 4.9 0.2 2.8
v 5.9 0 0
v 5.9 0 2.8
v 5.9 0.2 0
v 5.9 0.2 2.8
f 67 71 69 65
f 70 72 68 66
f 69 70 66 65
f 68 72 71 67
f 66 68 67 65
f 71 72 70 69
o shell-south-sill-2
usemtl wall
v 5.9 0 0
v 5.9 0 0.9
v 5.9 0.2 0
v 5.9 0.2 0.9
v 7.5 0 0
v 7.5 0 0.9
v 7.5 0.2 0
v 7.5 0.2 0.9
f 75 79 77 73
f 78 80 76 74
f 77 78 74 73
f 76 80 79 75
f 74 76 75 73
f 79 80 78 77
o shell-south-lintel-2
usemtl wall
v 5.9 0 2.3
v 5.9 0 2.8
v 5.9 0.2 2.3
v 5.9 0.2 2.8
v 7.5 0 2.3
v 7.5 0 2.8
v 7.5 0.2 2.3
v 7.5 0.2 2.8
f 83 87 85 81
f 86 88 84 82
f 85 86 82 81
f 84 88 87 83
f 82 84 83 81
f 87 88 86 85
o shell-south-pane-2
usemtl glass
v 5.9 0.08 0.9
v 5.9 0.08 2.3
v 5.9 0.12 0.9
v 5.9 0.12 2.3
v 7.5 0.08 0.9
v 7.5 0.08 2.3
v 7.5 0.12 0.9
v 7.5 0.12 2.3
f 91 95 93 89
f 94 96 92 90
f 93 94 90 89
f 92 96 95 91
f 90 92 91 89
f 95 96 94 93
o shell-south-pier-3
usemtl wall
v 7.5 0 0
v 7.5 0 2.8
v 7.5 0.2 0
v 7.5 0.2 2.8
v 8.5 0 0
v 8.5 0 2.8
v 8.5 0.2 0
v 8.5 0.2 2.8
f 99 103 101 97
f 102 104 100 98
f 101 102 98 97
f 100 104 103 99
f 98 100 99 97
f 103 104 102 101
o shell-south-sill-3
usemtl wall
v 8.5 0 0
v 8.5 0 0.9
v 8.5 0.2 0
v 8.5 0.2 0.9
v 10.1 0 0
v 10.1 0 0.9
v 10.1 0.2 0
v 10.1 0.2 0.9
f 107 111 109 105
f 110 112 108 106
f 109 110 106 105
f 108 112 111 107
f 106 108 107 105
f 111 112 110 109
o shell-south-lintel-3
usemtl wall
v 8.5 0 2.3
v 8.5 0 2.8
v 8.5 0.2 2.3
v 8.5 0.2 2.8
v 10.1 0 2.3
v 10.1 0 2.8
v 10.1 0.2 2.3
v 10.1 0.2 2.8
f 115 119 117 113
f 118 120 116 114
f 117 118 114 113
f 116 120 119 115
f 114 116 115 113
f 119 120 118 117
o shell-south-pane-3
usemtl glass
v 8.5 0.08 0.9
v 8.5 0.08 2.3
v 8.5 0.12 0.9
v 8.5 0.12 2.3
v 10.1 0.08 0.9
v 10.1 0.08 2.3
v 10.1 0.12 0.9
v 10.1 0.12 2.3
f 123 127 125 121
f 126 128 124 122
f 125 126 122 121
f 124 128 127 123
f 122 124 123 121
f 127 128 126 125
o shell-south-pier-4
usemtl wall
v 10.1 0 0
v 10.1 0 2.8
v 10.1 0.2 0
v 10.1 0.2 2.8
v 11.1 0 0
v 11.1 0 2.8
v 11.1 0.2 0
v 11.1 0.2 2.8
f 131 135 133 129
f 134 136 132 130
f 133 134 130 129
f 132 136 135 131
f 130 132 131 129
f 135 136 134 133
o shell-south-sill-4
usemtl wall
v 11.1 0 0
v 11.1 0 0.9
v 11.1 0.2 0
v 11.1 0.2 0.9
v 12.7 0 0
v 12.7 0 0.9
v 12.7 0.2 0
v 12.7 0.2 0.9
f 139 143 141 137
f 142 144 140 138
f 141 142 138 137
f 140 144 143 139
f 138 140 139 137
f 143 144 142 141
o shell-south-lintel-4
usemtl wall
v 11.1 0 2.3
v 11.1 0 2.8
v 11.1 0.2 2.3
v 11.1 0.2 2.8
v 12.7 0 2.3
v 12.7 0 2.8
v 12.7 0.2 2.3
v 12.7 0.2 2.8
f 147 151 149 145
f 150 152 148 146
f 149 150 146 145
f 148 152 151 147
f 146 148 147 145
f 151 152 150 149
o shell-south-pane-4
usemtl glass
v 11.1 0.08 0.9
v 11.1 0.08 2.3
v 11.1 0.12 0.9
v 11.1 0.12 2.3
v 12.7 0.08 0.9
v 12.7 0.08 2.3
v 12.7 0.12 0.9
v 12.7 0.12 2.3
f 155 159 157 153
f 158 160 156 154
f 157 158 154 153
f 156 160 159 155
f 154 156 155 153
f 159 160 158 157
o shell-south-pier-5
usemtl wall
v 12.7 0 0
v 12.7 0 2.8
v 12.7 0.2 0
v 12.7 0.2 2.8
v 13.7 0 0
v 13.7 0 2.8
v 13.7 0.2 0
v 13.7 0.2 2.8
f 163 167 165 161
f 166 168 164 162
f 165 166 162 161
f 164 168 167 163
f 162 164 163 161
f 167 168 166 165
o shell-south-sill-5
usemtl wall
v 13.7 0 0
v 13.7 0 0.9
v 13.7 0.2 0
v 13.7 0.2 0.9
v 15.3 0 0
v 15.3 0 0.9
v 15.3 0.2 0
v 15.3 0.2 0.9
f 171 175 173 169
f 174 176 172 170
f 173 174 170 169
f 172 176 175 171
f 170 172 171 169
f 175 176 174 173
o shell-south-lintel-5
usemtl wall
v 13.7 0 2.3
v 13.7 0 2.8
v 13.7 0.2 2.3
v 13.7 0.2 2.8
v 15.3 0 2.3
v 15.3 0 2.8
v 15.3 0.2 2.3
v 15.3 0.2 2.8
f 179 183 181 177
f 182 184 180 178
f 181 182 178 177
f 180 184 183 179
f 178 180 179 177
f 183 184 182 181
o shell-south-pane-5
usemtl glass
v 13.7 0.08 0.9
v 13.7 0.08 2.3
v 13.7 0.12 0.9
v 13.7 0.12 2.3
v 15.3 0.08 0.9
v 15.3 0.08 2.3
v 15.3 0.12 0.9
v 15.3 0.12 2.3
f 187 191 189 185
f 190 192 188 186
f 189 190 186 185
f 188 192 191 187
f 186 188 187 185
f 191 192 190 189
o shell-south-end
usemtl wall
v 15.3 0 0
v 15.3 0 2.8
v 15.3 0.2 0
v 15.3 0.2 2.8
v 16 0 0
v 16 0 2.8
v 16 0.2 0
v 16 0.2 2.8
f 195 199 197 193
f 198 200 196 194
f 197 198 194 193
f 196 200 199 195
f 194 196 195 193
f 199 200 198 197
o shell-north-pier-0
usemtl wall
v 0 11.8 0
v 0 11.8 2.8
v 0 12 0
v 0 12 2.8
v 2.6 11.8 0
v 2.6 11.8 2.8
v 2.6 12 0
v 2.6 12 2.8
f 203 207 205 201
f 206 208 204 202
f 205 206 202 201
f 204 208 207 203
f 202 204 203 201
f 207 208 206 205
o shell-north-sill-0
usemtl wall
v 2.6 11.8 0
v 2.6 11.8 1
v 2.6 12 0
v 2.6 12 1
v 3.8 11.8 0
v 3.8 11.8 1
v 3.8 12 0
v 3.8 12 1
f 211 215 213 209
f 214 216 212 210
f 213 214 210 209
f 212 216 215 211
f 210 212 211 209
f 215 216 214 213
o shell-north-lintel-0
usemtl wall
v 2.6 11.8 2.2
v 2.6 11.8 2.8
v 2.6 12 2.2
v 2.6 12 2.8
v 3.8 11.8 2.2
v 3.8 11.8 2.8
v 3.8 12 2.2
v 3.8 12 2.8
f 219 223 221 217
f 222 224 220 218
f 221 222 218 217
f 220 224 223 219
f 218 220 219 217
f 223 224 222 221
o shell-north-pane-0
usemtl glass
v 2.6 11.88 1
v 2.6 11.88 2.2
v 2.6 11.92 1
v 2.6 11.92 2.2
v 3.8 11.88 1
v 3.8 11.88 2.2
v 3.8 11.92 1
v 3.8 11.92 2.2
f 227 231 229 225
f 230 232 228 226
f 229 230 226 225
f 228 232 231 227
f 226 228 227 225
f 231 232 230 229
o shell-north-pier-1
usemtl wall
v 3.8 11.8 0
v 3.8 11.8 2.8
v 3.8 12 0
v 3.8 12 2.8
v 5.8 11.8 0
v 5.8 11.8 2.8
v 5.8 12 0
v 5.8 12 2.8
f 235 239 237 233
f 238 240 236 234
f 237 238 234 233
f 236 240 239 235
f 234 236 235 233
f 239 240 238 237
o shell-north-sill-1
usemtl wall
v 5.8 11.8 0
v 5.8 11.8 1
v 5.8 12 0
v 5.8 12 1
v 7 11.8 0
v 7 11.8 1
v 7 12 0
v 7 12 1
f 243 247 245 241
f 246 248 244 242
f 245 246 242 241
f 244 248 247 243
f 242 244 243 241
f 247 248 246 245
o shell-north-lintel-1
usemtl wall
v 5.8 11.8 2.2
v 5.8 11.8 2.8
v 5.8 12 2.2
v 5.8 12 2.8
v 7 11.8 2.2
v 7 11.8 2.8
v 7 12 2.2
v 7 12 2.8
f 251 255 253 249
f 254 256 252 250
f 253 254 250 249
f 252 256 255 251
f 250 252 251 249
f 255 256 254 253
o shell-north-pane-1
usemtl glass
v 5.8 11.88 1
v 5.8 11.88 2.2
v 5.8 11.92 1
v 5.8 11.92 2.2
v 7 11.88 1
v 7 11.88 2.2
v 7 11.92 1
v 7 11.92 2.2
f 259 263 261 257
f 262 264 260 258
f 261 262 258 257
f 260 264 263 259
f 258 260 259 257
f 263 264 262 261
o shell-north-pier-2
usemtl wall
v 7 11.8 0
v 7 11.8 2.8
v 7 12 0
v 7 12 2.8
v 9 11.8 0
v 9 11.8 2.8
v 9 12 0
v 9 12 2.8
f 267 271 269 265
f 270 272 268 266
f 269 270 266 265
f 268 272 271 267
f 266 268 267 265
f 271 272 270 269
o shell-north-sill-2
usemtl wall
v 9 11.8 0
v 9 11.8 1
v 9 12 0
v 9 12 1
v 10.2 11.8 0
v 10.2 11.8 1
v 10.2 12 0
v 10.2 12 1
f 275 279 277 273
f 278 280 276 274
f 277 278 274 273
f 276 280 279 275
f 274 276 275 273
f 279 280 278 277
o shell-north-lintel-2
usemtl wall
v 9 11.8 2.2
v 9 11.8 2.8
v 9 12 2.2
v 9 12 2.8
v 10.2 11.8 2.2
v 10.2 11.8 2.8
v 10.2 12 2.2
v 10.2 12 2.8
f 283 287 285 281
f 286 288 284 282
f 285 286 282 281
f 284 288 287 283
f 282 284 283 281
f 287 288 286 285
o shell-north-pane-2
usemtl glass
v 9 11.88 1
v 9 11.88 2.2
v 9 11.92 1
v 9 11.92 2.2
v 10.2 11.88 1
v 10.2 11.88 2.2
v 10.2 11.92 1
v 10.2 11.92 2.2
f 291 295 293 289
f 294 296 292 290
f 293 294 290 289
f 292 296 295 291
f 290 292 291 289
f 295 296 294 293
o shell-north-pier-3
usemtl wall
v 10.2 11.8 0
v 10.2 11.8 2.8
v 10.2 12 0
v 10.2 12 2.8
v 12.2 11.8 0
v 12.2 11.8 2.8
v 12.2 12 0
v 12.2 12 2.8
f 299 303 301 297
f 302 304 300 298
f 301 302 298 297
f 300 304 303 299
f 298 300 299 297
f 303 304 302 301
o shell-north-sill-3
usemtl wall
v 12.2 11.8 0
v 12.2 11.8 1
v 12.2 12 0
v 12.2 12 1
v 13.4 11.8 0
v 13.4 11.8 1
v 13.4 12 0
v 13.4 12 1
f 307 311 309 305
f 310 312 308 306
f 309 310 306 305
f 308 312 311 307
f 306 308 307 305
f 311 312 310 309
o shell-north-lintel-3
usemtl wall
v 12.2 11.8 2.2
v 12.2 11.8 2.8
v 12.2 12 2.2
v 12.2 12 2.8
v 13.4 11.8 2.2
v 13.4 11.8 2.8
v 13.4 12 2.2
v 13.4 12 2.8
f 315 319 317 313
f 318 320 316 314
f 317 318 314 313
f 316 320 319 315
f 314 316 315 313
f 319 320 318 317
o shell-north-pane-3
usemtl glass
v 12.2 11.88 1
v 12.2 11.88 2.2
v 12.2 11.92 1
v 12.2 11.92 2.2
v 13.4 11.88 1
v 13.4 11.88 2.2
v 13.4 11.92 1
v 13.4 11.92 2.2
f 323 327 325 321
f 326 328 324 322
f 325 326 322 321
f 324 328 327 323
f 322 324 323 321
f 327 328 326 325
o shell-north-end
usemtl wall
v 13.4 11.8 0
v 13.4 11.8 2.8
v 13.4 12 0
v 13.4 12 2.8
v 16 11.8 0
v 16 11.8 2.8
v 16 12 0
v 16 12 2.8
f 331 335 333 329
f 334 336 332 330
f 333 334 330 329
f 332 336 335 331
f 330 332 331 329
f 335 336 334 333
o shell-west-end
usemtl wall
v 0 0.2 0
v 0 0.2 2.8
v 0 11.8 0
v 0 11.8 2.8
v 0.2 0.2 0
v 0.2 0.2 2.8
v 0.2 11.8 0
v 0.2 11.8 2.8
f 339 343 341 337
f 342 344 340 338
f 341 342 338 337
f 340 344 343 339
f 338 340 339 337
f 343 344 342 341
o shell-east-end
usemtl wall
v 15.8 0.2 0
v 15.8 0.2 2.8
v 15.8 11.8 0
v 15.8 11.8 2.8
v 16 0.2 0
v 16 0.2 2.8
v 16 11.8 0
v 16 11.8 2.8
f 347 351 349 345
f 350 352 348 346
f 349 350 346 345
f 348 352 351 347
f 346 348 347 345
f 351 352 350 349
o hall-south-pier-0
usemtl wall
v 0.2 7 0
v 0.2 7 2.8
v 0.2 7.15 0
v 0.2 7.15 2.8
v 3.7 7 0
v 3.7 7 2.8
v 3.7 7.15 0
v 3.7 7.15 2.8
f 355 359 357 353
f 358 360 356 354
f 357 358 354 353
f 356 360 359 355
f 354 356 355 353
f 359 360 358 357
o hall-south-lintel-0
usemtl wall
v 3.7 7 2.2
v 3.7 7 2.8
v 3.7 7.15 2.2
v 3.7 7.15 2.8
v 5.3 7 2.2
v 5.3 7 2.8
v 5.3 7.15 2.2
v 5.3 7.15 2.8
f 363 367 365 361
f 366 368 364 362
f 365 366 362 361
f 364 368 367 363
f 362 364 363 361
f 367 368 366 365
o hall-south-pier-1
usemtl wall
v 5.3 7 0
v 5.3 7 2.8
v 5.3 7.15 0
v 5.3 7.15 2.8
v 12.05 7 0
v 12.05 7 2.8
v 12.05 7.15 0
v 12.05 7.15 2.8
f 371 375 373 369
f 374 376 372 370
f 373 374 370 369
f 372 376 375 371
f 370 372 371 369
f 375 376 374 373
o hall-south-lintel-1
usemtl wall
v 12.05 7 2.1
v 12.05 7 2.8
v 12.05 7.15 2.1
v 12.05 7.15 2.8
v 12.95 7 2.1
v 12.95 7 2.8
v 12.95 7.15 2.1
v 12.95 7.15 2.8
f 379 383 381 377
f 382 384 380 378
f 381 382 378 377
f 380 384 383 379
f 378 380 379 377
f 383 384 382 381
o hall-south-end
usemtl wall
v 12.95 7 0
v 12.95 7 2.8
v 12.95 7.15 0
v 12.95 7.15 2.8
v 15.8 7 0
v 15.8 7 2.8
v 15.8 7.15 0
v 15.8 7.15 2.8
f 387 391 389 385
f 390 392 388 386
f 389 390 386 385
f 388 392 391 387
f 386 388 387 385
f 391 392 390 389
o living-study-end
usemtl wall
v 9 0.2 0
v 9 0.2 2.8
v 9 7 0
v 9 7 2.8
v 9.15 0.2 0
v 9.15 0.2 2.8
v 9.15 7 0
v 9.15 7 2.8
f 395 399 397 393
f 398 400 396 394
f 397 398 394 393
f 396 400 399 395
f 394 396 395 393
f 399 400 398 397
o hall-north-pier-0
usemtl wall
v 0.2 8.4 0
v 0.2 8.4 2.8
v 0.2 8.55 0
v 0.2 8.55 2.8
v 2.55 8.4 0
v 2.55 8.4 2.8
v 2.55 8.55 0
v 2.55 8.55 2.8
f 403 407 405 401
f 406 408 404 402
f 405 406 402 401
f 404 408 407 403
f 402 404 403 401
f 407 408 406 405
o hall-north-lintel-0
usemtl wall
v 2.55 8.4 2.1
v 2.55 8.4 2.8
v 2.55 8.55 2.1
v 2.55 8.55 2.8
v 3.45 8.4 2.1
v 3.45 8.4 2.8
v 3.45 8.55 2.1
v 3.45 8.55 2.8
f 411 415 413 409
f 414 416 412 410
f 413 414 410 409
f 412 416 415 411
f 410 412 411 409
f 415 416 414 413
o hall-north-pier-1
usemtl wall
v 3.45 8.4 0
v 3.45 8.4 2.8
v 3.45 8.55 0
v 3.45 8.55 2.8
v 6.55 8.4 0
v 6.55 8.4 2.8
v 6.55 8.55 0
v 6.55 8.55 2.8
f 419 423 421 417
f 422 424 420 418
f 421 422 418 417
f 420 424 423 419
f 418 420 419 417
f 423 424 422 421
o hall-north-lintel-1
usemtl wall
v 6.55 8.4 2.1
v 6.55 8.4 2.8
v 6.55 8.55 2.1
v 6.55 8.55 2.8
v 7.45 8.4 2.1
v 7.45 8.4 2.8
v 7.45 8.55 2.1
v 7.45 8.55 2.8
f 427 431 429 425
f 430 432 428 426
f 429 430 426 425
f 428 432 431 427
f 426 428 427 425
f 431 432 430 429
o hall-north-pier-2
usemtl wall
v 7.45 8.4 0
v 7.45 8.4 2.8
v 7.45 8.55 0
v 7.45 8.55 2.8
v 10.55 8.4 0
v 10.55 8.4 2.8
v 10.55 8.55 0
v 10.55 8.55 2.8
f 435 439 437 433
f 438 440 436 434
f 437 438 434 433
f 436 440 439 435
f 434 436 435 433
f 439 440 438 437
o hall-north-lintel-2
usemtl wall
v 10.55 8.4 2.1
v 10.55 8.4 2.8
v 10.55 8.55 2.1
v 10.55 8.55 2.8
v 11.45 8.4 2.1
v 11.45 8.4 2.8
v 11.45 8.55 2.1
v 11.45 8.55 2.8
f 443 447 445 441
f 446 448 444 442
f 445 446 442 441
f 444 448 447 443
f 442 444 443 441
f 447 448 446 445
o hall-north-end
usemtl wall
v 11.45 8.4 0
v 11.45 8.4 2.8
v 11.45 8.55 0
v 11.45 8.55 2.8
v 15.8 8.4 0
v 15.8 8.4 2.8
v 15.8 8.55 0
v 15.8 8.55 2.8
f 451 455 453 449
f 454 456 452 450
f 453 454 450 449
f 452 456 455 451
f 450 452 451 449
f 455 456 454 453
o bedroom-bath-end
usemtl wall
v 5.5 8.55 0
v 5.5 8.55 2.8
v 5.5 11.8 0
v 5.5 11.8 2.8
v 5.65 8.55 0
v 5.65 8.55 2.8
v 5.65 11.8 0
v 5.65 11.8 2.8
f 459 463 461 457
f 462 464 460 458
f 461 462 458 457
f 460 464 463 459
f 458 460 459 457
f 463 464 462 461
o bath-bedroom-end
usemtl wall
v 8.6 8.55 0
v 8.6 8.55 2.8
v 8.6 11.8 0
v 8.6 11.8 2.8
v 8.75 8.55 0
v 8.75 8.55 2.8
v 8.75 11.8 0
v 8.75 11.8 2.8
f 467 471 469 465
f 470 472 468 466
f 469 470 466 465
f 468 472 471 467
f 466 468 467 465
f 471 472 470 469
o counter
usemtl stone
v 0.2 2.8 0
v 0.2 2.8 0.9
v 0.2 6 0
v 0.2 6 0.9
v 0.85 2.8 0
v 0.85 2.8 0.9
v 0.85 6 0
v 0.85 6 0.9
f 475 479 477 473
f 478 480 476 474
f 477 478 474 473
f 476 480 479 475
f 474 476 475 473
f 479 480 478 477
o upper-cabinets
usemtl furniture
v 0.2 2.8 1.5
v 0.2 2.8 2.2
v 0.2 6 1.5
v 0.2 6 2.2
v 0.55 2.8 1.5
v 0.55 2.8 2.2
v 0.55 6 1.5
v 0.55 6 2.2
f 483 487 485 481
f 486 488 484 482
f 485 486 482 481
f 484 488 487 483
f 482 484 483 481
f 487 488 486 485
o fridge
usemtl metal
v 0.2 6.05 0
v 0.2 6.05 2
v 0.2 6.85 0
v 0.2 6.85 2
v 0.9 6.05 0
v 0.9 6.05 2
v 0.9 6.85 0
v 0.9 6.85 2
f 491 495 493 489
f 494 496 492 490
f 493 494 490 489
f 492 496 495 491
f 490 492 491 489
f 495 496 494 493
o island
usemtl stone
v 2.4 4.2 0
v 2.4 4.2 0.95
v 2.4 5.1 0
v 2.4 5.1 0.95
v 4.2 4.2 0
v 4.2 4.2 0.95
v 4.2 5.1 0
v 4.2 5.1 0.95
f 499 503 501 497
f 502 504 500 498
f 501 502 498 497
f 500 504 503 499
f 498 500 499 497
f 503 504 502 501
o island-lamp-0-cord
usemtl metal
v 2.89 4.64 2.25
v 2.89 4.64 2.8
v 2.89 4.66 2.25
v 2.89 4.66 2.8
v 2.91 4.64 2.25
v 2.91 4.64 2.8
v 2.91 4.66 2.25
v 2.91 4.66 2.8
f 507 511 509 505
f 510 512 508 506
f 509 510 506 505
f 508 512 511 507
f 506 508 507 505
f 511 512 510 509
o island-lamp-0-shade
usemtl lamp
v 2.725 4.475 2
v 2.725 4.475 2.25
v 2.725 4.825 2
v 2.725 4.825 2.25
v 3.075 4.475 2
v 3.075 4.475 2.25
v 3.075 4.825 2
v 3.075 4.825 2.25
f 515 519 517 513
f 518 520 516 514
f 517 518 514 513
f 516 520 519 515
f 514 516 515 513
f 519 520 518 517
o island-lamp-1-cord
usemtl metal
v 3.69 4.64 2.25
v 3.69 4.64 2.8
v 3.69 4.66 2.25
v 3.69 4.66 2.8
v 3.71 4.64 2.25
v 3.71 4.64 2.8
v 3.71 4.66 2.25
v 3.71 4.66 2.8
f 523 527 525 521
f 526 528 524 522
f 525 526 522 521
f 524 528 527 523
f 522 524 523 521
f 527 528 526 525
o island-lamp-1-shade
usemtl lamp
v 3.525 4.475 2
v 3.525 4.475 2.25
v 3.525 4.825 2
v 3.525 4.825 2.25
v 3.875 4.475 2
v 3.875 4.475 2.25
v 3.875 4.825 2
v 3.875 4.825 2.25
f 531 535 533 529
f 534 536 532 530
f 533 534 530 529
f 532 536 535 531
f 530 532 531 529
f 535 536 534 533
o dining-table-top
usemtl wood
v 5.6 4.4 0.71
v 5.6 4.4 0.75
v 5.6 5.3 0.71
v 5.6 5.3 0.75
v 7.4 4.4 0.71
v 7.4 4.4 0.75
v 7.4 5.3 0.71
v 7.4 5.3 0.75
f 539 543 541 537
f 542 544 540 538
f 541 542 538 537
f 540 544 543 539
f 538 540 539 537
f 543 544 542 541
o dining-table-leg-0
usemtl metal
v 5.6 4.4 0
v 5.6 4.4 0.71
v 5.6 4.46 0
v 5.6 4.46 0.71
v 5.66 4.4 0
v 5.66 4.4 0.71
v 5.66 4.46 0
v 5.66 4.46 0.71
f 547 551 549 545
f 550 552 548 546
f 549 550 546 545
f 548 552 551 547
f 546 548 547 545
f 551 552 550 549
o dining-table-leg-1
usemtl metal
v 7.34 4.4 0
v 7.34 4.4 0.71
v 7.34 4.46 0
v 7.34 4.46 0.71
v 7.4 4.4 0
v 7.4 4.4 0.71
v 7.4 4.46 0
v 7.4 4.46 0.71
f 555 559 557 553
f 558 560 556 554
f 557 558 554 553
f 556 560 559 555
f 554 556 555 553
f 559 560 558 557
o dining-table-leg-2
usemtl metal
v 5.6 5.24 0
v 5.6 5.24 0.71
v 5.6 5.3 0
v 5.6 5.3 0.71
v 5.66 5.24 0
v 5.66 5.24 0.71
v 5.66 5.3 0
v 5.66 5.3 0.71
f 563 567 565 561
f 566 568 564 562
f 565 566 562 561
f 564 568 567 563
f 562 564 563 561
f 567 568 566 565
o dining-table-leg-3
usemtl metal
v 7.34 5.24 0
v 7.34 5.24 0.71
v 7.34 5.3 0
v 7.34 5.3 0.71
v 7.4 5.24 0
v 7.4 5.24 0.71
v 7.4 5.3 0
v 7.4 5.3 0.71
f 571 575 573 569
f 574 576 572 570
f 573 574 570 569
f 572 576 575 571
f 570 572 571 569
f 575 576 574 573
o dining-chair-0-seat
usemtl fabric
v 5.825 3.85 0
v 5.825 3.85 0.46
v 5.825 4.3 0
v 5.825 4.3 0.46
v 6.275 3.85 0
v 6.275 3.85 0.46
v 6.275 4.3 0
v 6.275 4.3 0.46
f 579 583 581 577
f 582 584 580 578
f 581 582 578 577
f 580 584 583 579
f 578 580 579 577
f 583 584 582 581
o dining-chair-0-back
usemtl fabric
v 5.825 3.85 0.46
v 5.825 3.85 0.9
v 5.825 3.92 0.46
v 5.825 3.92 0.9
v 6.275 3.85 0.46
v 6.275 3.85 0.9
v 6.275 3.92 0.46
v 6.275 3.92 0.9
f 587 591 589 585
f 590 592 588 586
f 589 590 586 585
f 588 592 591 587
f 586 588 587 585
f 591 592 590 589
o dining-chair-1-seat
usemtl fabric
v 5.825 5.4 0
v 5.825 5.4 0.46
v 5.825 5.85 0
v 5.825 5.85 0.46
v 6.275 5.4 0
v 6.275 5.4 0.46
v 6.275 5.85 0
v 6.275 5.85 0.46
f 595 599 597 593
f 598 600 596 594
f 597 598 594 593
f 596 600 599 595
f 594 596 595 593
f 599 600 598 597
o dining-chair-1-back
usemtl fabric
v 5.825 5.78 0.46
v 5.825 5.78 0.9
v 5.825 5.85 0.46
v 5.825 5.85 0.9
v 6.275 5.78 0.46
v 6.275 5.78 0.9
v 6.275 5.85 0.46
v 6.275 5.85 0.9
f 603 607 605 601
f 606 608 604 602
f 605 606 602 601
f 604 608 607 603
f 602 604 603 601
f 607 608 606 605
o dining-chair-2-seat
usemtl fabric
v 6.725 3.85 0
v 6.725 3.85 0.46
v 6.725 4.3 0
v 6.725 4.3 0.46
v 7.175 3.85 0
v 7.175 3.85 0.46
v 7.175 4.3 0
v 7.175 4.3 0.46
f 611 615 613 609
f 614 616 612 610
f 613 614 610 609
f 612 616 615 611
f 610 612 611 609
f 615 616 614 613
o dining-chair-2-back
usemtl fabric
v 6.725 3.85 0.46
v 6.725 3.85 0.9
v 6.725 3.92 0.46
v 6.725 3.92 0.9
v 7.175 3.85 0.46
v 7.175 3.85 0.9
v 7.175 3.92 0.46
v 7.175 3.92 0.9
f 619 623 621 617
f 622 624 620 618
f 621 622 618 617
f 620 624 623 619
f 618 620 619 617
f 623 624 622 621
o dining-chair-3-seat
usemtl fabric
v 6.725 5.4 0
v 6.725 5.4 0.46
v 6.725 5.85 0
v 6.725 5.85 0.46
v 7.175 5.4 0
v 7.175 5.4 0.46
v 7.175 5.85 0
v 7.175 5.85 0.46
f 627 631 629 625
f 630 632 628 626
f 629 630 626 625
f 628 632 631 627
f 626 628 627 625
f 631 632 630 629
o dining-chair-3-back
usemtl fabric
v 6.725 5.78 0.46
v 6.725 5.78 0.9
v 6.725 5.85 0.46
v 6.725 5.85 0.9
v 7.175 5.78 0.46
v 7.175 5.78 0.9
v 7.175 5.85 0.46
v 7.175 5.85 0.9
f 635 639 637 633
f 638 640 636 634
f 637 638 634 633
f 636 640 639 635
f 634 636 635 633
f 639 640 638 637
o dining-lamp-cord
usemtl metal
v 6.49 4.84 2.15
v 6.49 4.84 2.8
v 6.49 4.86 2.15
v 6.49 4.86 2.8
v 6.51 4.84 2.15
v 6.51 4.84 2.8
v 6.51 4.86 2.15
v 6.51 4.86 2.8
f 643 647 645 641
f 646 648 644 642
f 645 646 642 641
f 644 648 647 643
f 642 644 643 641
f 647 648 646 645
o dining-lamp-shade
usemtl lamp
v 6.25 4.6 1.9
v 6.25 4.6 2.15
v 6.25 5.1 1.9
v 6.25 5.1 2.15
v 6.75 4.6 1.9
v 6.75 4.6 2.15
v 6.75 5.1 1.9
v 6.75 5.1 2.15
f 651 655 653 649
f 654 656 652 650
f 653 654 650 649
f 652 656 655 651
f 650 652 651 649
f 655 656 654 653
o sofa-seat
usemtl fabric
v 5.4 0.9 0
v 5.4 0.9 0.42
v 5.4 3.1 0
v 5.4 3.1 0.42
v 6.3 0.9 0
v 6.3 0.9 0.42
v 6.3 3.1 0
v 6.3 3.1 0.42
f 659 663 661 657
f 662 664 660 658
f 661 662 658 657
f 660 664 663 659
f 658 660 659 657
f 663 664 662 661
o sofa-back
usemtl fabric
v 5.4 0.9 0.42
v 5.4 0.9 0.85
v 5.4 3.1 0.42
v 5.4 3.1 0.85
v 5.62 0.9 0.42
v 5.62 0.9 0.85
v 5.62 3.1 0.42
v 5.62 3.1 0.85
f 667 671 669 665
f 670 672 668 666
f 669 670 666 665
f 668 672 671 667
f 666 668 667 665
f 671 672 670 669
o sofa-arm-0
usemtl fabric
v 5.4 0.9 0.42
v 5.4 0.9 0.62
v 5.4 1.12 0.42
v 5.4 1.12 0.62
v 6.3 0.9 0.42
v 6.3 0.9 0.62
v 6.3 1.12 0.42
v 6.3 1.12 0.62
f 675 679 677 673
f 678 680 676 674
f 677 678 674 673
f 676 680 679 675
f 674 676 675 673
f 679 680 678 677
o sofa-arm-1
usemtl fabric
v 5.4 2.88 0.42
v 5.4 2.88 0.62
v 5.4 3.1 0.42
v 5.4 3.1 0.62
v 6.3 2.88 0.42
v 6.3 2.88 0.62
v 6.3 3.1 0.42
v 6.3 3.1 0.62
f 683 687 685 681
f 686 688 684 682
f 685 686 682 681
f 684 688 687 683
f 682 684 683 681
f 687 688 686 685
o coffee-table-top
usemtl wood
v 6.7 1.4 0.38
v 6.7 1.4 0.42
v 6.7 2.6 0.38
v 6.7 2.6 0.42
v 7.5 1.4 0.38
v 7.5 1.4 0.42
v 7.5 2.6 0.38
v 7.5 2.6 0.42
f 691 695 693 689
f 694 696 692 690
f 693 694 690 689
f 692 696 695 691
f 690 692 691 689
f 695 696 694 693
o coffee-table-leg-0
usemtl metal
v 6.7 1.4 0
v 6.7 1.4 0.38
v 6.7 1.46 0
v 6.7 1.46 0.38
v 6.76 1.4 0
v 6.76 1.4 0.38
v 6.76 1.46 0
v 6.76 1.46 0.38
f 699 703 701 697
f 702 704 700 698
f 701 702 698 697
f 700 704 703 699
f 698 700 699 697
f 703 704 702 701
o coffee-table-leg-1
usemtl metal
v 7.44 1.4 0
v 7.44 1.4 0.38
v 7.44 1.46 0
v 7.44 1.46 0.38
v 7.5 1.4 0
v 7.5 1.4 0.38
v 7.5 1.46 0
v 7.5 1.46 0.38
f 707 711 709 705
f 710 712 708 706
f 709 710 706 705
f 708 712 711 707
f 706 708 707 705
f 711 712 710 709
o coffee-table-leg-2
usemtl metal
v 6.7 2.54 0
v 6.7 2.54 0.38
v 6.7 2.6 0
v 6.7 2.6 0.38
v 6.76 2.54 0
v 6.76 2.54 0.38
v 6.76 2.6 0
v 6.76 2.6 0.38
f 715 719 717 713
f 718 720 716 714
f 717 718 714 713
f 716 720 719 715
f 714 716 715 713
f 719 720 718 717
o coffee-table-leg-3
usemtl metal
v 7.44 2.54 0
v 7.44 2.54 0.38
v 7.44 2.6 0
v 7.44 2.6 0.38
v 7.5 2.54 0
v 7.5 2.54 0.38
v 7.5 2.6 0
v 7.5 2.6 0.38
f 723 727 725 721
f 726 728 724 722
f 725 726 722 721
f 724 728 727 723
f 722 724 723 721
f 727 728 726 725
o tv-unit
usemtl furniture
v 8.45 1 0
v 8.45 1 0.5
v 8.45 3 0
v 8.45 3 0.5
v 8.95 1 0
v 8.95 1 0.5
v 8.95 3 0
v 8.95 3 0.5
f 731 735 733 729
f 734 736 732 730
f 733 734 730 729
f 732 736 735 731
f 730 732 731 729
f 735 736 734 733
o tv
usemtl screen
v 8.88 1.2 0.9
v 8.88 1.2 1.7
v 8.88 2.8 0.9
v 8.88 2.8 1.7
v 8.95 1.2 0.9
v 8.95 1.2 1.7
v 8.95 2.8 0.9
v 8.95 2.8 1.7
f 739 743 741 737
f 742 744 740 738
f 741 742 738 737
f 740 744 743 739
f 738 740 739 737
f 743 744 742 741
o floor-lamp-pole
usemtl metal
v 5.05 0.45 0
v 5.05 0.45 1.5
v 5.05 0.5 0
v 5.05 0.5 1.5
v 5.1 0.45 0
v 5.1 0.45 1.5
v 5.1 0.5 0
v 5.1 0.5 1.5
f 747 751 749 745
f 750 752 748 746
f 749 750 746 745
f 748 752 751 747
f 746 748 747 745
f 751 752 750 749
o floor-lamp-shade
usemtl lamp
v 4.9 0.3 1.5
v 4.9 0.3 1.75
v 4.9 0.65 1.5
v 4.9 0.65 1.75
v 5.25 0.3 1.5
v 5.25 0.3 1.75
v 5.25 0.65 1.5
v 5.25 0.65 1.75
f 755 759 757 753
f 758 760 756 754
f 757 758 754 753
f 756 760 759 755
f 754 756 755 753
f 759 760 758 757
o living-plant-pot
usemtl stone
v 0.4 0.4 0
v 0.4 0.4 0.45
v 0.4 0.85 0
v 0.4 0.85 0.45
v 0.85 0.4 0
v 0.85 0.4 0.45
v 0.85 0.85 0
v 0.85 0.85 0.45
f 763 767 765 761
f 766 768 764 762
f 765 766 762 761
f 764 768 767 763
f 762 764 763 761
f 767 768 766 765
o living-plant-leaves
usemtl vegetation
v 0.2875 0.2875 0.45
v 0.2875 0.2875 1.5
v 0.2875 0.9625 0.45
v 0.2875 0.9625 1.5
v 0.9625 0.2875 0.45
v 0.9625 0.2875 1.5
v 0.9625 0.9625 0.45
v 0.9625 0.9625 1.5
f 771 775 773 769
f 774 776 772 770
f 773 774 770 769
f 772 776 775 771
f 770 772 771 769
f 775 776 774 773
o study-desk-top
usemtl wood
v 13.8 1 0.71
v 13.8 1 0.75
v 13.8 1.8 0.71
v 13.8 1.8 0.75
v 15.6 1 0.71
v 15.6 1 0.75
v 15.6 1.8 0.71
v 15.6 1.8 0.75
f 779 783 781 777
f 782 784 780 778
f 781 782 778 777
f 780 784 783 779
f 778 780 779 777
f 783 784 782 781
o study-desk-leg-0
usemtl metal
v 13.8 1 0
v 13.8 1 0.71
v 13.8 1.06 0
v 13.8 1.06 0.71
v 13.86 1 0
v 13.86 1 0.71
v 13.86 1.06 0
v 13.86 1.06 0.71
f 787 791 789 785
f 790 792 788 786
f 789 790 786 785
f 788 792 791 787
f 786 788 787 785
f 791 792 790 789
o study-desk-leg-1
usemtl metal
v 15.54 1 0
v 15.54 1 0.71
v 15.54 1.06 0
v 15.54 1.06 0.71
v 15.6 1 0
v 15.6 1 0.71
v 15.6 1.06 0
v 15.6 1.06 0.71
f 795 799 797 793
f 798 800 796 794
f 797 798 794 793
f 796 800 799 795
f 794 796 795 793
f 799 800 798 797
o study-desk-leg-2
usemtl metal
v 13.8 1.74 0
v 13.8 1.74 0.71
v 13.8 1.8 0
v 13.8 1.8 0.71
v 13.86 1.74 0
v 13.86 1.74 0.71
v 13.86 1.8 0
v 13.86 1.8 0.71
f 803 807 805 801
f 806 808 804 802
f 805 806 802 801
f 804 808 807 803
f 802 804 803 801
f 807 808 806 805
o study-desk-leg-3
usemtl metal
v 15.54 1.74 0
v 15.54 1.74 0.71
v 15.54 1.8 0
v 15.54 1.8 0.71
v 15.6 1.74 0
v 15.6 1.74 0.71
v 15.6 1.8 0
v 15.6 1.8 0.71
f 811 815 813 809
f 814 816 812 810
f 813 814 810 809
f 812 816 815 811
f 810 812 811 809
f 815 816 814 813
o study-chair-seat
usemtl fabric
v 14.5 1.9 0
v 14.5 1.9 0.46
v 14.5 2.35 0
v 14.5 2.35 0.46
v 14.95 1.9 0
v 14.95 1.9 0.46
v 14.95 2.35 0
v 14.95 2.35 0.46
f 819 823 821 817
f 822 824 820 818
f 821 822 818 817
f 820 824 823 819
f 818 820 819 817
f 823 824 822 821
o study-chair-back
usemtl fabric
v 14.5 2.28 0.46
v 14.5 2.28 0.9
v 14.5 2.35 0.46
v 14.5 2.35 0.9
v 14.95 2.28 0.46
v 14.95 2.28 0.9
v 14.95 2.35 0.46
v 14.95 2.35 0.9
f 827 831 829 825
f 830 832 828 826
f 829 830 826 825
f 828 832 831 827
f 826 828 827 825
f 831 832 830 829
o study-books-side-0
usemtl wood
v 9.15 1 0
v 9.15 1 2.2
v 9.15 1.03 0
v 9.15 1.03 2.2
v 9.5 1 0
v 9.5 1 2.2
v 9.5 1.03 0
v 9.5 1.03 2.2
f 835 839 837 833
f 838 840 836 834
f 837 838 834 833
f 836 840 839 835
f 834 836 835 833
f 839 840 838 837
o study-books-side-1
usemtl wood
v 9.15 4.97 0
v 9.15 4.97 2.2
v 9.15 5 0
v 9.15 5 2.2
v 9.5 4.97 0
v 9.5 4.97 2.2
v 9.5 5 0
v 9.5 5 2.2
f 843 847 845 841
f 846 848 844 842
f 845 846 842 841
f 844 848 847 843
f 842 844 843 841
f 847 848 846 845
o study-books-board-0
usemtl wood
v 9.15 1 0
v 9.15 1 0.03
v 9.15 5 0
v 9.15 5 0.03
v 9.5 1 0
v 9.5 1 0.03
v 9.5 5 0
v 9.5 5 0.03
f 851 855 853 849
f 854 856 852 850
f 853 854 850 849
f 852 856 855 851
f 850 852 851 849
f 855 856 854 853
o study-books-board-1
usemtl wood
v 9.15 1 0.44
v 9.15 1 0.47
v 9.15 5 0.44
v 9.15 5 0.47
v 9.5 1 0.44
v 9.5 1 0.47
v 9.5 5 0.44
v 9.5 5 0.47
f 859 863 861 857
f 862 864 860 858
f 861 862 858 857
f 860 864 863 859
f 858 860 859 857
f 863 864 862 861
o study-books-board-2
usemtl wood
v 9.15 1 0.88
v 9.15 1 0.91
v 9.15 5 0.88
v 9.15 5 0.91
v 9.5 1 0.88
v 9.5 1 0.91
v 9.5 5 0.88
v 9.5 5 0.91
f 867 871 869 865
f 870 872 868 866
f 869 870 866 865
f 868 872 871 867
f 866 868 867 865
f 871 872 870 869
o study-books-board-3
usemtl wood
v 9.15 1 1.32
v 9.15 1 1.35
v 9.15 5 1.32
v 9.15 5 1.35
v 9.5 1 1.32
v 9.5 1 1.35
v 9.5 5 1.32
v 9.5 5 1.35
f 875 879 877 873
f 878 880 876 874
f 877 878 874 873
f 876 880 879 875
f 874 876 875 873
f 879 880 878 877
o study-books-board-4
usemtl wood
v 9.15 1 1.76
v 9.15 1 1.79
v 9.15 5 1.76
v 9.15 5 1.79
v 9.5 1 1.76
v 9.5 1 1.79
v 9.5 5 1.76
v 9.5 5 1.79
f 883 887 885 881
f 886 888 884 882
f 885 886 882 881
f 884 888 887 883
f 882 884 883 881
f 887 888 886 885
o study-books-board-5
usemtl wood
v 9.15 1 2.17
v 9.15 1 2.2
v 9.15 5 2.17
v 9.15 5 2.2
v 9.5 1 2.17
v 9.5 1 2.2
v 9.5 5 2.17
v 9.5 5 2.2
f 891 895 893 889
f 894 896 892 890
f 893 894 890 889
f 892 896 895 891
f 890 892 891 889
f 895 896 894 893
o reading-chair-seat
usemtl fabric
v 10.2 4.6 0
v 10.2 4.6 0.42
v 10.2 5.6 0
v 10.2 5.6 0.42
v 11.2 4.6 0
v 11.2 4.6 0.42
v 11.2 5.6 0
v 11.2 5.6 0.42
f 899 903 901 897
f 902 904 900 898
f 901 902 898 897
f 900 904 903 899
f 898 900 899 897
f 903 904 902 901
o reading-chair-back
usemtl fabric
v 10.2 4.6 0.42
v 10.2 4.6 0.85
v 10.2 5.6 0.42
v 10.2 5.6 0.85
v 10.42 4.6 0.42
v 10.42 4.6 0.85
v 10.42 5.6 0.42
v 10.42 5.6 0.85
f 907 911 909 905
f 910 912 908 906
f 909 910 906 905
f 908 912 911 907
f 906 908 907 905
f 911 912 910 909
o reading-chair-arm-0
usemtl fabric
v 10.2 4.6 0.42
v 10.2 4.6 0.62
v 10.2 4.82 0.42
v 10.2 4.82 0.62
v 11.2 4.6 0.42
v 11.2 4.6 0.62
v 11.2 4.82 0.42
v 11.2 4.82 0.62
f 915 919 917 913
f 918 920 916 914
f 917 918 914 913
f 916 920 919 915
f 914 916 915 913
f 919 920 918 917
o reading-chair-arm-1
usemtl fabric
v 10.2 5.38 0.42
v 10.2 5.38 0.62
v 10.2 5.6 0.42
v 10.2 5.6 0.62
v 11.2 5.38 0.42
v 11.2 5.38 0.62
v 11.2 5.6 0.42
v 11.2 5.6 0.62
f 923 927 925 921
f 926 928 924 922
f 925 926 922 921
f 924 928 927 923
f 922 924 923 921
f 927 928 926 925
o study-plant-pot
usemtl stone
v 15.2 6.2 0
v 15.2 6.2 0.45
v 15.2 6.65 0
v 15.2 6.65 0.45
v 15.65 6.2 0
v 15.65 6.2 0.45
v 15.65 6.65 0
v 15.65 6.65 0.45
f 931 935 933 929
f 934 936 932 930
f 933 934 930 929
f 932 936 935 931
f 930 932 931 929
f 935 936 934 933
o study-plant-leaves
usemtl vegetation
v 15.0875 6.0875 0.45
v 15.0875 6.0875 1.5
v 15.0875 6.7625 0.45
v 15.0875 6.7625 1.5
v 15.7625 6.0875 0.45
v 15.7625 6.0875 1.5
v 15.7625 6.7625 0.45
v 15.7625 6.7625 1.5
f 939 943 941 937
f 942 944 940 938
f 941 942 938 937
f 940 944 943 939
f 938 940 939 937
f 943 944 942 941
o bed-1-base
usemtl wood
v 1.2 9.7 0
v 1.2 9.7 0.3
v 1.2 11.8 0
v 1.2 11.8 0.3
v 2.8 9.7 0
v 2.8 9.7 0.3
v 2.8 11.8 0
v 2.8 11.8 0.3
f 947 951 949 945
f 950 952 948 946
f 949 950 946 945
f 948 952 951 947
f 946 948 947 945
f 951 952 950 949
o bed-1-mattress
usemtl fabric
v 1.23 9.73 0.3
v 1.23 9.73 0.55
v 1.23 11.77 0.3
v 1.23 11.77 0.55
v 2.77 9.73 0.3
v 2.77 9.73 0.55
v 2.77 11.77 0.3
v 2.77 11.77 0.55
f 955 959 957 953
f 958 960 956 954
f 957 958 954 953
f 956 960 959 955
f 954 956 955 953
f 959 960 958 957
o bed-1-headboard
usemtl wood
v 1.2 11.72 0
v 1.2 11.72 1.1
v 1.2 11.8 0
v 1.2 11.8 1.1
v 2.8 11.72 0
v 2.8 11.72 1.1
v 2.8 11.8 0
v 2.8 11.8 1.1
f 963 967 965 961
f 966 968 964 962
f 965 966 962 961
f 964 968 967 963
f 962 964 963 961
f 967 968 966 965
o nightstand-1
usemtl wood
v 0.6 11.3 0
v 0.6 11.3 0.55
v 0.6 11.8 0
v 0.6 11.8 0.55
v 1.1 11.3 0
v 1.1 11.3 0.55
v 1.1 11.8 0
v 1.1 11.8 0.55
f 971 975 973 969
f 974 976 972 970
f 973 974 970 969
f 972 976 975 971
f 970 972 971 969
f 975 976 974 973
o wardrobe-1
usemtl wood
v 4.85 9.6 0
v 4.85 9.6 2.2
v 4.85 11.8 0
v 4.85 11.8 2.2
v 5.45 9.6 0
v 5.45 9.6 2.2
v 5.45 11.8 0
v 5.45 11.8 2.2
f 979 983 981 977
f 982 984 980 978
f 981 982 978 977
f 980 984 983 979
f 978 980 979 977
f 983 984 982 981
o bathtub
usemtl ceramic
v 5.65 11.05 0
v 5.65 11.05 0.55
v 5.65 11.8 0
v 5.65 11.8 0.55
v 7.35 11.05 0
v 7.35 11.05 0.55
v 7.35 11.8 0
v 7.35 11.8 0.55
f 987 991 989 985
f 990 992 988 986
f 989 990 986 985
f 988 992 991 987
f 986 988 987 985
f 991 992 990 989
o shower-screen
usemtl glass
v 6.8 11.05 0.55
v 6.8 11.05 1.9
v 6.8 11.8 0.55
v 6.8 11.8 1.9
v 6.84 11.05 0.55
v 6.84 11.05 1.9
v 6.84 11.8 0.55
v 6.84 11.8 1.9
f 995 999 997 993
f 998 1000 996 994
f 997 998 994 993
f 996 1000 999 995
f 994 996 995 993
f 999 1000 998 997
o toilet-bowl
usemtl ceramic
v 5.7 8.85 0
v 5.7 8.85 0.42
v 5.7 9.45 0
v 5.7 9.45 0.42
v 6.1 8.85 0
v 6.1 8.85 0.42
v 6.1 9.45 0
v 6.1 9.45 0.42
f 1003 1007 1005 1001
f 1006 1008 1004 1002
f 1005 1006 1002 1001
f 1004 1008 1007 1003
f 1002 1004 1003 1001
f 1007 1008 1006 1005
o toilet-tank
usemtl ceramic
v 5.65 8.55 0
v 5.65 8.55 0.8
v 5.65 8.8 0
v 5.65 8.8 0.8
v 6.15 8.55 0
v 6.15 8.55 0.8
v 6.15 8.8 0
v 6.15 8.8 0.8
f 1011 1015 1013 1009
f 1014 1016 1012 1010
f 1013 1014 1010 1009
f 1012 1016 1015 1011
f 1010 1012 1011 1009
f 1015 1016 1014 1013
o vanity
usemtl furniture
v 8.05 9.2 0
v 8.05 9.2 0.85
v 8.05 10.2 0
v 8.05 10.2 0.85
v 8.6 9.2 0
v 8.6 9.2 0.85
v 8.6 10.2 0
v 8.6 10.2 0.85
f 1019 1023 1021 1017
f 1022 1024 1020 1018
f 1021 1022 1018 1017
f 1020 1024 1023 1019
f 1018 1020 1019 1017
f 1023 1024 1022 1021
o mirror
usemtl glass
v 8.56 9.25 1.1
v 8.56 9.25 1.9
v 8.56 10.15 1.1
v 8.56 10.15 1.9
v 8.6 9.25 1.1
v 8.6 9.25 1.9
v 8.6 10.15 1.1
v 8.6 10.15 1.9
f 1027 1031 1029 1025
f 1030 1032 1028 1026
f 1029 1030 1026 1025
f 1028 1032 1031 1027
f 1026 1028 1027 1025
f 1031 1032 1030 1029
o bed-2-base
usemtl wood
v 11.5 9.7 0
v 11.5 9.7 0.3
v 11.5 11.8 0
v 11.5 11.8 0.3
v 13.3 9.7 0
v 13.3 9.7 0.3
v 13.3 11.8 0
v 13.3 11.8 0.3
f 1035 1039 1037 1033
f 1038 1040 1036 1034
f 1037 1038 1034 1033
f 1036 1040 1039 1035
f 1034 1036 1035 1033
f 1039 1040 1038 1037
o bed-2-mattress
usemtl fabric
v 11.53 9.73 0.3
v 11.53 9.73 0.55
v 11.53 11.77 0.3
v 11.53 11.77 0.55
v 13.27 9.73 0.3
v 13.27 9.73 0.55
v 13.27 11.77 0.3
v 13.27 11.77 0.55
f 1043 1047 1045 1041
f 1046 1048 1044 1042
f 1045 1046 1042 1041
f 1044 1048 1047 1043
f 1042 1044 1043 1041
f 1047 1048 1046 1045
o bed-2-headboard
usemtl wood
v 11.5 11.72 0
v 11.5 11.72 1.1
v 11.5 11.8 0
v 11.5 11.8 1.1
v 13.3 11.72 0
v 13.3 11.72 1.1
v 13.3 11.8 0
v 13.3 11.8 1.1
f 1051 1055 1053 1049
f 1054 1056 1052 1050
f 1053 1054 1050 1049
f 1052 1056 1055 1051
f 1050 1052 1051 1049
f 1055 1056 1054 1053
o nightstand-2
usemtl wood
v 13.4 11.3 0
v 13.4 11.3 0.55
v 13.4 11.8 0
v 13.4 11.8 0.55
v 13.9 11.3 0
v 13.9 11.3 0.55
v 13.9 11.8 0
v 13.9 11.8 0.55
f 1059 1063 1061 1057
f 1062 1064 1060 1058
f 1061 1062 1058 1057
f 1060 1064 1063 1059
f 1058 1060 1059 1057
f 1063 1064 1062 1061
o wardrobe-2
usemtl wood
v 8.75 11.2 0
v 8.75 11.2 2.2
v 8.75 11.8 0
v 8.75 11.8 2.2
v 10.6 11.2 0
v 10.6 11.2 2.2
v 10.6 11.8 0
v 10.6 11.8 2.2
f 1067 1071 1069 1065
f 1070 1072 1068 1066
f 1069 1070 1066 1065
f 1068 1072 1071 1067
f 1066 1068 1067 1065
f 1071 1072 1070 1069
o fan-rod
usemtl metal
v 12.35 10.7 2.35
v 12.35 10.7 2.8
v 12.35 10.8 2.35
v 12.35 10.8 2.8
v 12.45 10.7 2.35
v 12.45 10.7 2.8
v 12.45 10.8 2.35
v 12.45 10.8 2.8
f 1075 1079 1077 1073
f 1078 1080 1076 1074
f 1077 1078 1074 1073
f 1076 1080 1079 1075
f 1074 1076 1075 1073
f 1079 1080 1078 1077
o fan-blades-x
usemtl wood
v 11.8 10.69 2.3
v 11.8 10.69 2.35
v 11.8 10.81 2.3
v 11.8 10.81 2.35
v 13 10.69 2.3
v 13 10.69 2.35
v 13 10.81 2.3
v 13 10.81 2.35
f 1083 1087 1085 1081
f 1086 1088 1084 1082
f 1085 1086 1082 1081
f 1084 1088 1087 1083
f 1082 1084 1083 1081
f 1087 1088 1086 1085
o fan-blades-y
usemtl wood
v 12.34 10.15 2.3
v 12.34 10.15 2.35
v 12.34 11.35 2.3
v 12.34 11.35 2.35
v 12.46 10.15 2.3
v 12.46 10.15 2.35
v 12.46 11.35 2.3
v 12.46 11.35 2.35
f 1091 1095 1093 1089
f 1094 1096 1092 1090
f 1093 1094 1090 1089
f 1092 1096 1095 1091
f 1090 1092 1091 1089
f 1095 1096 1094 1093
o ground-visual-only
usemtl ground
v 0 0 0
v 16 0 0
v 16 12 0
v 0 12 0
f 1097 1098 1099 1100
