# architecture-0.2; original synthetic architecture, meters, Z up
mtllib courtyard.mtl
o south-west-mass
usemtl building
v 0 0 0
v 0 0 10
v 0 8 0
v 0 8 10
v 18 0 0
v 18 0 10
v 18 8 0
v 18 8 10
f 3 7 5 1
f 6 8 4 2
f 5 6 2 1
f 4 8 7 3
f 2 4 3 1
f 7 8 6 5
o south-east-mass
usemtl building
v 22 0 0
v 22 0 10
v 22 8 0
v 22 8 10
v 40 0 0
v 40 0 10
v 40 8 0
v 40 8 10
f 11 15 13 9
f 14 16 12 10
f 13 14 10 9
f 12 16 15 11
f 10 12 11 9
f 15 16 14 13
o gate-roof
usemtl building
v 18 0 4.2
v 18 0 10
v 18 8 4.2
v 18 8 10
v 22 0 4.2
v 22 0 10
v 22 8 4.2
v 22 8 10
f 19 23 21 17
f 22 24 20 18
f 21 22 18 17
f 20 24 23 19
f 18 20 19 17
f 23 24 22 21
o west-wing
usemtl building
v 0 8 0
v 0 8 10
v 0 34 0
v 0 34 10
v 8 8 0
v 8 8 10
v 8 34 0
v 8 34 10
f 27 31 29 25
f 30 32 28 26
f 29 30 26 25
f 28 32 31 27
f 26 28 27 25
f 31 32 30 29
o east-wing
usemtl building
v 32 8 0
v 32 8 10
v 32 34 0
v 32 34 10
v 40 8 0
v 40 8 10
v 40 34 0
v 40 34 10
f 35 39 37 33
f 38 40 36 34
f 37 38 34 33
f 36 40 39 35
f 34 36 35 33
f 39 40 38 37
o parapet-south
usemtl stone
v 0 7.75 10
v 0 7.75 10.8
v 0 8 10
v 0 8 10.8
v 40 7.75 10
v 40 7.75 10.8
v 40 8 10
v 40 8 10.8
f 43 47 45 41
f 46 48 44 42
f 45 46 42 41
f 44 48 47 43
f 42 44 43 41
f 47 48 46 45
o parapet-west
usemtl stone
v 7.75 8 10
v 7.75 8 10.8
v 7.75 34 10
v 7.75 34 10.8
v 8 8 10
v 8 8 10.8
v 8 34 10
v 8 34 10.8
f 51 55 53 49
f 54 56 52 50
f 53 54 50 49
f 52 56 55 51
f 50 52 51 49
f 55 56 54 53
o parapet-east
usemtl stone
v 32 8 10
v 32 8 10.8
v 32 34 10
v 32 34 10.8
v 32.25 8 10
v 32.25 8 10.8
v 32.25 34 10
v 32.25 34 10.8
f 59 63 61 57
f 62 64 60 58
f 61 62 58 57
f 60 64 63 59
f 58 60 59 57
f 63 64 62 61
o lobby-facade-pier-0
usemtl glass
v 8 26 0
v 8 26 4
v 8 26.2 0
v 8 26.2 4
v 18.9 26 0
v 18.9 26 4
v 18.9 26.2 0
v 18.9 26.2 4
f 67 71 69 65
f 70 72 68 66
f 69 70 66 65
f 68 72 71 67
f 66 68 67 65
f 71 72 70 69
o lobby-facade-lintel-0
usemtl glass
v 18.9 26 2.8
v 18.9 26 4
v 18.9 26.2 2.8
v 18.9 26.2 4
v 21.1 26 2.8
v 21.1 26 4
v 21.1 26.2 2.8
v 21.1 26.2 4
f 75 79 77 73
f 78 80 76 74
f 77 78 74 73
f 76 80 79 75
f 74 76 75 73
f 79 80 78 77
o lobby-facade-end
usemtl glass
v 21.1 26 0
v 21.1 26 4
v 21.1 26.2 0
v 21.1 26.2 4
v 32 26 0
v 32 26 4
v 32 26.2 0
v 32 26.2 4
f 83 87 85 81
f 86 88 84 82
f 85 86 82 81
f 84 88 87 83
f 82 84 83 81
f 87 88 86 85
o lobby-back-wall
usemtl wall
v 8 33.8 0
v 8 33.8 4
v 8 34 0
v 8 34 4
v 32 33.8 0
v 32 33.8 4
v 32 34 0
v 32 34 4
f 91 95 93 89
f 94 96 92 90
f 93 94 90 89
f 92 96 95 91
f 90 92 91 89
f 95 96 94 93
o north-upper
usemtl building
v 8 26 4
v 8 26 10
v 8 34 4
v 8 34 10
v 32 26 4
v 32 26 10
v 32 34 4
v 32 34 10
f 99 103 101 97
f 102 104 100 98
f 101 102 98 97
f 100 104 103 99
f 98 100 99 97
f 103 104 102 101
o lobby-canopy
usemtl metal
v 17 24.6 3
v 17 24.6 3.25
v 17 26 3
v 17 26 3.25
v 23 24.6 3
v 23 24.6 3.25
v 23 26 3
v 23 26 3.25
f 107 111 109 105
f 110 112 108 106
f 109 110 106 105
f 108 112 111 107
f 106 108 107 105
f 111 112 110 109
o reception-desk
usemtl wood
v 18 31.5 0
v 18 31.5 1.1
v 18 32.3 0
v 18 32.3 1.1
v 22 31.5 0
v 22 31.5 1.1
v 22 32.3 0
v 22 32.3 1.1
f 115 119 117 113
f 118 120 116 114
f 117 118 114 113
f 116 120 119 115
f 114 116 115 113
f 119 120 118 117
o lobby-column-0
usemtl concrete
v 13.75 29.75 0
v 13.75 29.75 4
v 13.75 30.25 0
v 13.75 30.25 4
v 14.25 29.75 0
v 14.25 29.75 4
v 14.25 30.25 0
v 14.25 30.25 4
f 123 127 125 121
f 126 128 124 122
f 125 126 122 121
f 124 128 127 123
f 122 124 123 121
f 127 128 126 125
o lobby-column-1
usemtl concrete
v 25.75 29.75 0
v 25.75 29.75 4
v 25.75 30.25 0
v 25.75 30.25 4
v 26.25 29.75 0
v 26.25 29.75 4
v 26.25 30.25 0
v 26.25 30.25 4
f 131 135 133 129
f 134 136 132 130
f 133 134 130 129
f 132 136 135 131
f 130 132 131 129
f 135 136 134 133
o lobby-sofa-seat
usemtl fabric
v 10 29 0
v 10 29 0.42
v 10 29.9 0
v 10 29.9 0.42
v 12.2 29 0
v 12.2 29 0.42
v 12.2 29.9 0
v 12.2 29.9 0.42
f 139 143 141 137
f 142 144 140 138
f 141 142 138 137
f 140 144 143 139
f 138 140 139 137
f 143 144 142 141
o lobby-sofa-back
usemtl fabric
v 10 29 0.42
v 10 29 0.85
v 10 29.22 0.42
v 10 29.22 0.85
v 12.2 29 0.42
v 12.2 29 0.85
v 12.2 29.22 0.42
v 12.2 29.22 0.85
f 147 151 149 145
f 150 152 148 146
f 149 150 146 145
f 148 152 151 147
f 146 148 147 145
f 151 152 150 149
o lobby-sofa-arm-0
usemtl fabric
v 10 29 0.42
v 10 29 0.62
v 10 29.9 0.42
v 10 29.9 0.62
v 10.22 29 0.42
v 10.22 29 0.62
v 10.22 29.9 0.42
v 10.22 29.9 0.62
f 155 159 157 153
f 158 160 156 154
f 157 158 154 153
f 156 160 159 155
f 154 156 155 153
f 159 160 158 157
o lobby-sofa-arm-1
usemtl fabric
v 11.98 29 0.42
v 11.98 29 0.62
v 11.98 29.9 0.42
v 11.98 29.9 0.62
v 12.2 29 0.42
v 12.2 29 0.62
v 12.2 29.9 0.42
v 12.2 29.9 0.62
f 163 167 165 161
f 166 168 164 162
f 165 166 162 161
f 164 168 167 163
f 162 164 163 161
f 167 168 166 165
o lift-core
usemtl concrete
v 27 31 0
v 27 31 4
v 27 33.8 0
v 27 33.8 4
v 30 31 0
v 30 31 4
v 30 33.8 0
v 30 33.8 4
f 171 175 173 169
f 174 176 172 170
f 173 174 170 169
f 172 176 175 171
f 170 172 171 169
f 175 176 174 173
o lobby-plant-pot
usemtl stone
v 31 26.8 0
v 31 26.8 0.45
v 31 27.25 0
v 31 27.25 0.45
v 31.45 26.8 0
v 31.45 26.8 0.45
v 31.45 27.25 0
v 31.45 27.25 0.45
f 179 183 181 177
f 182 184 180 178
f 181 182 178 177
f 180 184 183 179
f 178 180 179 177
f 183 184 182 181
o lobby-plant-leaves
usemtl vegetation
v 30.8875 26.6875 0.45
v 30.8875 26.6875 1.5
v 30.8875 27.3625 0.45
v 30.8875 27.3625 1.5
v 31.5625 26.6875 0.45
v 31.5625 26.6875 1.5
v 31.5625 27.3625 0.45
v 31.5625 27.3625 1.5
f 187 191 189 185
f 190 192 188 186
f 189 190 186 185
f 188 192 191 187
f 186 188 187 185
f 191 192 190 189
o arcade-roof
usemtl stone
v 8 8 3.6
v 8 8 4
v 8 26 3.6
v 8 26 4
v 11 8 3.6
v 11 8 4
v 11 26 3.6
v 11 26 4
f 195 199 197 193
f 198 200 196 194
f 197 198 194 193
f 196 200 199 195
f 194 196 195 193
f 199 200 198 197
o arcade-column-0
usemtl stone
v 10.4 9.8 0
v 10.4 9.8 3.6
v 10.4 10.2 0
v 10.4 10.2 3.6
v 10.8 9.8 0
v 10.8 9.8 3.6
v 10.8 10.2 0
v 10.8 10.2 3.6
f 203 207 205 201
f 206 208 204 202
f 205 206 202 201
f 204 208 207 203
f 202 204 203 201
f 207 208 206 205
o arcade-column-1
usemtl stone
v 10.4 13.8 0
v 10.4 13.8 3.6
v 10.4 14.2 0
v 10.4 14.2 3.6
v 10.8 13.8 0
v 10.8 13.8 3.6
v 10.8 14.2 0
v 10.8 14.2 3.6
f 211 215 213 209
f 214 216 212 210
f 213 214 210 209
f 212 216 215 211
f 210 212 211 209
f 215 216 214 213
o arcade-column-2
usemtl stone
v 10.4 17.8 0
v 10.4 17.8 3.6
v 10.4 18.2 0
v 10.4 18.2 3.6
v 10.8 17.8 0
v 10.8 17.8 3.6
v 10.8 18.2 0
v 10.8 18.2 3.6
f 219 223 221 217
f 222 224 220 218
f 221 222 218 217
f 220 224 223 219
f 218 220 219 217
f 223 224 222 221
o arcade-column-3
usemtl stone
v 10.4 21.8 0
v 10.4 21.8 3.6
v 10.4 22.2 0
v 10.4 22.2 3.6
v 10.8 21.8 0
v 10.8 21.8 3.6
v 10.8 22.2 0
v 10.8 22.2 3.6
f 227 231 229 225
f 230 232 228 226
f 229 230 226 225
f 228 232 231 227
f 226 228 227 225
f 231 232 230 229
o fountain-wall-s
usemtl stone
v 17 14 0
v 17 14 0.6
v 17 14.3 0
v 17 14.3 0.6
v 23 14 0
v 23 14 0.6
v 23 14.3 0
v 23 14.3 0.6
f 235 239 237 233
f 238 240 236 234
f 237 238 234 233
f 236 240 239 235
f 234 236 235 233
f 239 240 238 237
o fountain-wall-n
usemtl stone
v 17 19.7 0
v 17 19.7 0.6
v 17 20 0
v 17 20 0.6
v 23 19.7 0
v 23 19.7 0.6
v 23 20 0
v 23 20 0.6
f 243 247 245 241
f 246 248 244 242
f 245 246 242 241
f 244 248 247 243
f 242 244 243 241
f 247 248 246 245
o fountain-wall-w
usemtl stone
v 17 14.3 0
v 17 14.3 0.6
v 17 19.7 0
v 17 19.7 0.6
v 17.3 14.3 0
v 17.3 14.3 0.6
v 17.3 19.7 0
v 17.3 19.7 0.6
f 251 255 253 249
f 254 256 252 250
f 253 254 250 249
f 252 256 255 251
f 250 252 251 249
f 255 256 254 253
o fountain-wall-e
usemtl stone
v 22.7 14.3 0
v 22.7 14.3 0.6
v 22.7 19.7 0
v 22.7 19.7 0.6
v 23 14.3 0
v 23 14.3 0.6
v 23 19.7 0
v 23 19.7 0.6
f 259 263 261 257
f 262 264 260 258
f 261 262 258 257
f 260 264 263 259
f 258 260 259 257
f 263 264 262 261
o fountain-water
usemtl water
v 17.3 14.3 0
v 17.3 14.3 0.35
v 17.3 19.7 0
v 17.3 19.7 0.35
v 22.7 14.3 0
v 22.7 14.3 0.35
v 22.7 19.7 0
v 22.7 19.7 0.35
f 267 271 269 265
f 270 272 268 266
f 269 270 266 265
f 268 272 271 267
f 266 268 267 265
f 271 272 270 269
o fountain-column
usemtl stone
v 19.6 16.6 0.35
v 19.6 16.6 2.2
v 19.6 17.4 0.35
v 19.6 17.4 2.2
v 20.4 16.6 0.35
v 20.4 16.6 2.2
v 20.4 17.4 0.35
v 20.4 17.4 2.2
f 275 279 277 273
f 278 280 276 274
f 277 278 274 273
f 276 280 279 275
f 274 276 275 273
f 279 280 278 277
o fountain-bowl
usemtl stone
v 19 16 2.2
v 19 16 2.45
v 19 18 2.2
v 19 18 2.45
v 21 16 2.2
v 21 16 2.45
v 21 18 2.2
v 21 18 2.45
f 283 287 285 281
f 286 288 284 282
f 285 286 282 281
f 284 288 287 283
f 282 284 283 281
f 287 288 286 285
o tree-0-trunk
usemtl bark
v 13.825 11.825 0
v 13.825 11.825 2.8
v 13.825 12.175 0
v 13.825 12.175 2.8
v 14.175 11.825 0
v 14.175 11.825 2.8
v 14.175 12.175 0
v 14.175 12.175 2.8
f 291 295 293 289
f 294 296 292 290
f 293 294 290 289
f 292 296 295 291
f 290 292 291 289
f 295 296 294 293
o tree-0-crown
usemtl vegetation
v 12.4 10.4 2.8
v 12.4 10.4 5.32
v 12.4 13.6 2.8
v 12.4 13.6 5.32
v 15.6 10.4 2.8
v 15.6 10.4 5.32
v 15.6 13.6 2.8
v 15.6 13.6 5.32
f 299 303 301 297
f 302 304 300 298
f 301 302 298 297
f 300 304 303 299
f 298 300 299 297
f 303 304 302 301
o tree-0-crown-top
usemtl vegetation
v 12.976 10.976 5.32
v 12.976 10.976 6.4
v 12.976 13.024 5.32
v 12.976 13.024 6.4
v 15.024 10.976 5.32
v 15.024 10.976 6.4
v 15.024 13.024 5.32
v 15.024 13.024 6.4
f 307 311 309 305
f 310 312 308 306
f 309 310 306 305
f 308 312 311 307
f 306 308 307 305
f 311 312 310 309
o tree-1-trunk
usemtl bark
v 25.825 11.825 0
v 25.825 11.825 2.8
v 25.825 12.175 0
v 25.825 12.175 2.8
v 26.175 11.825 0
v 26.175 11.825 2.8
v 26.175 12.175 0
v 26.175 12.175 2.8
f 315 319 317 313
f 318 320 316 314
f 317 318 314 313
f 316 320 319 315
f 314 316 315 313
f 319 320 318 317
o tree-1-crown
usemtl vegetation
v 24.4 10.4 2.8
v 24.4 10.4 5.32
v 24.4 13.6 2.8
v 24.4 13.6 5.32
v 27.6 10.4 2.8
v 27.6 10.4 5.32
v 27.6 13.6 2.8
v 27.6 13.6 5.32
f 323 327 325 321
f 326 328 324 322
f 325 326 322 321
f 324 328 327 323
f 322 324 323 321
f 327 328 326 325
o tree-1-crown-top
usemtl vegetation
v 24.976 10.976 5.32
v 24.976 10.976 6.4
v 24.976 13.024 5.32
v 24.976 13.024 6.4
v 27.024 10.976 5.32
v 27.024 10.976 6.4
v 27.024 13.024 5.32
v 27.024 13.024 6.4
f 331 335 333 329
f 334 336 332 330
f 333 334 330 329
f 332 336 335 331
f 330 332 331 329
f 335 336 334 333
o tree-2-trunk
usemtl bark
v 13.825 21.825 0
v 13.825 21.825 2.8
v 13.825 22.175 0
v 13.825 22.175 2.8
v 14.175 21.825 0
v 14.175 21.825 2.8
v 14.175 22.175 0
v 14.175 22.175 2.8
f 339 343 341 337
f 342 344 340 338
f 341 342 338 337
f 340 344 343 339
f 338 340 339 337
f 343 344 342 341
o tree-2-crown
usemtl vegetation
v 12.4 20.4 2.8
v 12.4 20.4 5.32
v 12.4 23.6 2.8
v 12.4 23.6 5.32
v 15.6 20.4 2.8
v 15.6 20.4 5.32
v 15.6 23.6 2.8
v 15.6 23.6 5.32
f 347 351 349 345
f 350 352 348 346
f 349 350 346 345
f 348 352 351 347
f 346 348 347 345
f 351 352 350 349
o tree-2-crown-top
usemtl vegetation
v 12.976 20.976 5.32
v 12.976 20.976 6.4
v 12.976 23.024 5.32
v 12.976 23.024 6.4
v 15.024 20.976 5.32
v 15.024 20.976 6.4
v 15.024 23.024 5.32
v 15.024 23.024 6.4
f 355 359 357 353
f 358 360 356 354
f 357 358 354 353
f 356 360 359 355
f 354 356 355 353
f 359 360 358 357
o tree-3-trunk
usemtl bark
v 25.825 21.825 0
v 25.825 21.825 2.8
v 25.825 22.175 0
v 25.825 22.175 2.8
v 26.175 21.825 0
v 26.175 21.825 2.8
v 26.175 22.175 0
v 26.175 22.175 2.8
f 363 367 365 361
f 366 368 364 362
f 365 366 362 361
f 364 368 367 363
f 362 364 363 361
f 367 368 366 365
o tree-3-crown
usemtl vegetation
v 24.4 20.4 2.8
v 24.4 20.4 5.32
v 24.4 23.6 2.8
v 24.4 23.6 5.32
v 27.6 20.4 2.8
v 27.6 20.4 5.32
v 27.6 23.6 2.8
v 27.6 23.6 5.32
f 371 375 373 369
f 374 376 372 370
f 373 374 370 369
f 372 376 375 371
f 370 372 371 369
f 375 376 374 373
o tree-3-crown-top
usemtl vegetation
v 24.976 20.976 5.32
v 24.976 20.976 6.4
v 24.976 23.024 5.32
v 24.976 23.024 6.4
v 27.024 20.976 5.32
v 27.024 20.976 6.4
v 27.024 23.024 5.32
v 27.024 23.024 6.4
f 379 383 381 377
f 382 384 380 378
f 381 382 378 377
f 380 384 383 379
f 378 380 379 377
f 383 384 382 381
o bench-s-seat
usemtl wood
v 18.1 12.8 0.4
v 18.1 12.8 0.46
v 18.1 13.3 0.4
v 18.1 13.3 0.46
v 19.9 12.8 0.4
v 19.9 12.8 0.46
v 19.9 13.3 0.4
v 19.9 13.3 0.46
f 387 391 389 385
f 390 392 388 386
f 389 390 386 385
f 388 392 391 387
f 386 388 387 385
f 391 392 390 389
o bench-s-leg-0
usemtl metal
v 18.24 12.8 0
v 18.24 12.8 0.4
v 18.24 13.3 0
v 18.24 13.3 0.4
v 18.32 12.8 0
v 18.32 12.8 0.4
v 18.32 13.3 0
v 18.32 13.3 0.4
f 395 399 397 393
f 398 400 396 394
f 397 398 394 393
f 396 400 399 395
f 394 396 395 393
f 399 400 398 397
o bench-s-leg-1
usemtl metal
v 19.68 12.8 0
v 19.68 12.8 0.4
v 19.68 13.3 0
v 19.68 13.3 0.4
v 19.76 12.8 0
v 19.76 12.8 0.4
v 19.76 13.3 0
v 19.76 13.3 0.4
f 403 407 405 401
f 406 408 404 402
f 405 406 402 401
f 404 408 407 403
f 402 404 403 401
f 407 408 406 405
o bench-n-seat
usemtl wood
v 18.1 20.7 0.4
v 18.1 20.7 0.46
v 18.1 21.2 0.4
v 18.1 21.2 0.46
v 19.9 20.7 0.4
v 19.9 20.7 0.46
v 19.9 21.2 0.4
v 19.9 21.2 0.46
f 411 415 413 409
f 414 416 412 410
f 413 414 410 409
f 412 416 415 411
f 410 412 411 409
f 415 416 414 413
o bench-n-leg-0
usemtl metal
v 18.24 20.7 0
v 18.24 20.7 0.4
v 18.24 21.2 0
v 18.24 21.2 0.4
v 18.32 20.7 0
v 18.32 20.7 0.4
v 18.32 21.2 0
v 18.32 21.2 0.4
f 419 423 421 417
f 422 424 420 418
f 421 422 418 417
f 420 424 423 419
f 418 420 419 417
f 423 424 422 421
o bench-n-leg-1
usemtl metal
v 19.68 20.7 0
v 19.68 20.7 0.4
v 19.68 21.2 0
v 19.68 21.2 0.4
v 19.76 20.7 0
v 19.76 20.7 0.4
v 19.76 21.2 0
v 19.76 21.2 0.4
f 427 431 429 425
f 430 432 428 426
f 429 430 426 425
f 428 432 431 427
f 426 428 427 425
f 431 432 430 429
o umbrella-0-pole
usemtl metal
v 27.97 10.97 0
v 27.97 10.97 2.5
v 27.97 11.03 0
v 27.97 11.03 2.5
v 28.03 10.97 0
v 28.03 10.97 2.5
v 28.03 11.03 0
v 28.03 11.03 2.5
f 435 439 437 433
f 438 440 436 434
f 437 438 434 433
f 436 440 439 435
f 434 436 435 433
f 439 440 438 437
o umbrella-0-canopy
usemtl canvas
v 26.8 9.8 2.25
v 26.8 9.8 2.5
v 26.8 12.2 2.25
v 26.8 12.2 2.5
v 29.2 9.8 2.25
v 29.2 9.8 2.5
v 29.2 12.2 2.25
v 29.2 12.2 2.5
f 443 447 445 441
f 446 448 444 442
f 445 446 442 441
f 444 448 447 443
f 442 444 443 441
f 447 448 446 445
o umbrella-0-base
usemtl stone
v 27.75 10.75 0
v 27.75 10.75 0.12
v 27.75 11.25 0
v 27.75 11.25 0.12
v 28.25 10.75 0
v 28.25 10.75 0.12
v 28.25 11.25 0
v 28.25 11.25 0.12
f 451 455 453 449
f 454 456 452 450
f 453 454 450 449
f 452 456 455 451
f 450 452 451 449
f 455 456 454 453
o cafe-table-0-top
usemtl wood
v 27.6 10.6 0.71
v 27.6 10.6 0.75
v 27.6 11.4 0.71
v 27.6 11.4 0.75
v 28.4 10.6 0.71
v 28.4 10.6 0.75
v 28.4 11.4 0.71
v 28.4 11.4 0.75
f 459 463 461 457
f 462 464 460 458
f 461 462 458 457
f 460 464 463 459
f 458 460 459 457
f 463 464 462 461
o cafe-table-0-leg-0
usemtl metal
v 27.6 10.6 0
v 27.6 10.6 0.71
v 27.6 10.66 0
v 27.6 10.66 0.71
v 27.66 10.6 0
v 27.66 10.6 0.71
v 27.66 10.66 0
v 27.66 10.66 0.71
f 467 471 469 465
f 470 472 468 466
f 469 470 466 465
f 468 472 471 467
f 466 468 467 465
f 471 472 470 469
o cafe-table-0-leg-1
usemtl metal
v 28.34 10.6 0
v 28.34 10.6 0.71
v 28.34 10.66 0
v 28.34 10.66 0.71
v 28.4 10.6 0
v 28.4 10.6 0.71
v 28.4 10.66 0
v 28.4 10.66 0.71
f 475 479 477 473
f 478 480 476 474
f 477 478 474 473
f 476 480 479 475
f 474 476 475 473
f 479 480 478 477
o cafe-table-0-leg-2
usemtl metal
v 27.6 11.34 0
v 27.6 11.34 0.71
v 27.6 11.4 0
v 27.6 11.4 0.71
v 27.66 11.34 0
v 27.66 11.34 0.71
v 27.66 11.4 0
v 27.66 11.4 0.71
f 483 487 485 481
f 486 488 484 482
f 485 486 482 481
f 484 488 487 483
f 482 484 483 481
f 487 488 486 485
o cafe-table-0-leg-3
usemtl metal
v 28.34 11.34 0
v 28.34 11.34 0.71
v 28.34 11.4 0
v 28.34 11.4 0.71
v 28.4 11.34 0
v 28.4 11.34 0.71
v 28.4 11.4 0
v 28.4 11.4 0.71
f 491 495 493 489
f 494 496 492 490
f 493 494 490 489
f 492 496 495 491
f 490 492 491 489
f 495 496 494 493
o cafe-chair-0-w-seat
usemtl fabric
v 26.95 10.78 0
v 26.95 10.78 0.46
v 26.95 11.23 0
v 26.95 11.23 0.46
v 27.4 10.78 0
v 27.4 10.78 0.46
v 27.4 11.23 0
v 27.4 11.23 0.46
f 499 503 501 497
f 502 504 500 498
f 501 502 498 497
f 500 504 503 499
f 498 500 499 497
f 503 504 502 501
o cafe-chair-0-w-back
usemtl fabric
v 26.95 10.78 0.46
v 26.95 10.78 0.9
v 26.95 11.23 0.46
v 26.95 11.23 0.9
v 27.02 10.78 0.46
v 27.02 10.78 0.9
v 27.02 11.23 0.46
v 27.02 11.23 0.9
f 507 511 509 505
f 510 512 508 506
f 509 510 506 505
f 508 512 511 507
f 506 508 507 505
f 511 512 510 509
o cafe-chair-0-e-seat
usemtl fabric
v 28.6 10.78 0
v 28.6 10.78 0.46
v 28.6 11.23 0
v 28.6 11.23 0.46
v 29.05 10.78 0
v 29.05 10.78 0.46
v 29.05 11.23 0
v 29.05 11.23 0.46
f 515 519 517 513
f 518 520 516 514
f 517 518 514 513
f 516 520 519 515
f 514 516 515 513
f 519 520 518 517
o cafe-chair-0-e-back
usemtl fabric
v 28.98 10.78 0.46
v 28.98 10.78 0.9
v 28.98 11.23 0.46
v 28.98 11.23 0.9
v 29.05 10.78 0.46
v 29.05 10.78 0.9
v 29.05 11.23 0.46
v 29.05 11.23 0.9
f 523 527 525 521
f 526 528 524 522
f 525 526 522 521
f 524 528 527 523
f 522 524 523 521
f 527 528 526 525
o umbrella-1-pole
usemtl metal
v 27.97 14.97 0
v 27.97 14.97 2.5
v 27.97 15.03 0
v 27.97 15.03 2.5
v 28.03 14.97 0
v 28.03 14.97 2.5
v 28.03 15.03 0
v 28.03 15.03 2.5
f 531 535 533 529
f 534 536 532 530
f 533 534 530 529
f 532 536 535 531
f 530 532 531 529
f 535 536 534 533
o umbrella-1-canopy
usemtl canvas
v 26.8 13.8 2.25
v 26.8 13.8 2.5
v 26.8 16.2 2.25
v 26.8 16.2 2.5
v 29.2 13.8 2.25
v 29.2 13.8 2.5
v 29.2 16.2 2.25
v 29.2 16.2 2.5
f 539 543 541 537
f 542 544 540 538
f 541 542 538 537
f 540 544 543 539
f 538 540 539 537
f 543 544 542 541
o umbrella-1-base
usemtl stone
v 27.75 14.75 0
v 27.75 14.75 0.12
v 27.75 15.25 0
v 27.75 15.25 0.12
v 28.25 14.75 0
v 28.25 14.75 0.12
v 28.25 15.25 0
v 28.25 15.25 0.12
f 547 551 549 545
f 550 552 548 546
f 549 550 546 545
f 548 552 551 547
f 546 548 547 545
f 551 552 550 549
o cafe-table-1-top
usemtl wood
v 27.6 14.6 0.71
v 27.6 14.6 0.75
v 27.6 15.4 0.71
v 27.6 15.4 0.75
v 28.4 14.6 0.71
v 28.4 14.6 0.75
v 28.4 15.4 0.71
v 28.4 15.4 0.75
f 555 559 557 553
f 558 560 556 554
f 557 558 554 553
f 556 560 559 555
f 554 556 555 553
f 559 560 558 557
o cafe-table-1-leg-0
usemtl metal
v 27.6 14.6 0
v 27.6 14.6 0.71
v 27.6 14.66 0
v 27.6 14.66 0.71
v 27.66 14.6 0
v 27.66 14.6 0.71
v 27.66 14.66 0
v 27.66 14.66 0.71
f 563 567 565 561
f 566 568 564 562
f 565 566 562 561
f 564 568 567 563
f 562 564 563 561
f 567 568 566 565
o cafe-table-1-leg-1
usemtl metal
v 28.34 14.6 0
v 28.34 14.6 0.71
v 28.34 14.66 0
v 28.34 14.66 0.71
v 28.4 14.6 0
v 28.4 14.6 0.71
v 28.4 14.66 0
v 28.4 14.66 0.71
f 571 575 573 569
f 574 576 572 570
f 573 574 570 569
f 572 576 575 571
f 570 572 571 569
f 575 576 574 573
o cafe-table-1-leg-2
usemtl metal
v 27.6 15.34 0
v 27.6 15.34 0.71
v 27.6 15.4 0
v 27.6 15.4 0.71
v 27.66 15.34 0
v 27.66 15.34 0.71
v 27.66 15.4 0
v 27.66 15.4 0.71
f 579 583 581 577
f 582 584 580 578
f 581 582 578 577
f 580 584 583 579
f 578 580 579 577
f 583 584 582 581
o cafe-table-1-leg-3
usemtl metal
v 28.34 15.34 0
v 28.34 15.34 0.71
v 28.34 15.4 0
v 28.34 15.4 0.71
v 28.4 15.34 0
v 28.4 15.34 0.71
v 28.4 15.4 0
v 28.4 15.4 0.71
f 587 591 589 585
f 590 592 588 586
f 589 590 586 585
f 588 592 591 587
f 586 588 587 585
f 591 592 590 589
o cafe-chair-1-w-seat
usemtl fabric
v 26.95 14.78 0
v 26.95 14.78 0.46
v 26.95 15.23 0
v 26.95 15.23 0.46
v 27.4 14.78 0
v 27.4 14.78 0.46
v 27.4 15.23 0
v 27.4 15.23 0.46
f 595 599 597 593
f 598 600 596 594
f 597 598 594 593
f 596 600 599 595
f 594 596 595 593
f 599 600 598 597
o cafe-chair-1-w-back
usemtl fabric
v 26.95 14.78 0.46
v 26.95 14.78 0.9
v 26.95 15.23 0.46
v 26.95 15.23 0.9
v 27.02 14.78 0.46
v 27.02 14.78 0.9
v 27.02 15.23 0.46
v 27.02 15.23 0.9
f 603 607 605 601
f 606 608 604 602
f 605 606 602 601
f 604 608 607 603
f 602 604 603 601
f 607 608 606 605
o cafe-chair-1-e-seat
usemtl fabric
v 28.6 14.78 0
v 28.6 14.78 0.46
v 28.6 15.23 0
v 28.6 15.23 0.46
v 29.05 14.78 0
v 29.05 14.78 0.46
v 29.05 15.23 0
v 29.05 15.23 0.46
f 611 615 613 609
f 614 616 612 610
f 613 614 610 609
f 612 616 615 611
f 610 612 611 609
f 615 616 614 613
o cafe-chair-1-e-back
usemtl fabric
v 28.98 14.78 0.46
v 28.98 14.78 0.9
v 28.98 15.23 0.46
v 28.98 15.23 0.9
v 29.05 14.78 0.46
v 29.05 14.78 0.9
v 29.05 15.23 0.46
v 29.05 15.23 0.9
f 619 623 621 617
f 622 624 620 618
f 621 622 618 617
f 620 624 623 619
f 618 620 619 617
f 623 624 622 621
o umbrella-2-pole
usemtl metal
v 27.97 18.97 0
v 27.97 18.97 2.5
v 27.97 19.03 0
v 27.97 19.03 2.5
v 28.03 18.97 0
v 28.03 18.97 2.5
v 28.03 19.03 0
v 28.03 19.03 2.5
f 627 631 629 625
f 630 632 628 626
f 629 630 626 625
f 628 632 631 627
f 626 628 627 625
f 631 632 630 629
o umbrella-2-canopy
usemtl canvas
v 26.8 17.8 2.25
v 26.8 17.8 2.5
v 26.8 20.2 2.25
v 26.8 20.2 2.5
v 29.2 17.8 2.25
v 29.2 17.8 2.5
v 29.2 20.2 2.25
v 29.2 20.2 2.5
f 635 639 637 633
f 638 640 636 634
f 637 638 634 633
f 636 640 639 635
f 634 636 635 633
f 639 640 638 637
o umbrella-2-base
usemtl stone
v 27.75 18.75 0
v 27.75 18.75 0.12
v 27.75 19.25 0
v 27.75 19.25 0.12
v 28.25 18.75 0
v 28.25 18.75 0.12
v 28.25 19.25 0
v 28.25 19.25 0.12
f 643 647 645 641
f 646 648 644 642
f 645 646 642 641
f 644 648 647 643
f 642 644 643 641
f 647 648 646 645
o cafe-table-2-top
usemtl wood
v 27.6 18.6 0.71
v 27.6 18.6 0.75
v 27.6 19.4 0.71
v 27.6 19.4 0.75
v 28.4 18.6 0.71
v 28.4 18.6 0.75
v 28.4 19.4 0.71
v 28.4 19.4 0.75
f 651 655 653 649
f 654 656 652 650
f 653 654 650 649
f 652 656 655 651
f 650 652 651 649
f 655 656 654 653
o cafe-table-2-leg-0
usemtl metal
v 27.6 18.6 0
v 27.6 18.6 0.71
v 27.6 18.66 0
v 27.6 18.66 0.71
v 27.66 18.6 0
v 27.66 18.6 0.71
v 27.66 18.66 0
v 27.66 18.66 0.71
f 659 663 661 657
f 662 664 660 658
f 661 662 658 657
f 660 664 663 659
f 658 660 659 657
f 663 664 662 661
o cafe-table-2-leg-1
usemtl metal
v 28.34 18.6 0
v 28.34 18.6 0.71
v 28.34 18.66 0
v 28.34 18.66 0.71
v 28.4 18.6 0
v 28.4 18.6 0.71
v 28.4 18.66 0
v 28.4 18.66 0.71
f 667 671 669 665
f 670 672 668 666
f 669 670 666 665
f 668 672 671 667
f 666 668 667 665
f 671 672 670 669
o cafe-table-2-leg-2
usemtl metal
v 27.6 19.34 0
v 27.6 19.34 0.71
v 27.6 19.4 0
v 27.6 19.4 0.71
v 27.66 19.34 0
v 27.66 19.34 0.71
v 27.66 19.4 0
v 27.66 19.4 0.71
f 675 679 677 673
f 678 680 676 674
f 677 678 674 673
f 676 680 679 675
f 674 676 675 673
f 679 680 678 677
o cafe-table-2-leg-3
usemtl metal
v 28.34 19.34 0
v 28.34 19.34 0.71
v 28.34 19.4 0
v 28.34 19.4 0.71
v 28.4 19.34 0
v 28.4 19.34 0.71
v 28.4 19.4 0
v 28.4 19.4 0.71
f 683 687 685 681
f 686 688 684 682
f 685 686 682 681
f 684 688 687 683
f 682 684 683 681
f 687 688 686 685
o cafe-chair-2-w-seat
usemtl fabric
v 26.95 18.78 0
v 26.95 18.78 0.46
v 26.95 19.23 0
v 26.95 19.23 0.46
v 27.4 18.78 0
v 27.4 18.78 0.46
v 27.4 19.23 0
v 27.4 19.23 0.46
f 691 695 693 689
f 694 696 692 690
f 693 694 690 689
f 692 696 695 691
f 690 692 691 689
f 695 696 694 693
o cafe-chair-2-w-back
usemtl fabric
v 26.95 18.78 0.46
v 26.95 18.78 0.9
v 26.95 19.23 0.46
v 26.95 19.23 0.9
v 27.02 18.78 0.46
v 27.02 18.78 0.9
v 27.02 19.23 0.46
v 27.02 19.23 0.9
f 699 703 701 697
f 702 704 700 698
f 701 702 698 697
f 700 704 703 699
f 698 700 699 697
f 703 704 702 701
o cafe-chair-2-e-seat
usemtl fabric
v 28.6 18.78 0
v 28.6 18.78 0.46
v 28.6 19.23 0
v 28.6 19.23 0.46
v 29.05 18.78 0
v 29.05 18.78 0.46
v 29.05 19.23 0
v 29.05 19.23 0.46
f 707 711 709 705
f 710 712 708 706
f 709 710 706 705
f 708 712 711 707
f 706 708 707 705
f 711 712 710 709
o cafe-chair-2-e-back
usemtl fabric
v 28.98 18.78 0.46
v 28.98 18.78 0.9
v 28.98 19.23 0.46
v 28.98 19.23 0.9
v 29.05 18.78 0.46
v 29.05 18.78 0.9
v 29.05 19.23 0.46
v 29.05 19.23 0.9
f 715 719 717 713
f 718 720 716 714
f 717 718 714 713
f 716 720 719 715
f 714 716 715 713
f 719 720 718 717
o bike-rack-0
usemtl metal
v 23.2 8.6 0
v 23.2 8.6 0.85
v 23.2 9.2 0
v 23.2 9.2 0.85
v 23.25 8.6 0
v 23.25 8.6 0.85
v 23.25 9.2 0
v 23.25 9.2 0.85
f 723 727 725 721
f 726 728 724 722
f 725 726 722 721
f 724 728 727 723
f 722 724 723 721
f 727 728 726 725
o bike-rack-1
usemtl metal
v 23.8 8.6 0
v 23.8 8.6 0.85
v 23.8 9.2 0
v 23.8 9.2 0.85
v 23.85 8.6 0
v 23.85 8.6 0.85
v 23.85 9.2 0
v 23.85 9.2 0.85
f 731 735 733 729
f 734 736 732 730
f 733 734 730 729
f 732 736 735 731
f 730 732 731 729
f 735 736 734 733
o bike-rack-2
usemtl metal
v 24.4 8.6 0
v 24.4 8.6 0.85
v 24.4 9.2 0
v 24.4 9.2 0.85
v 24.45 8.6 0
v 24.45 8.6 0.85
v 24.45 9.2 0
v 24.45 9.2 0.85
f 739 743 741 737
f 742 744 740 738
f 741 742 738 737
f 740 744 743 739
f 738 740 739 737
f 743 744 742 741
o bike-rack-3
usemtl metal
v 25 8.6 0
v 25 8.6 0.85
v 25 9.2 0
v 25 9.2 0.85
v 25.05 8.6 0
v 25.05 8.6 0.85
v 25.05 9.2 0
v 25.05 9.2 0.85
f 747 751 749 745
f 750 752 748 746
f 749 750 746 745
f 748 752 751 747
f 746 748 747 745
f 751 752 750 749
o bike-rack-4
usemtl metal
v 25.6 8.6 0
v 25.6 8.6 0.85
v 25.6 9.2 0
v 25.6 9.2 0.85
v 25.65 8.6 0
v 25.65 8.6 0.85
v 25.65 9.2 0
v 25.65 9.2 0.85
f 755 759 757 753
f 758 760 756 754
f 757 758 754 753
f 756 760 759 755
f 754 756 755 753
f 759 760 758 757
o lamp-0-pole
usemtl metal
v 12.42 16.92 0
v 12.42 16.92 4
v 12.42 17.08 0
v 12.42 17.08 4
v 12.58 16.92 0
v 12.58 16.92 4
v 12.58 17.08 0
v 12.58 17.08 4
f 763 767 765 761
f 766 768 764 762
f 765 766 762 761
f 764 768 767 763
f 762 764 763 761
f 767 768 766 765
o lamp-0-arm
usemtl metal
v 12.45 16.95 3.88
v 12.45 16.95 4
v 12.45 17.05 3.88
v 12.45 17.05 4
v 13.15 16.95 3.88
v 13.15 16.95 4
v 13.15 17.05 3.88
v 13.15 17.05 4
f 771 775 773 769
f 774 776 772 770
f 773 774 770 769
f 772 776 775 771
f 770 772 771 769
f 775 776 774 773
o lamp-0-head
usemtl lamp
v 12.85 16.75 3.65
v 12.85 16.75 3.88
v 12.85 17.25 3.65
v 12.85 17.25 3.88
v 13.35 16.75 3.65
v 13.35 16.75 3.88
v 13.35 17.25 3.65
v 13.35 17.25 3.88
f 779 783 781 777
f 782 784 780 778
f 781 782 778 777
f 780 784 783 779
f 778 780 779 777
f 783 784 782 781
o lamp-1-pole
usemtl metal
v 24.42 16.92 0
v 24.42 16.92 4
v 24.42 17.08 0
v 24.42 17.08 4
v 24.58 16.92 0
v 24.58 16.92 4
v 24.58 17.08 0
v 24.58 17.08 4
f 787 791 789 785
f 790 792 788 786
f 789 790 786 785
f 788 792 791 787
f 786 788 787 785
f 791 792 790 789
o lamp-1-arm
usemtl metal
v 23.85 16.95 3.88
v 23.85 16.95 4
v 23.85 17.05 3.88
v 23.85 17.05 4
v 24.55 16.95 3.88
v 24.55 16.95 4
v 24.55 17.05 3.88
v 24.55 17.05 4
f 795 799 797 793
f 798 800 796 794
f 797 798 794 793
f 796 800 799 795
f 794 796 795 793
f 799 800 798 797
o lamp-1-head
usemtl lamp
v 23.65 16.75 3.65
v 23.65 16.75 3.88
v 23.65 17.25 3.65
v 23.65 17.25 3.88
v 24.15 16.75 3.65
v 24.15 16.75 3.88
v 24.15 17.25 3.65
v 24.15 17.25 3.88
f 803 807 805 801
f 806 808 804 802
f 805 806 802 801
f 804 808 807 803
f 802 804 803 801
f 807 808 806 805
o ground-visual-only
usemtl ground
v 0 0 0
v 40 0 0
v 40 34 0
v 0 34 0
f 809 810 811 812
