# architecture-0.2; original synthetic architecture, meters, Z up
mtllib street-block.mtl
o sw-corner-base
usemtl building
v 0 3 0
v 0 3 9
v 0 17 0
v 0 17 9
v 13 3 0
v 13 3 9
v 13 17 0
v 13 17 9
f 3 7 5 1
f 6 8 4 2
f 5 6 2 1
f 4 8 7 3
f 2 4 3 1
f 7 8 6 5
o sw-corner-cornice
usemtl stone
v 0 2.8 9
v 0 2.8 9.3
v 0 17.2 9
v 0 17.2 9.3
v 13.2 2.8 9
v 13.2 2.8 9.3
v 13.2 17.2 9
v 13.2 17.2 9.3
f 11 15 13 9
f 14 16 12 10
f 13 14 10 9
f 12 16 15 11
f 10 12 11 9
f 15 16 14 13
o sw-corner-upper
usemtl building
v 1.5 4.5 9.3
v 1.5 4.5 12
v 1.5 15.5 9.3
v 1.5 15.5 12
v 11.5 4.5 9.3
v 11.5 4.5 12
v 11.5 15.5 9.3
v 11.5 15.5 12
f 19 23 21 17
f 22 24 20 18
f 21 22 18 17
f 20 24 23 19
f 18 20 19 17
f 23 24 22 21
o sw-corner-parapet-s
usemtl stone
v 1.5 4.5 12
v 1.5 4.5 12.9
v 1.5 4.75 12
v 1.5 4.75 12.9
v 11.5 4.5 12
v 11.5 4.5 12.9
v 11.5 4.75 12
v 11.5 4.75 12.9
f 27 31 29 25
f 30 32 28 26
f 29 30 26 25
f 28 32 31 27
f 26 28 27 25
f 31 32 30 29
o sw-corner-parapet-n
usemtl stone
v 1.5 15.25 12
v 1.5 15.25 12.9
v 1.5 15.5 12
v 1.5 15.5 12.9
v 11.5 15.25 12
v 11.5 15.25 12.9
v 11.5 15.5 12
v 11.5 15.5 12.9
f 35 39 37 33
f 38 40 36 34
f 37 38 34 33
f 36 40 39 35
f 34 36 35 33
f 39 40 38 37
o sw-corner-parapet-w
usemtl stone
v 1.5 4.75 12
v 1.5 4.75 12.9
v 1.5 15.25 12
v 1.5 15.25 12.9
v 1.75 4.75 12
v 1.75 4.75 12.9
v 1.75 15.25 12
v 1.75 15.25 12.9
f 43 47 45 41
f 46 48 44 42
f 45 46 42 41
f 44 48 47 43
f 42 44 43 41
f 47 48 46 45
o sw-corner-parapet-e
usemtl stone
v 11.25 4.75 12
v 11.25 4.75 12.9
v 11.25 15.25 12
v 11.25 15.25 12.9
v 11.5 4.75 12
v 11.5 4.75 12.9
v 11.5 15.25 12
v 11.5 15.25 12.9
f 51 55 53 49
f 54 56 52 50
f 53 54 50 49
f 52 56 55 51
f 50 52 51 49
f 55 56 54 53
o sw-corner-roof-unit-0
usemtl metal
v 4.0333 9.4 12
v 4.0333 9.4 13.4
v 4.0333 10.6 12
v 4.0333 10.6 13.4
v 5.6333 9.4 12
v 5.6333 9.4 13.4
v 5.6333 10.6 12
v 5.6333 10.6 13.4
f 59 63 61 57
f 62 64 60 58
f 61 62 58 57
f 60 64 63 59
f 58 60 59 57
f 63 64 62 61
o sw-corner-roof-unit-1
usemtl metal
v 7.3667 9.4 12
v 7.3667 9.4 13.4
v 7.3667 10.6 12
v 7.3667 10.6 13.4
v 8.9667 9.4 12
v 8.9667 9.4 13.4
v 8.9667 10.6 12
v 8.9667 10.6 13.4
f 67 71 69 65
f 70 72 68 66
f 69 70 66 65
f 68 72 71 67
f 66 68 67 65
f 71 72 70 69
o sw-tower-mass
usemtl building
v 13.5 4 0
v 13.5 4 15
v 13.5 17 0
v 13.5 17 15
v 28 4 0
v 28 4 15
v 28 17 0
v 28 17 15
f 75 79 77 73
f 78 80 76 74
f 77 78 74 73
f 76 80 79 75
f 74 76 75 73
f 79 80 78 77
o sw-tower-parapet-s
usemtl stone
v 13.5 4 15
v 13.5 4 15.9
v 13.5 4.25 15
v 13.5 4.25 15.9
v 28 4 15
v 28 4 15.9
v 28 4.25 15
v 28 4.25 15.9
f 83 87 85 81
f 86 88 84 82
f 85 86 82 81
f 84 88 87 83
f 82 84 83 81
f 87 88 86 85
o sw-tower-parapet-n
usemtl stone
v 13.5 16.75 15
v 13.5 16.75 15.9
v 13.5 17 15
v 13.5 17 15.9
v 28 16.75 15
v 28 16.75 15.9
v 28 17 15
v 28 17 15.9
f 91 95 93 89
f 94 96 92 90
f 93 94 90 89
f 92 96 95 91
f 90 92 91 89
f 95 96 94 93
o sw-tower-parapet-w
usemtl stone
v 13.5 4.25 15
v 13.5 4.25 15.9
v 13.5 16.75 15
v 13.5 16.75 15.9
v 13.75 4.25 15
v 13.75 4.25 15.9
v 13.75 16.75 15
v 13.75 16.75 15.9
f 99 103 101 97
f 102 104 100 98
f 101 102 98 97
f 100 104 103 99
f 98 100 99 97
f 103 104 102 101
o sw-tower-parapet-e
usemtl stone
v 27.75 4.25 15
v 27.75 4.25 15.9
v 27.75 16.75 15
v 27.75 16.75 15.9
v 28 4.25 15
v 28 4.25 15.9
v 28 16.75 15
v 28 16.75 15.9
f 107 111 109 105
f 110 112 108 106
f 109 110 106 105
f 108 112 111 107
f 106 108 107 105
f 111 112 110 109
o sw-tower-roof-unit-0
usemtl metal
v 19.95 9.9 15
v 19.95 9.9 16.4
v 19.95 11.1 15
v 19.95 11.1 16.4
v 21.55 9.9 15
v 21.55 9.9 16.4
v 21.55 11.1 15
v 21.55 11.1 16.4
f 115 119 117 113
f 118 120 116 114
f 117 118 114 113
f 116 120 119 115
f 114 116 115 113
f 119 120 118 117
o se-low-mass
usemtl building
v 42 2 0
v 42 2 10
v 42 17 0
v 42 17 10
v 55 2 0
v 55 2 10
v 55 17 0
v 55 17 10
f 123 127 125 121
f 126 128 124 122
f 125 126 122 121
f 124 128 127 123
f 122 124 123 121
f 127 128 126 125
o se-low-parapet-s
usemtl stone
v 42 2 10
v 42 2 10.9
v 42 2.25 10
v 42 2.25 10.9
v 55 2 10
v 55 2 10.9
v 55 2.25 10
v 55 2.25 10.9
f 131 135 133 129
f 134 136 132 130
f 133 134 130 129
f 132 136 135 131
f 130 132 131 129
f 135 136 134 133
o se-low-parapet-n
usemtl stone
v 42 16.75 10
v 42 16.75 10.9
v 42 17 10
v 42 17 10.9
v 55 16.75 10
v 55 16.75 10.9
v 55 17 10
v 55 17 10.9
f 139 143 141 137
f 142 144 140 138
f 141 142 138 137
f 140 144 143 139
f 138 140 139 137
f 143 144 142 141
o se-low-parapet-w
usemtl stone
v 42 2.25 10
v 42 2.25 10.9
v 42 16.75 10
v 42 16.75 10.9
v 42.25 2.25 10
v 42.25 2.25 10.9
v 42.25 16.75 10
v 42.25 16.75 10.9
f 147 151 149 145
f 150 152 148 146
f 149 150 146 145
f 148 152 151 147
f 146 148 147 145
f 151 152 150 149
o se-low-parapet-e
usemtl stone
v 54.75 2.25 10
v 54.75 2.25 10.9
v 54.75 16.75 10
v 54.75 16.75 10.9
v 55 2.25 10
v 55 2.25 10.9
v 55 16.75 10
v 55 16.75 10.9
f 155 159 157 153
f 158 160 156 154
f 157 158 154 153
f 156 160 159 155
f 154 156 155 153
f 159 160 158 157
o se-tower-base
usemtl building
v 55.5 0 0
v 55.5 0 12
v 55.5 17 0
v 55.5 17 12
v 70 0 0
v 70 0 12
v 70 17 0
v 70 17 12
f 163 167 165 161
f 166 168 164 162
f 165 166 162 161
f 164 168 167 163
f 162 164 163 161
f 167 168 166 165
o se-tower-cornice
usemtl stone
v 55.3 0 12
v 55.3 0 12.3
v 55.3 17.2 12
v 55.3 17.2 12.3
v 70 0 12
v 70 0 12.3
v 70 17.2 12
v 70 17.2 12.3
f 171 175 173 169
f 174 176 172 170
f 173 174 170 169
f 172 176 175 171
f 170 172 171 169
f 175 176 174 173
o se-tower-upper
usemtl building
v 57.5 2 12.3
v 57.5 2 16
v 57.5 15 12.3
v 57.5 15 16
v 68 2 12.3
v 68 2 16
v 68 15 12.3
v 68 15 16
f 179 183 181 177
f 182 184 180 178
f 181 182 178 177
f 180 184 183 179
f 178 180 179 177
f 183 184 182 181
o se-tower-parapet-s
usemtl stone
v 57.5 2 16
v 57.5 2 16.9
v 57.5 2.25 16
v 57.5 2.25 16.9
v 68 2 16
v 68 2 16.9
v 68 2.25 16
v 68 2.25 16.9
f 187 191 189 185
f 190 192 188 186
f 189 190 186 185
f 188 192 191 187
f 186 188 187 185
f 191 192 190 189
o se-tower-parapet-n
usemtl stone
v 57.5 14.75 16
v 57.5 14.75 16.9
v 57.5 15 16
v 57.5 15 16.9
v 68 14.75 16
v 68 14.75 16.9
v 68 15 16
v 68 15 16.9
f 195 199 197 193
f 198 200 196 194
f 197 198 194 193
f 196 200 199 195
f 194 196 195 193
f 199 200 198 197
o se-tower-parapet-w
usemtl stone
v 57.5 2.25 16
v 57.5 2.25 16.9
v 57.5 14.75 16
v 57.5 14.75 16.9
v 57.75 2.25 16
v 57.75 2.25 16.9
v 57.75 14.75 16
v 57.75 14.75 16.9
f 203 207 205 201
f 206 208 204 202
f 205 206 202 201
f 204 208 207 203
f 202 204 203 201
f 207 208 206 205
o se-tower-parapet-e
usemtl stone
v 67.75 2.25 16
v 67.75 2.25 16.9
v 67.75 14.75 16
v 67.75 14.75 16.9
v 68 2.25 16
v 68 2.25 16.9
v 68 14.75 16
v 68 14.75 16.9
f 211 215 213 209
f 214 216 212 210
f 213 214 210 209
f 212 216 215 211
f 210 212 211 209
f 215 216 214 213
o se-tower-roof-unit-0
usemtl metal
v 60.2 7.9 16
v 60.2 7.9 17.4
v 60.2 9.1 16
v 60.2 9.1 17.4
v 61.8 7.9 16
v 61.8 7.9 17.4
v 61.8 9.1 16
v 61.8 9.1 17.4
f 219 223 221 217
f 222 224 220 218
f 221 222 218 217
f 220 224 223 219
f 218 220 219 217
f 223 224 222 221
o se-tower-roof-unit-1
usemtl metal
v 63.7 7.9 16
v 63.7 7.9 17.4
v 63.7 9.1 16
v 63.7 9.1 17.4
v 65.3 7.9 16
v 65.3 7.9 17.4
v 65.3 9.1 16
v 65.3 9.1 17.4
f 227 231 229 225
f 230 232 228 226
f 229 230 226 225
f 228 232 231 227
f 226 228 227 225
f 231 232 230 229
o nw-corner-base
usemtl building
v 0 33 0
v 0 33 10
v 0 48 0
v 0 48 10
v 14 33 0
v 14 33 10
v 14 48 0
v 14 48 10
f 235 239 237 233
f 238 240 236 234
f 237 238 234 233
f 236 240 239 235
f 234 236 235 233
f 239 240 238 237
o nw-corner-cornice
usemtl stone
v 0 32.8 10
v 0 32.8 10.3
v 0 48.2 10
v 0 48.2 10.3
v 14.2 32.8 10
v 14.2 32.8 10.3
v 14.2 48.2 10
v 14.2 48.2 10.3
f 243 247 245 241
f 246 248 244 242
f 245 246 242 241
f 244 248 247 243
f 242 244 243 241
f 247 248 246 245
o nw-corner-upper
usemtl building
v 1.5 34.5 10.3
v 1.5 34.5 14
v 1.5 46.5 10.3
v 1.5 46.5 14
v 12.5 34.5 10.3
v 12.5 34.5 14
v 12.5 46.5 10.3
v 12.5 46.5 14
f 251 255 253 249
f 254 256 252 250
f 253 254 250 249
f 252 256 255 251
f 250 252 251 249
f 255 256 254 253
o nw-corner-parapet-s
usemtl stone
v 1.5 34.5 14
v 1.5 34.5 14.9
v 1.5 34.75 14
v 1.5 34.75 14.9
v 12.5 34.5 14
v 12.5 34.5 14.9
v 12.5 34.75 14
v 12.5 34.75 14.9
f 259 263 261 257
f 262 264 260 258
f 261 262 258 257
f 260 264 263 259
f 258 260 259 257
f 263 264 262 261
o nw-corner-parapet-n
usemtl stone
v 1.5 46.25 14
v 1.5 46.25 14.9
v 1.5 46.5 14
v 1.5 46.5 14.9
v 12.5 46.25 14
v 12.5 46.25 14.9
v 12.5 46.5 14
v 12.5 46.5 14.9
f 267 271 269 265
f 270 272 268 266
f 269 270 266 265
f 268 272 271 267
f 266 268 267 265
f 271 272 270 269
o nw-corner-parapet-w
usemtl stone
v 1.5 34.75 14
v 1.5 34.75 14.9
v 1.5 46.25 14
v 1.5 46.25 14.9
v 1.75 34.75 14
v 1.75 34.75 14.9
v 1.75 46.25 14
v 1.75 46.25 14.9
f 275 279 277 273
f 278 280 276 274
f 277 278 274 273
f 276 280 279 275
f 274 276 275 273
f 279 280 278 277
o nw-corner-parapet-e
usemtl stone
v 12.25 34.75 14
v 12.25 34.75 14.9
v 12.25 46.25 14
v 12.25 46.25 14.9
v 12.5 34.75 14
v 12.5 34.75 14.9
v 12.5 46.25 14
v 12.5 46.25 14.9
f 283 287 285 281
f 286 288 284 282
f 285 286 282 281
f 284 288 287 283
f 282 284 283 281
f 287 288 286 285
o nw-corner-roof-unit-0
usemtl metal
v 6.2 39.9 14
v 6.2 39.9 15.4
v 6.2 41.1 14
v 6.2 41.1 15.4
v 7.8 39.9 14
v 7.8 39.9 15.4
v 7.8 41.1 14
v 7.8 41.1 15.4
f 291 295 293 289
f 294 296 292 290
f 293 294 290 289
f 292 296 295 291
f 290 292 291 289
f 295 296 294 293
o nw-low-mass
usemtl building
v 14.5 33 0
v 14.5 33 9
v 14.5 50 0
v 14.5 50 9
v 28 33 0
v 28 33 9
v 28 50 0
v 28 50 9
f 299 303 301 297
f 302 304 300 298
f 301 302 298 297
f 300 304 303 299
f 298 300 299 297
f 303 304 302 301
o nw-low-parapet-s
usemtl stone
v 14.5 33 9
v 14.5 33 9.9
v 14.5 33.25 9
v 14.5 33.25 9.9
v 28 33 9
v 28 33 9.9
v 28 33.25 9
v 28 33.25 9.9
f 307 311 309 305
f 310 312 308 306
f 309 310 306 305
f 308 312 311 307
f 306 308 307 305
f 311 312 310 309
o nw-low-parapet-n
usemtl stone
v 14.5 49.75 9
v 14.5 49.75 9.9
v 14.5 50 9
v 14.5 50 9.9
v 28 49.75 9
v 28 49.75 9.9
v 28 50 9
v 28 50 9.9
f 315 319 317 313
f 318 320 316 314
f 317 318 314 313
f 316 320 319 315
f 314 316 315 313
f 319 320 318 317
o nw-low-parapet-w
usemtl stone
v 14.5 33.25 9
v 14.5 33.25 9.9
v 14.5 49.75 9
v 14.5 49.75 9.9
v 14.75 33.25 9
v 14.75 33.25 9.9
v 14.75 49.75 9
v 14.75 49.75 9.9
f 323 327 325 321
f 326 328 324 322
f 325 326 322 321
f 324 328 327 323
f 322 324 323 321
f 327 328 326 325
o nw-low-parapet-e
usemtl stone
v 27.75 33.25 9
v 27.75 33.25 9.9
v 27.75 49.75 9
v 27.75 49.75 9.9
v 28 33.25 9
v 28 33.25 9.9
v 28 49.75 9
v 28 49.75 9.9
f 331 335 333 329
f 334 336 332 330
f 333 334 330 329
f 332 336 335 331
f 330 332 331 329
f 335 336 334 333
o ne-west-mass
usemtl building
v 42 33 0
v 42 33 13
v 42 47 0
v 42 47 13
v 54 33 0
v 54 33 13
v 54 47 0
v 54 47 13
f 339 343 341 337
f 342 344 340 338
f 341 342 338 337
f 340 344 343 339
f 338 340 339 337
f 343 344 342 341
o ne-east-mass
usemtl building
v 58 33 0
v 58 33 13
v 58 47 0
v 58 47 13
v 70 33 0
v 70 33 13
v 70 47 0
v 70 47 13
f 347 351 349 345
f 350 352 348 346
f 349 350 346 345
f 348 352 351 347
f 346 348 347 345
f 351 352 350 349
o ne-passage-roof
usemtl building
v 54 33 4.5
v 54 33 13
v 54 47 4.5
v 54 47 13
v 58 33 4.5
v 58 33 13
v 58 47 4.5
v 58 47 13
f 355 359 357 353
f 358 360 356 354
f 357 358 354 353
f 356 360 359 355
f 354 356 355 353
f 359 360 358 357
o ne-parapet
usemtl stone
v 42 33 13
v 42 33 13.9
v 42 33.25 13
v 42 33.25 13.9
v 70 33 13
v 70 33 13.9
v 70 33.25 13
v 70 33.25 13.9
f 363 367 365 361
f 366 368 364 362
f 365 366 362 361
f 364 368 367 363
f 362 364 363 361
f 367 368 366 365
o skybridge-deck
usemtl concrete
v 28 8 6.5
v 28 8 6.8
v 28 10.5 6.5
v 28 10.5 6.8
v 42 8 6.5
v 42 8 6.8
v 42 10.5 6.5
v 42 10.5 6.8
f 371 375 373 369
f 374 376 372 370
f 373 374 370 369
f 372 376 375 371
f 370 372 371 369
f 375 376 374 373
o skybridge-south-glass
usemtl glass
v 28 8 6.8
v 28 8 9.2
v 28 8.05 6.8
v 28 8.05 9.2
v 42 8 6.8
v 42 8 9.2
v 42 8.05 6.8
v 42 8.05 9.2
f 379 383 381 377
f 382 384 380 378
f 381 382 378 377
f 380 384 383 379
f 378 380 379 377
f 383 384 382 381
o skybridge-north-glass
usemtl glass
v 28 10.45 6.8
v 28 10.45 9.2
v 28 10.5 6.8
v 28 10.5 9.2
v 42 10.45 6.8
v 42 10.45 9.2
v 42 10.5 6.8
v 42 10.5 9.2
f 387 391 389 385
f 390 392 388 386
f 389 390 386 385
f 388 392 391 387
f 386 388 387 385
f 391 392 390 389
o skybridge-roof
usemtl concrete
v 28 8 9.2
v 28 8 9.45
v 28 10.5 9.2
v 28 10.5 9.45
v 42 8 9.2
v 42 8 9.45
v 42 10.5 9.2
v 42 10.5 9.45
f 395 399 397 393
f 398 400 396 394
f 397 398 394 393
f 396 400 399 395
f 394 396 395 393
f 399 400 398 397
o awning-sw-0
usemtl canvas
v 1 17 2.9
v 1 17 3.15
v 1 18.6 2.9
v 1 18.6 3.15
v 12 17 2.9
v 12 17 3.15
v 12 18.6 2.9
v 12 18.6 3.15
f 403 407 405 401
f 406 408 404 402
f 405 406 402 401
f 404 408 407 403
f 402 404 403 401
f 407 408 406 405
o awning-sw-1
usemtl canvas
v 14.5 17 2.9
v 14.5 17 3.15
v 14.5 18.6 2.9
v 14.5 18.6 3.15
v 27 17 2.9
v 27 17 3.15
v 27 18.6 2.9
v 27 18.6 3.15
f 411 415 413 409
f 414 416 412 410
f 413 414 410 409
f 412 416 415 411
f 410 412 411 409
f 415 416 414 413
o balcony-se-low-0-slab
usemtl concrete
v 43.2 17 3.6
v 43.2 17 3.78
v 43.2 18.2 3.6
v 43.2 18.2 3.78
v 45.8 17 3.6
v 45.8 17 3.78
v 45.8 18.2 3.6
v 45.8 18.2 3.78
f 419 423 421 417
f 422 424 420 418
f 421 422 418 417
f 420 424 423 419
f 418 420 419 417
f 423 424 422 421
o balcony-se-low-0-rail
usemtl glass
v 43.2 18.15 3.78
v 43.2 18.15 4.7
v 43.2 18.2 3.78
v 43.2 18.2 4.7
v 45.8 18.15 3.78
v 45.8 18.15 4.7
v 45.8 18.2 3.78
v 45.8 18.2 4.7
f 427 431 429 425
f 430 432 428 426
f 429 430 426 425
f 428 432 431 427
f 426 428 427 425
f 431 432 430 429
o balcony-se-low-1-slab
usemtl concrete
v 47.2 17 3.6
v 47.2 17 3.78
v 47.2 18.2 3.6
v 47.2 18.2 3.78
v 49.8 17 3.6
v 49.8 17 3.78
v 49.8 18.2 3.6
v 49.8 18.2 3.78
f 435 439 437 433
f 438 440 436 434
f 437 438 434 433
f 436 440 439 435
f 434 436 435 433
f 439 440 438 437
o balcony-se-low-1-rail
usemtl glass
v 47.2 18.15 3.78
v 47.2 18.15 4.7
v 47.2 18.2 3.78
v 47.2 18.2 4.7
v 49.8 18.15 3.78
v 49.8 18.15 4.7
v 49.8 18.2 3.78
v 49.8 18.2 4.7
f 443 447 445 441
f 446 448 444 442
f 445 446 442 441
f 444 448 447 443
f 442 444 443 441
f 447 448 446 445
o balcony-se-low-2-slab
usemtl concrete
v 51.2 17 3.6
v 51.2 17 3.78
v 51.2 18.2 3.6
v 51.2 18.2 3.78
v 53.8 17 3.6
v 53.8 17 3.78
v 53.8 18.2 3.6
v 53.8 18.2 3.78
f 451 455 453 449
f 454 456 452 450
f 453 454 450 449
f 452 456 455 451
f 450 452 451 449
f 455 456 454 453
o balcony-se-low-2-rail
usemtl glass
v 51.2 18.15 3.78
v 51.2 18.15 4.7
v 51.2 18.2 3.78
v 51.2 18.2 4.7
v 53.8 18.15 3.78
v 53.8 18.15 4.7
v 53.8 18.2 3.78
v 53.8 18.2 4.7
f 459 463 461 457
f 462 464 460 458
f 461 462 458 457
f 460 464 463 459
f 458 460 459 457
f 463 464 462 461
o balcony-se-low-3-slab
usemtl concrete
v 43.2 17 6.6
v 43.2 17 6.78
v 43.2 18.2 6.6
v 43.2 18.2 6.78
v 45.8 17 6.6
v 45.8 17 6.78
v 45.8 18.2 6.6
v 45.8 18.2 6.78
f 467 471 469 465
f 470 472 468 466
f 469 470 466 465
f 468 472 471 467
f 466 468 467 465
f 471 472 470 469
o balcony-se-low-3-rail
usemtl glass
v 43.2 18.15 6.78
v 43.2 18.15 7.7
v 43.2 18.2 6.78
v 43.2 18.2 7.7
v 45.8 18.15 6.78
v 45.8 18.15 7.7
v 45.8 18.2 6.78
v 45.8 18.2 7.7
f 475 479 477 473
f 478 480 476 474
f 477 478 474 473
f 476 480 479 475
f 474 476 475 473
f 479 480 478 477
o balcony-se-low-4-slab
usemtl concrete
v 47.2 17 6.6
v 47.2 17 6.78
v 47.2 18.2 6.6
v 47.2 18.2 6.78
v 49.8 17 6.6
v 49.8 17 6.78
v 49.8 18.2 6.6
v 49.8 18.2 6.78
f 483 487 485 481
f 486 488 484 482
f 485 486 482 481
f 484 488 487 483
f 482 484 483 481
f 487 488 486 485
o balcony-se-low-4-rail
usemtl glass
v 47.2 18.15 6.78
v 47.2 18.15 7.7
v 47.2 18.2 6.78
v 47.2 18.2 7.7
v 49.8 18.15 6.78
v 49.8 18.15 7.7
v 49.8 18.2 6.78
v 49.8 18.2 7.7
f 491 495 493 489
f 494 496 492 490
f 493 494 490 489
f 492 496 495 491
f 490 492 491 489
f 495 496 494 493
o balcony-se-low-5-slab
usemtl concrete
v 51.2 17 6.6
v 51.2 17 6.78
v 51.2 18.2 6.6
v 51.2 18.2 6.78
v 53.8 17 6.6
v 53.8 17 6.78
v 53.8 18.2 6.6
v 53.8 18.2 6.78
f 499 503 501 497
f 502 504 500 498
f 501 502 498 497
f 500 504 503 499
f 498 500 499 497
f 503 504 502 501
o balcony-se-low-5-rail
usemtl glass
v 51.2 18.15 6.78
v 51.2 18.15 7.7
v 51.2 18.2 6.78
v 51.2 18.2 7.7
v 53.8 18.15 6.78
v 53.8 18.15 7.7
v 53.8 18.2 6.78
v 53.8 18.2 7.7
f 507 511 509 505
f 510 512 508 506
f 509 510 506 505
f 508 512 511 507
f 506 508 507 505
f 511 512 510 509
o balcony-se-tower-0-slab
usemtl concrete
v 57.45 17 3.6
v 57.45 17 3.78
v 57.45 18.2 3.6
v 57.45 18.2 3.78
v 60.05 17 3.6
v 60.05 17 3.78
v 60.05 18.2 3.6
v 60.05 18.2 3.78
f 515 519 517 513
f 518 520 516 514
f 517 518 514 513
f 516 520 519 515
f 514 516 515 513
f 519 520 518 517
o balcony-se-tower-0-rail
usemtl glass
v 57.45 18.15 3.78
v 57.45 18.15 4.7
v 57.45 18.2 3.78
v 57.45 18.2 4.7
v 60.05 18.15 3.78
v 60.05 18.15 4.7
v 60.05 18.2 3.78
v 60.05 18.2 4.7
f 523 527 525 521
f 526 528 524 522
f 525 526 522 521
f 524 528 527 523
f 522 524 523 521
f 527 528 526 525
o balcony-se-tower-1-slab
usemtl concrete
v 61.45 17 3.6
v 61.45 17 3.78
v 61.45 18.2 3.6
v 61.45 18.2 3.78
v 64.05 17 3.6
v 64.05 17 3.78
v 64.05 18.2 3.6
v 64.05 18.2 3.78
f 531 535 533 529
f 534 536 532 530
f 533 534 530 529
f 532 536 535 531
f 530 532 531 529
f 535 536 534 533
o balcony-se-tower-1-rail
usemtl glass
v 61.45 18.15 3.78
v 61.45 18.15 4.7
v 61.45 18.2 3.78
v 61.45 18.2 4.7
v 64.05 18.15 3.78
v 64.05 18.15 4.7
v 64.05 18.2 3.78
v 64.05 18.2 4.7
f 539 543 541 537
f 542 544 540 538
f 541 542 538 537
f 540 544 543 539
f 538 540 539 537
f 543 544 542 541
o balcony-se-tower-2-slab
usemtl concrete
v 65.45 17 3.6
v 65.45 17 3.78
v 65.45 18.2 3.6
v 65.45 18.2 3.78
v 68.05 17 3.6
v 68.05 17 3.78
v 68.05 18.2 3.6
v 68.05 18.2 3.78
f 547 551 549 545
f 550 552 548 546
f 549 550 546 545
f 548 552 551 547
f 546 548 547 545
f 551 552 550 549
o balcony-se-tower-2-rail
usemtl glass
v 65.45 18.15 3.78
v 65.45 18.15 4.7
v 65.45 18.2 3.78
v 65.45 18.2 4.7
v 68.05 18.15 3.78
v 68.05 18.15 4.7
v 68.05 18.2 3.78
v 68.05 18.2 4.7
f 555 559 557 553
f 558 560 556 554
f 557 558 554 553
f 556 560 559 555
f 554 556 555 553
f 559 560 558 557
o balcony-se-tower-3-slab
usemtl concrete
v 57.45 17 6.6
v 57.45 17 6.78
v 57.45 18.2 6.6
v 57.45 18.2 6.78
v 60.05 17 6.6
v 60.05 17 6.78
v 60.05 18.2 6.6
v 60.05 18.2 6.78
f 563 567 565 561
f 566 568 564 562
f 565 566 562 561
f 564 568 567 563
f 562 564 563 561
f 567 568 566 565
o balcony-se-tower-3-rail
usemtl glass
v 57.45 18.15 6.78
v 57.45 18.15 7.7
v 57.45 18.2 6.78
v 57.45 18.2 7.7
v 60.05 18.15 6.78
v 60.05 18.15 7.7
v 60.05 18.2 6.78
v 60.05 18.2 7.7
f 571 575 573 569
f 574 576 572 570
f 573 574 570 569
f 572 576 575 571
f 570 572 571 569
f 575 576 574 573
o balcony-se-tower-4-slab
usemtl concrete
v 61.45 17 6.6
v 61.45 17 6.78
v 61.45 18.2 6.6
v 61.45 18.2 6.78
v 64.05 17 6.6
v 64.05 17 6.78
v 64.05 18.2 6.6
v 64.05 18.2 6.78
f 579 583 581 577
f 582 584 580 578
f 581 582 578 577
f 580 584 583 579
f 578 580 579 577
f 583 584 582 581
o balcony-se-tower-4-rail
usemtl glass
v 61.45 18.15 6.78
v 61.45 18.15 7.7
v 61.45 18.2 6.78
v 61.45 18.2 7.7
v 64.05 18.15 6.78
v 64.05 18.15 7.7
v 64.05 18.2 6.78
v 64.05 18.2 7.7
f 587 591 589 585
f 590 592 588 586
f 589 590 586 585
f 588 592 591 587
f 586 588 587 585
f 591 592 590 589
o balcony-se-tower-5-slab
usemtl concrete
v 65.45 17 6.6
v 65.45 17 6.78
v 65.45 18.2 6.6
v 65.45 18.2 6.78
v 68.05 17 6.6
v 68.05 17 6.78
v 68.05 18.2 6.6
v 68.05 18.2 6.78
f 595 599 597 593
f 598 600 596 594
f 597 598 594 593
f 596 600 599 595
f 594 596 595 593
f 599 600 598 597
o balcony-se-tower-5-rail
usemtl glass
v 65.45 18.15 6.78
v 65.45 18.15 7.7
v 65.45 18.2 6.78
v 65.45 18.2 7.7
v 68.05 18.15 6.78
v 68.05 18.15 7.7
v 68.05 18.2 6.78
v 68.05 18.2 7.7
f 603 607 605 601
f 606 608 604 602
f 605 606 602 601
f 604 608 607 603
f 602 604 603 601
f 607 608 606 605
o balcony-se-tower-6-slab
usemtl concrete
v 57.45 17 9.6
v 57.45 17 9.78
v 57.45 18.2 9.6
v 57.45 18.2 9.78
v 60.05 17 9.6
v 60.05 17 9.78
v 60.05 18.2 9.6
v 60.05 18.2 9.78
f 611 615 613 609
f 614 616 612 610
f 613 614 610 609
f 612 616 615 611
f 610 612 611 609
f 615 616 614 613
o balcony-se-tower-6-rail
usemtl glass
v 57.45 18.15 9.78
v 57.45 18.15 10.7
v 57.45 18.2 9.78
v 57.45 18.2 10.7
v 60.05 18.15 9.78
v 60.05 18.15 10.7
v 60.05 18.2 9.78
v 60.05 18.2 10.7
f 619 623 621 617
f 622 624 620 618
f 621 622 618 617
f 620 624 623 619
f 618 620 619 617
f 623 624 622 621
o balcony-se-tower-7-slab
usemtl concrete
v 61.45 17 9.6
v 61.45 17 9.78
v 61.45 18.2 9.6
v 61.45 18.2 9.78
v 64.05 17 9.6
v 64.05 17 9.78
v 64.05 18.2 9.6
v 64.05 18.2 9.78
f 627 631 629 625
f 630 632 628 626
f 629 630 626 625
f 628 632 631 627
f 626 628 627 625
f 631 632 630 629
o balcony-se-tower-7-rail
usemtl glass
v 61.45 18.15 9.78
v 61.45 18.15 10.7
v 61.45 18.2 9.78
v 61.45 18.2 10.7
v 64.05 18.15 9.78
v 64.05 18.15 10.7
v 64.05 18.2 9.78
v 64.05 18.2 10.7
f 635 639 637 633
f 638 640 636 634
f 637 638 634 633
f 636 640 639 635
f 634 636 635 633
f 639 640 638 637
o balcony-se-tower-8-slab
usemtl concrete
v 65.45 17 9.6
v 65.45 17 9.78
v 65.45 18.2 9.6
v 65.45 18.2 9.78
v 68.05 17 9.6
v 68.05 17 9.78
v 68.05 18.2 9.6
v 68.05 18.2 9.78
f 643 647 645 641
f 646 648 644 642
f 645 646 642 641
f 644 648 647 643
f 642 644 643 641
f 647 648 646 645
o balcony-se-tower-8-rail
usemtl glass
v 65.45 18.15 9.78
v 65.45 18.15 10.7
v 65.45 18.2 9.78
v 65.45 18.2 10.7
v 68.05 18.15 9.78
v 68.05 18.15 10.7
v 68.05 18.2 9.78
v 68.05 18.2 10.7
f 651 655 653 649
f 654 656 652 650
f 653 654 650 649
f 652 656 655 651
f 650 652 651 649
f 655 656 654 653
o tree-0-trunk
usemtl bark
v 3.825 31.425 0
v 3.825 31.425 2.8
v 3.825 31.775 0
v 3.825 31.775 2.8
v 4.175 31.425 0
v 4.175 31.425 2.8
v 4.175 31.775 0
v 4.175 31.775 2.8
f 659 663 661 657
f 662 664 660 658
f 661 662 658 657
f 660 664 663 659
f 658 660 659 657
f 663 664 662 661
o tree-0-crown
usemtl vegetation
v 2.6 30.2 2.8
v 2.6 30.2 5.32
v 2.6 33 2.8
v 2.6 33 5.32
v 5.4 30.2 2.8
v 5.4 30.2 5.32
v 5.4 33 2.8
v 5.4 33 5.32
f 667 671 669 665
f 670 672 668 666
f 669 670 666 665
f 668 672 671 667
f 666 668 667 665
f 671 672 670 669
o tree-0-crown-top
usemtl vegetation
v 3.104 30.704 5.32
v 3.104 30.704 6.4
v 3.104 32.496 5.32
v 3.104 32.496 6.4
v 4.896 30.704 5.32
v 4.896 30.704 6.4
v 4.896 32.496 5.32
v 4.896 32.496 6.4
f 675 679 677 673
f 678 680 676 674
f 677 678 674 673
f 676 680 679 675
f 674 676 675 673
f 679 680 678 677
o tree-1-trunk
usemtl bark
v 10.825 31.425 0
v 10.825 31.425 2.8
v 10.825 31.775 0
v 10.825 31.775 2.8
v 11.175 31.425 0
v 11.175 31.425 2.8
v 11.175 31.775 0
v 11.175 31.775 2.8
f 683 687 685 681
f 686 688 684 682
f 685 686 682 681
f 684 688 687 683
f 682 684 683 681
f 687 688 686 685
o tree-1-crown
usemtl vegetation
v 9.6 30.2 2.8
v 9.6 30.2 5.32
v 9.6 33 2.8
v 9.6 33 5.32
v 12.4 30.2 2.8
v 12.4 30.2 5.32
v 12.4 33 2.8
v 12.4 33 5.32
f 691 695 693 689
f 694 696 692 690
f 693 694 690 689
f 692 696 695 691
f 690 692 691 689
f 695 696 694 693
o tree-1-crown-top
usemtl vegetation
v 10.104 30.704 5.32
v 10.104 30.704 6.4
v 10.104 32.496 5.32
v 10.104 32.496 6.4
v 11.896 30.704 5.32
v 11.896 30.704 6.4
v 11.896 32.496 5.32
v 11.896 32.496 6.4
f 699 703 701 697
f 702 704 700 698
f 701 702 698 697
f 700 704 703 699
f 698 700 699 697
f 703 704 702 701
o tree-2-trunk
usemtl bark
v 17.825 31.425 0
v 17.825 31.425 2.8
v 17.825 31.775 0
v 17.825 31.775 2.8
v 18.175 31.425 0
v 18.175 31.425 2.8
v 18.175 31.775 0
v 18.175 31.775 2.8
f 707 711 709 705
f 710 712 708 706
f 709 710 706 705
f 708 712 711 707
f 706 708 707 705
f 711 712 710 709
o tree-2-crown
usemtl vegetation
v 16.6 30.2 2.8
v 16.6 30.2 5.32
v 16.6 33 2.8
v 16.6 33 5.32
v 19.4 30.2 2.8
v 19.4 30.2 5.32
v 19.4 33 2.8
v 19.4 33 5.32
f 715 719 717 713
f 718 720 716 714
f 717 718 714 713
f 716 720 719 715
f 714 716 715 713
f 719 720 718 717
o tree-2-crown-top
usemtl vegetation
v 17.104 30.704 5.32
v 17.104 30.704 6.4
v 17.104 32.496 5.32
v 17.104 32.496 6.4
v 18.896 30.704 5.32
v 18.896 30.704 6.4
v 18.896 32.496 5.32
v 18.896 32.496 6.4
f 723 727 725 721
f 726 728 724 722
f 725 726 722 721
f 724 728 727 723
f 722 724 723 721
f 727 728 726 725
o tree-3-trunk
usemtl bark
v 24.825 31.425 0
v 24.825 31.425 2.8
v 24.825 31.775 0
v 24.825 31.775 2.8
v 25.175 31.425 0
v 25.175 31.425 2.8
v 25.175 31.775 0
v 25.175 31.775 2.8
f 731 735 733 729
f 734 736 732 730
f 733 734 730 729
f 732 736 735 731
f 730 732 731 729
f 735 736 734 733
o tree-3-crown
usemtl vegetation
v 23.6 30.2 2.8
v 23.6 30.2 5.32
v 23.6 33 2.8
v 23.6 33 5.32
v 26.4 30.2 2.8
v 26.4 30.2 5.32
v 26.4 33 2.8
v 26.4 33 5.32
f 739 743 741 737
f 742 744 740 738
f 741 742 738 737
f 740 744 743 739
f 738 740 739 737
f 743 744 742 741
o tree-3-crown-top
usemtl vegetation
v 24.104 30.704 5.32
v 24.104 30.704 6.4
v 24.104 32.496 5.32
v 24.104 32.496 6.4
v 25.896 30.704 5.32
v 25.896 30.704 6.4
v 25.896 32.496 5.32
v 25.896 32.496 6.4
f 747 751 749 745
f 750 752 748 746
f 749 750 746 745
f 748 752 751 747
f 746 748 747 745
f 751 752 750 749
o tree-4-trunk
usemtl bark
v 44.825 31.425 0
v 44.825 31.425 2.8
v 44.825 31.775 0
v 44.825 31.775 2.8
v 45.175 31.425 0
v 45.175 31.425 2.8
v 45.175 31.775 0
v 45.175 31.775 2.8
f 755 759 757 753
f 758 760 756 754
f 757 758 754 753
f 756 760 759 755
f 754 756 755 753
f 759 760 758 757
o tree-4-crown
usemtl vegetation
v 43.6 30.2 2.8
v 43.6 30.2 5.32
v 43.6 33 2.8
v 43.6 33 5.32
v 46.4 30.2 2.8
v 46.4 30.2 5.32
v 46.4 33 2.8
v 46.4 33 5.32
f 763 767 765 761
f 766 768 764 762
f 765 766 762 761
f 764 768 767 763
f 762 764 763 761
f 767 768 766 765
o tree-4-crown-top
usemtl vegetation
v 44.104 30.704 5.32
v 44.104 30.704 6.4
v 44.104 32.496 5.32
v 44.104 32.496 6.4
v 45.896 30.704 5.32
v 45.896 30.704 6.4
v 45.896 32.496 5.32
v 45.896 32.496 6.4
f 771 775 773 769
f 774 776 772 770
f 773 774 770 769
f 772 776 775 771
f 770 772 771 769
f 775 776 774 773
o tree-5-trunk
usemtl bark
v 49.825 31.425 0
v 49.825 31.425 2.8
v 49.825 31.775 0
v 49.825 31.775 2.8
v 50.175 31.425 0
v 50.175 31.425 2.8
v 50.175 31.775 0
v 50.175 31.775 2.8
f 779 783 781 777
f 782 784 780 778
f 781 782 778 777
f 780 784 783 779
f 778 780 779 777
f 783 784 782 781
o tree-5-crown
usemtl vegetation
v 48.6 30.2 2.8
v 48.6 30.2 5.32
v 48.6 33 2.8
v 48.6 33 5.32
v 51.4 30.2 2.8
v 51.4 30.2 5.32
v 51.4 33 2.8
v 51.4 33 5.32
f 787 791 789 785
f 790 792 788 786
f 789 790 786 785
f 788 792 791 787
f 786 788 787 785
f 791 792 790 789
o tree-5-crown-top
usemtl vegetation
v 49.104 30.704 5.32
v 49.104 30.704 6.4
v 49.104 32.496 5.32
v 49.104 32.496 6.4
v 50.896 30.704 5.32
v 50.896 30.704 6.4
v 50.896 32.496 5.32
v 50.896 32.496 6.4
f 795 799 797 793
f 798 800 796 794
f 797 798 794 793
f 796 800 799 795
f 794 796 795 793
f 799 800 798 797
o tree-6-trunk
usemtl bark
v 65.825 31.425 0
v 65.825 31.425 2.8
v 65.825 31.775 0
v 65.825 31.775 2.8
v 66.175 31.425 0
v 66.175 31.425 2.8
v 66.175 31.775 0
v 66.175 31.775 2.8
f 803 807 805 801
f 806 808 804 802
f 805 806 802 801
f 804 808 807 803
f 802 804 803 801
f 807 808 806 805
o tree-6-crown
usemtl vegetation
v 64.6 30.2 2.8
v 64.6 30.2 5.32
v 64.6 33 2.8
v 64.6 33 5.32
v 67.4 30.2 2.8
v 67.4 30.2 5.32
v 67.4 33 2.8
v 67.4 33 5.32
f 811 815 813 809
f 814 816 812 810
f 813 814 810 809
f 812 816 815 811
f 810 812 811 809
f 815 816 814 813
o tree-6-crown-top
usemtl vegetation
v 65.104 30.704 5.32
v 65.104 30.704 6.4
v 65.104 32.496 5.32
v 65.104 32.496 6.4
v 66.896 30.704 5.32
v 66.896 30.704 6.4
v 66.896 32.496 5.32
v 66.896 32.496 6.4
f 819 823 821 817
f 822 824 820 818
f 821 822 818 817
f 820 824 823 819
f 818 820 819 817
f 823 824 822 821
o lamp-s-0-pole
usemtl metal
v 7.92 19.52 0
v 7.92 19.52 6
v 7.92 19.68 0
v 7.92 19.68 6
v 8.08 19.52 0
v 8.08 19.52 6
v 8.08 19.68 0
v 8.08 19.68 6
f 827 831 829 825
f 830 832 828 826
f 829 830 826 825
f 828 832 831 827
f 826 828 827 825
f 831 832 830 829
o lamp-s-0-arm
usemtl metal
v 7.95 19.55 5.88
v 7.95 19.55 6
v 7.95 21.05 5.88
v 7.95 21.05 6
v 8.05 19.55 5.88
v 8.05 19.55 6
v 8.05 21.05 5.88
v 8.05 21.05 6
f 835 839 837 833
f 838 840 836 834
f 837 838 834 833
f 836 840 839 835
f 834 836 835 833
f 839 840 838 837
o lamp-s-0-head
usemtl lamp
v 7.75 20.75 5.65
v 7.75 20.75 5.88
v 7.75 21.25 5.65
v 7.75 21.25 5.88
v 8.25 20.75 5.65
v 8.25 20.75 5.88
v 8.25 21.25 5.65
v 8.25 21.25 5.88
f 843 847 845 841
f 846 848 844 842
f 845 846 842 841
f 844 848 847 843
f 842 844 843 841
f 847 848 846 845
o lamp-s-1-pole
usemtl metal
v 15.92 19.52 0
v 15.92 19.52 6
v 15.92 19.68 0
v 15.92 19.68 6
v 16.08 19.52 0
v 16.08 19.52 6
v 16.08 19.68 0
v 16.08 19.68 6
f 851 855 853 849
f 854 856 852 850
f 853 854 850 849
f 852 856 855 851
f 850 852 851 849
f 855 856 854 853
o lamp-s-1-arm
usemtl metal
v 15.95 19.55 5.88
v 15.95 19.55 6
v 15.95 21.05 5.88
v 15.95 21.05 6
v 16.05 19.55 5.88
v 16.05 19.55 6
v 16.05 21.05 5.88
v 16.05 21.05 6
f 859 863 861 857
f 862 864 860 858
f 861 862 858 857
f 860 864 863 859
f 858 860 859 857
f 863 864 862 861
o lamp-s-1-head
usemtl lamp
v 15.75 20.75 5.65
v 15.75 20.75 5.88
v 15.75 21.25 5.65
v 15.75 21.25 5.88
v 16.25 20.75 5.65
v 16.25 20.75 5.88
v 16.25 21.25 5.65
v 16.25 21.25 5.88
f 867 871 869 865
f 870 872 868 866
f 869 870 866 865
f 868 872 871 867
f 866 868 867 865
f 871 872 870 869
o lamp-s-2-pole
usemtl metal
v 23.92 19.52 0
v 23.92 19.52 6
v 23.92 19.68 0
v 23.92 19.68 6
v 24.08 19.52 0
v 24.08 19.52 6
v 24.08 19.68 0
v 24.08 19.68 6
f 875 879 877 873
f 878 880 876 874
f 877 878 874 873
f 876 880 879 875
f 874 876 875 873
f 879 880 878 877
o lamp-s-2-arm
usemtl metal
v 23.95 19.55 5.88
v 23.95 19.55 6
v 23.95 21.05 5.88
v 23.95 21.05 6
v 24.05 19.55 5.88
v 24.05 19.55 6
v 24.05 21.05 5.88
v 24.05 21.05 6
f 883 887 885 881
f 886 888 884 882
f 885 886 882 881
f 884 888 887 883
f 882 884 883 881
f 887 888 886 885
o lamp-s-2-head
usemtl lamp
v 23.75 20.75 5.65
v 23.75 20.75 5.88
v 23.75 21.25 5.65
v 23.75 21.25 5.88
v 24.25 20.75 5.65
v 24.25 20.75 5.88
v 24.25 21.25 5.65
v 24.25 21.25 5.88
f 891 895 893 889
f 894 896 892 890
f 893 894 890 889
f 892 896 895 891
f 890 892 891 889
f 895 896 894 893
o lamp-s-3-pole
usemtl metal
v 45.92 19.52 0
v 45.92 19.52 6
v 45.92 19.68 0
v 45.92 19.68 6
v 46.08 19.52 0
v 46.08 19.52 6
v 46.08 19.68 0
v 46.08 19.68 6
f 899 903 901 897
f 902 904 900 898
f 901 902 898 897
f 900 904 903 899
f 898 900 899 897
f 903 904 902 901
o lamp-s-3-arm
usemtl metal
v 45.95 19.55 5.88
v 45.95 19.55 6
v 45.95 21.05 5.88
v 45.95 21.05 6
v 46.05 19.55 5.88
v 46.05 19.55 6
v 46.05 21.05 5.88
v 46.05 21.05 6
f 907 911 909 905
f 910 912 908 906
f 909 910 906 905
f 908 912 911 907
f 906 908 907 905
f 911 912 910 909
o lamp-s-3-head
usemtl lamp
v 45.75 20.75 5.65
v 45.75 20.75 5.88
v 45.75 21.25 5.65
v 45.75 21.25 5.88
v 46.25 20.75 5.65
v 46.25 20.75 5.88
v 46.25 21.25 5.65
v 46.25 21.25 5.88
f 915 919 917 913
f 918 920 916 914
f 917 918 914 913
f 916 920 919 915
f 914 916 915 913
f 919 920 918 917
o lamp-s-4-pole
usemtl metal
v 53.92 19.52 0
v 53.92 19.52 6
v 53.92 19.68 0
v 53.92 19.68 6
v 54.08 19.52 0
v 54.08 19.52 6
v 54.08 19.68 0
v 54.08 19.68 6
f 923 927 925 921
f 926 928 924 922
f 925 926 922 921
f 924 928 927 923
f 922 924 923 921
f 927 928 926 925
o lamp-s-4-arm
usemtl metal
v 53.95 19.55 5.88
v 53.95 19.55 6
v 53.95 21.05 5.88
v 53.95 21.05 6
v 54.05 19.55 5.88
v 54.05 19.55 6
v 54.05 21.05 5.88
v 54.05 21.05 6
f 931 935 933 929
f 934 936 932 930
f 933 934 930 929
f 932 936 935 931
f 930 932 931 929
f 935 936 934 933
o lamp-s-4-head
usemtl lamp
v 53.75 20.75 5.65
v 53.75 20.75 5.88
v 53.75 21.25 5.65
v 53.75 21.25 5.88
v 54.25 20.75 5.65
v 54.25 20.75 5.88
v 54.25 21.25 5.65
v 54.25 21.25 5.88
f 939 943 941 937
f 942 944 940 938
f 941 942 938 937
f 940 944 943 939
f 938 940 939 937
f 943 944 942 941
o lamp-s-5-pole
usemtl metal
v 61.92 19.52 0
v 61.92 19.52 6
v 61.92 19.68 0
v 61.92 19.68 6
v 62.08 19.52 0
v 62.08 19.52 6
v 62.08 19.68 0
v 62.08 19.68 6
f 947 951 949 945
f 950 952 948 946
f 949 950 946 945
f 948 952 951 947
f 946 948 947 945
f 951 952 950 949
o lamp-s-5-arm
usemtl metal
v 61.95 19.55 5.88
v 61.95 19.55 6
v 61.95 21.05 5.88
v 61.95 21.05 6
v 62.05 19.55 5.88
v 62.05 19.55 6
v 62.05 21.05 5.88
v 62.05 21.05 6
f 955 959 957 953
f 958 960 956 954
f 957 958 954 953
f 956 960 959 955
f 954 956 955 953
f 959 960 958 957
o lamp-s-5-head
usemtl lamp
v 61.75 20.75 5.65
v 61.75 20.75 5.88
v 61.75 21.25 5.65
v 61.75 21.25 5.88
v 62.25 20.75 5.65
v 62.25 20.75 5.88
v 62.25 21.25 5.65
v 62.25 21.25 5.88
f 963 967 965 961
f 966 968 964 962
f 965 966 962 961
f 964 968 967 963
f 962 964 963 961
f 967 968 966 965
o lamp-n-0-pole
usemtl metal
v 7.92 30.32 0
v 7.92 30.32 6
v 7.92 30.48 0
v 7.92 30.48 6
v 8.08 30.32 0
v 8.08 30.32 6
v 8.08 30.48 0
v 8.08 30.48 6
f 971 975 973 969
f 974 976 972 970
f 973 974 970 969
f 972 976 975 971
f 970 972 971 969
f 975 976 974 973
o lamp-n-0-arm
usemtl metal
v 7.95 28.95 5.88
v 7.95 28.95 6
v 7.95 30.45 5.88
v 7.95 30.45 6
v 8.05 28.95 5.88
v 8.05 28.95 6
v 8.05 30.45 5.88
v 8.05 30.45 6
f 979 983 981 977
f 982 984 980 978
f 981 982 978 977
f 980 984 983 979
f 978 980 979 977
f 983 984 982 981
o lamp-n-0-head
usemtl lamp
v 7.75 28.75 5.65
v 7.75 28.75 5.88
v 7.75 29.25 5.65
v 7.75 29.25 5.88
v 8.25 28.75 5.65
v 8.25 28.75 5.88
v 8.25 29.25 5.65
v 8.25 29.25 5.88
f 987 991 989 985
f 990 992 988 986
f 989 990 986 985
f 988 992 991 987
f 986 988 987 985
f 991 992 990 989
o lamp-n-1-pole
usemtl metal
v 20.92 30.32 0
v 20.92 30.32 6
v 20.92 30.48 0
v 20.92 30.48 6
v 21.08 30.32 0
v 21.08 30.32 6
v 21.08 30.48 0
v 21.08 30.48 6
f 995 999 997 993
f 998 1000 996 994
f 997 998 994 993
f 996 1000 999 995
f 994 996 995 993
f 999 1000 998 997
o lamp-n-1-arm
usemtl metal
v 20.95 28.95 5.88
v 20.95 28.95 6
v 20.95 30.45 5.88
v 20.95 30.45 6
v 21.05 28.95 5.88
v 21.05 28.95 6
v 21.05 30.45 5.88
v 21.05 30.45 6
f 1003 1007 1005 1001
f 1006 1008 1004 1002
f 1005 1006 1002 1001
f 1004 1008 1007 1003
f 1002 1004 1003 1001
f 1007 1008 1006 1005
o lamp-n-1-head
usemtl lamp
v 20.75 28.75 5.65
v 20.75 28.75 5.88
v 20.75 29.25 5.65
v 20.75 29.25 5.88
v 21.25 28.75 5.65
v 21.25 28.75 5.88
v 21.25 29.25 5.65
v 21.25 29.25 5.88
f 1011 1015 1013 1009
f 1014 1016 1012 1010
f 1013 1014 1010 1009
f 1012 1016 1015 1011
f 1010 1012 1011 1009
f 1015 1016 1014 1013
o lamp-n-2-pole
usemtl metal
v 46.92 30.32 0
v 46.92 30.32 6
v 46.92 30.48 0
v 46.92 30.48 6
v 47.08 30.32 0
v 47.08 30.32 6
v 47.08 30.48 0
v 47.08 30.48 6
f 1019 1023 1021 1017
f 1022 1024 1020 1018
f 1021 1022 1018 1017
f 1020 1024 1023 1019
f 1018 1020 1019 1017
f 1023 1024 1022 1021
o lamp-n-2-arm
usemtl metal
v 46.95 28.95 5.88
v 46.95 28.95 6
v 46.95 30.45 5.88
v 46.95 30.45 6
v 47.05 28.95 5.88
v 47.05 28.95 6
v 47.05 30.45 5.88
v 47.05 30.45 6
f 1027 1031 1029 1025
f 1030 1032 1028 1026
f 1029 1030 1026 1025
f 1028 1032 1031 1027
f 1026 1028 1027 1025
f 1031 1032 1030 1029
o lamp-n-2-head
usemtl lamp
v 46.75 28.75 5.65
v 46.75 28.75 5.88
v 46.75 29.25 5.65
v 46.75 29.25 5.88
v 47.25 28.75 5.65
v 47.25 28.75 5.88
v 47.25 29.25 5.65
v 47.25 29.25 5.88
f 1035 1039 1037 1033
f 1038 1040 1036 1034
f 1037 1038 1034 1033
f 1036 1040 1039 1035
f 1034 1036 1035 1033
f 1039 1040 1038 1037
o lamp-n-3-pole
usemtl metal
v 61.92 30.32 0
v 61.92 30.32 6
v 61.92 30.48 0
v 61.92 30.48 6
v 62.08 30.32 0
v 62.08 30.32 6
v 62.08 30.48 0
v 62.08 30.48 6
f 1043 1047 1045 1041
f 1046 1048 1044 1042
f 1045 1046 1042 1041
f 1044 1048 1047 1043
f 1042 1044 1043 1041
f 1047 1048 1046 1045
o lamp-n-3-arm
usemtl metal
v 61.95 28.95 5.88
v 61.95 28.95 6
v 61.95 30.45 5.88
v 61.95 30.45 6
v 62.05 28.95 5.88
v 62.05 28.95 6
v 62.05 30.45 5.88
v 62.05 30.45 6
f 1051 1055 1053 1049
f 1054 1056 1052 1050
f 1053 1054 1050 1049
f 1052 1056 1055 1051
f 1050 1052 1051 1049
f 1055 1056 1054 1053
o lamp-n-3-head
usemtl lamp
v 61.75 28.75 5.65
v 61.75 28.75 5.88
v 61.75 29.25 5.65
v 61.75 29.25 5.88
v 62.25 28.75 5.65
v 62.25 28.75 5.88
v 62.25 29.25 5.65
v 62.25 29.25 5.88
f 1059 1063 1061 1057
f 1062 1064 1060 1058
f 1061 1062 1058 1057
f 1060 1064 1063 1059
f 1058 1060 1059 1057
f 1063 1064 1062 1061
o shelter-roof
usemtl glass
v 44 17.2 2.5
v 44 17.2 2.65
v 44 19 2.5
v 44 19 2.65
v 48.5 17.2 2.5
v 48.5 17.2 2.65
v 48.5 19 2.5
v 48.5 19 2.65
f 1067 1071 1069 1065
f 1070 1072 1068 1066
f 1069 1070 1066 1065
f 1068 1072 1071 1067
f 1066 1068 1067 1065
f 1071 1072 1070 1069
o shelter-back
usemtl glass
v 44 17.2 0
v 44 17.2 2.5
v 44 17.3 0
v 44 17.3 2.5
v 48.5 17.2 0
v 48.5 17.2 2.5
v 48.5 17.3 0
v 48.5 17.3 2.5
f 1075 1079 1077 1073
f 1078 1080 1076 1074
f 1077 1078 1074 1073
f 1076 1080 1079 1075
f 1074 1076 1075 1073
f 1079 1080 1078 1077
o shelter-side
usemtl glass
v 44 17.3 0
v 44 17.3 2.5
v 44 19 0
v 44 19 2.5
v 44.1 17.3 0
v 44.1 17.3 2.5
v 44.1 19 0
v 44.1 19 2.5
f 1083 1087 1085 1081
f 1086 1088 1084 1082
f 1085 1086 1082 1081
f 1084 1088 1087 1083
f 1082 1084 1083 1081
f 1087 1088 1086 1085
o shelter-post
usemtl metal
v 48.4 18.9 0
v 48.4 18.9 2.5
v 48.4 19 0
v 48.4 19 2.5
v 48.5 18.9 0
v 48.5 18.9 2.5
v 48.5 19 0
v 48.5 19 2.5
f 1091 1095 1093 1089
f 1094 1096 1092 1090
f 1093 1094 1090 1089
f 1092 1096 1095 1091
f 1090 1092 1091 1089
f 1095 1096 1094 1093
o shelter-bench-seat
usemtl wood
v 45 17.4 0.4
v 45 17.4 0.46
v 45 17.9 0.4
v 45 17.9 0.46
v 46.8 17.4 0.4
v 46.8 17.4 0.46
v 46.8 17.9 0.4
v 46.8 17.9 0.46
f 1099 1103 1101 1097
f 1102 1104 1100 1098
f 1101 1102 1098 1097
f 1100 1104 1103 1099
f 1098 1100 1099 1097
f 1103 1104 1102 1101
o shelter-bench-leg-0
usemtl metal
v 45.14 17.4 0
v 45.14 17.4 0.4
v 45.14 17.9 0
v 45.14 17.9 0.4
v 45.22 17.4 0
v 45.22 17.4 0.4
v 45.22 17.9 0
v 45.22 17.9 0.4
f 1107 1111 1109 1105
f 1110 1112 1108 1106
f 1109 1110 1106 1105
f 1108 1112 1111 1107
f 1106 1108 1107 1105
f 1111 1112 1110 1109
o shelter-bench-leg-1
usemtl metal
v 46.58 17.4 0
v 46.58 17.4 0.4
v 46.58 17.9 0
v 46.58 17.9 0.4
v 46.66 17.4 0
v 46.66 17.4 0.4
v 46.66 17.9 0
v 46.66 17.9 0.4
f 1115 1119 1117 1113
f 1118 1120 1116 1114
f 1117 1118 1114 1113
f 1116 1120 1119 1115
f 1114 1116 1115 1113
f 1119 1120 1118 1117
o corner-bench-seat
usemtl wood
v 20 17.4 0.4
v 20 17.4 0.46
v 20 17.9 0.4
v 20 17.9 0.46
v 21.8 17.4 0.4
v 21.8 17.4 0.46
v 21.8 17.9 0.4
v 21.8 17.9 0.46
f 1123 1127 1125 1121
f 1126 1128 1124 1122
f 1125 1126 1122 1121
f 1124 1128 1127 1123
f 1122 1124 1123 1121
f 1127 1128 1126 1125
o corner-bench-leg-0
usemtl metal
v 20.14 17.4 0
v 20.14 17.4 0.4
v 20.14 17.9 0
v 20.14 17.9 0.4
v 20.22 17.4 0
v 20.22 17.4 0.4
v 20.22 17.9 0
v 20.22 17.9 0.4
f 1131 1135 1133 1129
f 1134 1136 1132 1130
f 1133 1134 1130 1129
f 1132 1136 1135 1131
f 1130 1132 1131 1129
f 1135 1136 1134 1133
o corner-bench-leg-1
usemtl metal
v 21.58 17.4 0
v 21.58 17.4 0.4
v 21.58 17.9 0
v 21.58 17.9 0.4
v 21.66 17.4 0
v 21.66 17.4 0.4
v 21.66 17.9 0
v 21.66 17.9 0.4
f 1139 1143 1141 1137
f 1142 1144 1140 1138
f 1141 1142 1138 1137
f 1140 1144 1143 1139
f 1138 1140 1139 1137
f 1143 1144 1142 1141
o bollards-sw-0
usemtl metal
v 28.3 17.5 0
v 28.3 17.5 0.9
v 28.3 17.7 0
v 28.3 17.7 0.9
v 28.5 17.5 0
v 28.5 17.5 0.9
v 28.5 17.7 0
v 28.5 17.7 0.9
f 1147 1151 1149 1145
f 1150 1152 1148 1146
f 1149 1150 1146 1145
f 1148 1152 1151 1147
f 1146 1148 1147 1145
f 1151 1152 1150 1149
o bollards-sw-1
usemtl metal
v 28.3 18.1667 0
v 28.3 18.1667 0.9
v 28.3 18.3667 0
v 28.3 18.3667 0.9
v 28.5 18.1667 0
v 28.5 18.1667 0.9
v 28.5 18.3667 0
v 28.5 18.3667 0.9
f 1155 1159 1157 1153
f 1158 1160 1156 1154
f 1157 1158 1154 1153
f 1156 1160 1159 1155
f 1154 1156 1155 1153
f 1159 1160 1158 1157
o bollards-sw-2
usemtl metal
v 28.3 18.8333 0
v 28.3 18.8333 0.9
v 28.3 19.0333 0
v 28.3 19.0333 0.9
v 28.5 18.8333 0
v 28.5 18.8333 0.9
v 28.5 19.0333 0
v 28.5 19.0333 0.9
f 1163 1167 1165 1161
f 1166 1168 1164 1162
f 1165 1166 1162 1161
f 1164 1168 1167 1163
f 1162 1164 1163 1161
f 1167 1168 1166 1165
o bollards-sw-3
usemtl metal
v 28.3 19.5 0
v 28.3 19.5 0.9
v 28.3 19.7 0
v 28.3 19.7 0.9
v 28.5 19.5 0
v 28.5 19.5 0.9
v 28.5 19.7 0
v 28.5 19.7 0.9
f 1171 1175 1173 1169
f 1174 1176 1172 1170
f 1173 1174 1170 1169
f 1172 1176 1175 1171
f 1170 1172 1171 1169
f 1175 1176 1174 1173
o bollards-ne-0
usemtl metal
v 41.5 30.3 0
v 41.5 30.3 0.9
v 41.5 30.5 0
v 41.5 30.5 0.9
v 41.7 30.3 0
v 41.7 30.3 0.9
v 41.7 30.5 0
v 41.7 30.5 0.9
f 1179 1183 1181 1177
f 1182 1184 1180 1178
f 1181 1182 1178 1177
f 1180 1184 1183 1179
f 1178 1180 1179 1177
f 1183 1184 1182 1181
o bollards-ne-1
usemtl metal
v 41.5 31.0333 0
v 41.5 31.0333 0.9
v 41.5 31.2333 0
v 41.5 31.2333 0.9
v 41.7 31.0333 0
v 41.7 31.0333 0.9
v 41.7 31.2333 0
v 41.7 31.2333 0.9
f 1187 1191 1189 1185
f 1190 1192 1188 1186
f 1189 1190 1186 1185
f 1188 1192 1191 1187
f 1186 1188 1187 1185
f 1191 1192 1190 1189
o bollards-ne-2
usemtl metal
v 41.5 31.7667 0
v 41.5 31.7667 0.9
v 41.5 31.9667 0
v 41.5 31.9667 0.9
v 41.7 31.7667 0
v 41.7 31.7667 0.9
v 41.7 31.9667 0
v 41.7 31.9667 0.9
f 1195 1199 1197 1193
f 1198 1200 1196 1194
f 1197 1198 1194 1193
f 1196 1200 1199 1195
f 1194 1196 1195 1193
f 1199 1200 1198 1197
o bollards-ne-3
usemtl metal
v 41.5 32.5 0
v 41.5 32.5 0.9
v 41.5 32.7 0
v 41.5 32.7 0.9
v 41.7 32.5 0
v 41.7 32.5 0.9
v 41.7 32.7 0
v 41.7 32.7 0.9
f 1203 1207 1205 1201
f 1206 1208 1204 1202
f 1205 1206 1202 1201
f 1204 1208 1207 1203
f 1202 1204 1203 1201
f 1207 1208 1206 1205
o kiosk
usemtl wood
v 28.4 35 0
v 28.4 35 2.6
v 28.4 37 0
v 28.4 37 2.6
v 30.4 35 0
v 30.4 35 2.6
v 30.4 37 0
v 30.4 37 2.6
f 1211 1215 1213 1209
f 1214 1216 1212 1210
f 1213 1214 1210 1209
f 1212 1216 1215 1211
f 1210 1212 1211 1209
f 1215 1216 1214 1213
o kiosk-roof
usemtl metal
v 28.2 34.8 2.6
v 28.2 34.8 2.8
v 28.2 37.2 2.6
v 28.2 37.2 2.8
v 30.6 34.8 2.6
v 30.6 34.8 2.8
v 30.6 37.2 2.6
v 30.6 37.2 2.8
f 1219 1223 1221 1217
f 1222 1224 1220 1218
f 1221 1222 1218 1217
f 1220 1224 1223 1219
f 1218 1220 1219 1217
f 1223 1224 1222 1221
o signal-sw-pole
usemtl metal
v 30.48 19.48 0
v 30.48 19.48 5.8
v 30.48 19.72 0
v 30.48 19.72 5.8
v 30.72 19.48 0
v 30.72 19.48 5.8
v 30.72 19.72 0
v 30.72 19.72 5.8
f 1227 1231 1229 1225
f 1230 1232 1228 1226
f 1229 1230 1226 1225
f 1228 1232 1231 1227
f 1226 1228 1227 1225
f 1231 1232 1230 1229
o signal-sw-arm
usemtl metal
v 30.53 19.53 5.6
v 30.53 19.53 5.8
v 30.53 19.67 5.6
v 30.53 19.67 5.8
v 34.67 19.53 5.6
v 34.67 19.53 5.8
v 34.67 19.67 5.6
v 34.67 19.67 5.8
f 1235 1239 1237 1233
f 1238 1240 1236 1234
f 1237 1238 1234 1233
f 1236 1240 1239 1235
f 1234 1236 1235 1233
f 1239 1240 1238 1237
o signal-sw-signal-0
usemtl signal
v 32.62 19.42 4.55
v 32.62 19.42 5.6
v 32.62 19.78 4.55
v 32.62 19.78 5.6
v 32.98 19.42 4.55
v 32.98 19.42 5.6
v 32.98 19.78 4.55
v 32.98 19.78 5.6
f 1243 1247 1245 1241
f 1246 1248 1244 1242
f 1245 1246 1242 1241
f 1244 1248 1247 1243
f 1242 1244 1243 1241
f 1247 1248 1246 1245
o signal-sw-signal-1
usemtl signal
v 34.42 19.42 4.55
v 34.42 19.42 5.6
v 34.42 19.78 4.55
v 34.42 19.78 5.6
v 34.78 19.42 4.55
v 34.78 19.42 5.6
v 34.78 19.78 4.55
v 34.78 19.78 5.6
f 1251 1255 1253 1249
f 1254 1256 1252 1250
f 1253 1254 1250 1249
f 1252 1256 1255 1251
f 1250 1252 1251 1249
f 1255 1256 1254 1253
o signal-sw-pedestrian
usemtl signal
v 30.45 19.45 2.3
v 30.45 19.45 2.9
v 30.45 19.75 2.3
v 30.45 19.75 2.9
v 30.75 19.45 2.3
v 30.75 19.45 2.9
v 30.75 19.75 2.3
v 30.75 19.75 2.9
f 1259 1263 1261 1257
f 1262 1264 1260 1258
f 1261 1262 1258 1257
f 1260 1264 1263 1259
f 1258 1260 1259 1257
f 1263 1264 1262 1261
o signal-ne-pole
usemtl metal
v 39.28 30.28 0
v 39.28 30.28 5.8
v 39.28 30.52 0
v 39.28 30.52 5.8
v 39.52 30.28 0
v 39.52 30.28 5.8
v 39.52 30.52 0
v 39.52 30.52 5.8
f 1267 1271 1269 1265
f 1270 1272 1268 1266
f 1269 1270 1266 1265
f 1268 1272 1271 1267
f 1266 1268 1267 1265
f 1271 1272 1270 1269
o signal-ne-arm
usemtl metal
v 35.33 30.33 5.6
v 35.33 30.33 5.8
v 35.33 30.47 5.6
v 35.33 30.47 5.8
v 39.47 30.33 5.6
v 39.47 30.33 5.8
v 39.47 30.47 5.6
v 39.47 30.47 5.8
f 1275 1279 1277 1273
f 1278 1280 1276 1274
f 1277 1278 1274 1273
f 1276 1280 1279 1275
f 1274 1276 1275 1273
f 1279 1280 1278 1277
o signal-ne-signal-0
usemtl signal
v 37.02 30.22 4.55
v 37.02 30.22 5.6
v 37.02 30.58 4.55
v 37.02 30.58 5.6
v 37.38 30.22 4.55
v 37.38 30.22 5.6
v 37.38 30.58 4.55
v 37.38 30.58 5.6
f 1283 1287 1285 1281
f 1286 1288 1284 1282
f 1285 1286 1282 1281
f 1284 1288 1287 1283
f 1282 1284 1283 1281
f 1287 1288 1286 1285
o signal-ne-signal-1
usemtl signal
v 35.22 30.22 4.55
v 35.22 30.22 5.6
v 35.22 30.58 4.55
v 35.22 30.58 5.6
v 35.58 30.22 4.55
v 35.58 30.22 5.6
v 35.58 30.58 4.55
v 35.58 30.58 5.6
f 1291 1295 1293 1289
f 1294 1296 1292 1290
f 1293 1294 1290 1289
f 1292 1296 1295 1291
f 1290 1292 1291 1289
f 1295 1296 1294 1293
o signal-ne-pedestrian
usemtl signal
v 39.25 30.25 2.3
v 39.25 30.25 2.9
v 39.25 30.55 2.3
v 39.25 30.55 2.9
v 39.55 30.25 2.3
v 39.55 30.25 2.9
v 39.55 30.55 2.3
v 39.55 30.55 2.9
f 1299 1303 1301 1297
f 1302 1304 1300 1298
f 1301 1302 1298 1297
f 1300 1304 1303 1299
f 1298 1300 1299 1297
f 1303 1304 1302 1301
o tram-wire
usemtl metal
v 0 24.98 6
v 0 24.98 6.03
v 0 25.02 6
v 0 25.02 6.03
v 70 24.98 6
v 70 24.98 6.03
v 70 25.02 6
v 70 25.02 6.03
f 1307 1311 1309 1305
f 1310 1312 1308 1306
f 1309 1310 1306 1305
f 1308 1312 1311 1307
f 1306 1308 1307 1305
f 1311 1312 1310 1309
o car-s-0-body
usemtl vehicle
v 3 20.2 0.3
v 3 20.2 0.95
v 3 22 0.3
v 3 22 0.95
v 7.4 20.2 0.3
v 7.4 20.2 0.95
v 7.4 22 0.3
v 7.4 22 0.95
f 1315 1319 1317 1313
f 1318 1320 1316 1314
f 1317 1318 1314 1313
f 1316 1320 1319 1315
f 1314 1316 1315 1313
f 1319 1320 1318 1317
o car-s-0-cabin
usemtl glass
v 4.1 20.3 0.95
v 4.1 20.3 1.45
v 4.1 21.9 0.95
v 4.1 21.9 1.45
v 6.432 20.3 0.95
v 6.432 20.3 1.45
v 6.432 21.9 0.95
v 6.432 21.9 1.45
f 1323 1327 1325 1321
f 1326 1328 1324 1322
f 1325 1326 1322 1321
f 1324 1328 1327 1323
f 1322 1324 1323 1321
f 1327 1328 1326 1325
o car-s-0-wheel-0
usemtl rubber
v 3.5 20.2 0
v 3.5 20.2 0.62
v 3.5 20.42 0
v 3.5 20.42 0.62
v 4.14 20.2 0
v 4.14 20.2 0.62
v 4.14 20.42 0
v 4.14 20.42 0.62
f 1331 1335 1333 1329
f 1334 1336 1332 1330
f 1333 1334 1330 1329
f 1332 1336 1335 1331
f 1330 1332 1331 1329
f 1335 1336 1334 1333
o car-s-0-wheel-1
usemtl rubber
v 6.26 20.2 0
v 6.26 20.2 0.62
v 6.26 20.42 0
v 6.26 20.42 0.62
v 6.9 20.2 0
v 6.9 20.2 0.62
v 6.9 20.42 0
v 6.9 20.42 0.62
f 1339 1343 1341 1337
f 1342 1344 1340 1338
f 1341 1342 1338 1337
f 1340 1344 1343 1339
f 1338 1340 1339 1337
f 1343 1344 1342 1341
o car-s-0-wheel-2
usemtl rubber
v 3.5 21.78 0
v 3.5 21.78 0.62
v 3.5 22 0
v 3.5 22 0.62
v 4.14 21.78 0
v 4.14 21.78 0.62
v 4.14 22 0
v 4.14 22 0.62
f 1347 1351 1349 1345
f 1350 1352 1348 1346
f 1349 1350 1346 1345
f 1348 1352 1351 1347
f 1346 1348 1347 1345
f 1351 1352 1350 1349
o car-s-0-wheel-3
usemtl rubber
v 6.26 21.78 0
v 6.26 21.78 0.62
v 6.26 22 0
v 6.26 22 0.62
v 6.9 21.78 0
v 6.9 21.78 0.62
v 6.9 22 0
v 6.9 22 0.62
f 1355 1359 1357 1353
f 1358 1360 1356 1354
f 1357 1358 1354 1353
f 1356 1360 1359 1355
f 1354 1356 1355 1353
f 1359 1360 1358 1357
o car-s-1-body
usemtl vehicle
v 9 20.2 0.3
v 9 20.2 0.95
v 9 22 0.3
v 9 22 0.95
v 13.4 20.2 0.3
v 13.4 20.2 0.95
v 13.4 22 0.3
v 13.4 22 0.95
f 1363 1367 1365 1361
f 1366 1368 1364 1362
f 1365 1366 1362 1361
f 1364 1368 1367 1363
f 1362 1364 1363 1361
f 1367 1368 1366 1365
o car-s-1-cabin
usemtl glass
v 10.1 20.3 0.95
v 10.1 20.3 1.45
v 10.1 21.9 0.95
v 10.1 21.9 1.45
v 12.432 20.3 0.95
v 12.432 20.3 1.45
v 12.432 21.9 0.95
v 12.432 21.9 1.45
f 1371 1375 1373 1369
f 1374 1376 1372 1370
f 1373 1374 1370 1369
f 1372 1376 1375 1371
f 1370 1372 1371 1369
f 1375 1376 1374 1373
o car-s-1-wheel-0
usemtl rubber
v 9.5 20.2 0
v 9.5 20.2 0.62
v 9.5 20.42 0
v 9.5 20.42 0.62
v 10.14 20.2 0
v 10.14 20.2 0.62
v 10.14 20.42 0
v 10.14 20.42 0.62
f 1379 1383 1381 1377
f 1382 1384 1380 1378
f 1381 1382 1378 1377
f 1380 1384 1383 1379
f 1378 1380 1379 1377
f 1383 1384 1382 1381
o car-s-1-wheel-1
usemtl rubber
v 12.26 20.2 0
v 12.26 20.2 0.62
v 12.26 20.42 0
v 12.26 20.42 0.62
v 12.9 20.2 0
v 12.9 20.2 0.62
v 12.9 20.42 0
v 12.9 20.42 0.62
f 1387 1391 1389 1385
f 1390 1392 1388 1386
f 1389 1390 1386 1385
f 1388 1392 1391 1387
f 1386 1388 1387 1385
f 1391 1392 1390 1389
o car-s-1-wheel-2
usemtl rubber
v 9.5 21.78 0
v 9.5 21.78 0.62
v 9.5 22 0
v 9.5 22 0.62
v 10.14 21.78 0
v 10.14 21.78 0.62
v 10.14 22 0
v 10.14 22 0.62
f 1395 1399 1397 1393
f 1398 1400 1396 1394
f 1397 1398 1394 1393
f 1396 1400 1399 1395
f 1394 1396 1395 1393
f 1399 1400 1398 1397
o car-s-1-wheel-3
usemtl rubber
v 12.26 21.78 0
v 12.26 21.78 0.62
v 12.26 22 0
v 12.26 22 0.62
v 12.9 21.78 0
v 12.9 21.78 0.62
v 12.9 22 0
v 12.9 22 0.62
f 1403 1407 1405 1401
f 1406 1408 1404 1402
f 1405 1406 1402 1401
f 1404 1408 1407 1403
f 1402 1404 1403 1401
f 1407 1408 1406 1405
o car-s-2-body
usemtl vehicle
v 15 20.2 0.3
v 15 20.2 0.95
v 15 22 0.3
v 15 22 0.95
v 19.4 20.2 0.3
v 19.4 20.2 0.95
v 19.4 22 0.3
v 19.4 22 0.95
f 1411 1415 1413 1409
f 1414 1416 1412 1410
f 1413 1414 1410 1409
f 1412 1416 1415 1411
f 1410 1412 1411 1409
f 1415 1416 1414 1413
o car-s-2-cabin
usemtl glass
v 16.1 20.3 0.95
v 16.1 20.3 1.45
v 16.1 21.9 0.95
v 16.1 21.9 1.45
v 18.432 20.3 0.95
v 18.432 20.3 1.45
v 18.432 21.9 0.95
v 18.432 21.9 1.45
f 1419 1423 1421 1417
f 1422 1424 1420 1418
f 1421 1422 1418 1417
f 1420 1424 1423 1419
f 1418 1420 1419 1417
f 1423 1424 1422 1421
o car-s-2-wheel-0
usemtl rubber
v 15.5 20.2 0
v 15.5 20.2 0.62
v 15.5 20.42 0
v 15.5 20.42 0.62
v 16.14 20.2 0
v 16.14 20.2 0.62
v 16.14 20.42 0
v 16.14 20.42 0.62
f 1427 1431 1429 1425
f 1430 1432 1428 1426
f 1429 1430 1426 1425
f 1428 1432 1431 1427
f 1426 1428 1427 1425
f 1431 1432 1430 1429
o car-s-2-wheel-1
usemtl rubber
v 18.26 20.2 0
v 18.26 20.2 0.62
v 18.26 20.42 0
v 18.26 20.42 0.62
v 18.9 20.2 0
v 18.9 20.2 0.62
v 18.9 20.42 0
v 18.9 20.42 0.62
f 1435 1439 1437 1433
f 1438 1440 1436 1434
f 1437 1438 1434 1433
f 1436 1440 1439 1435
f 1434 1436 1435 1433
f 1439 1440 1438 1437
o car-s-2-wheel-2
usemtl rubber
v 15.5 21.78 0
v 15.5 21.78 0.62
v 15.5 22 0
v 15.5 22 0.62
v 16.14 21.78 0
v 16.14 21.78 0.62
v 16.14 22 0
v 16.14 22 0.62
f 1443 1447 1445 1441
f 1446 1448 1444 1442
f 1445 1446 1442 1441
f 1444 1448 1447 1443
f 1442 1444 1443 1441
f 1447 1448 1446 1445
o car-s-2-wheel-3
usemtl rubber
v 18.26 21.78 0
v 18.26 21.78 0.62
v 18.26 22 0
v 18.26 22 0.62
v 18.9 21.78 0
v 18.9 21.78 0.62
v 18.9 22 0
v 18.9 22 0.62
f 1451 1455 1453 1449
f 1454 1456 1452 1450
f 1453 1454 1450 1449
f 1452 1456 1455 1451
f 1450 1452 1451 1449
f 1455 1456 1454 1453
o car-s-3-body
usemtl vehicle
v 21.5 20.2 0.3
v 21.5 20.2 0.95
v 21.5 22 0.3
v 21.5 22 0.95
v 25.9 20.2 0.3
v 25.9 20.2 0.95
v 25.9 22 0.3
v 25.9 22 0.95
f 1459 1463 1461 1457
f 1462 1464 1460 1458
f 1461 1462 1458 1457
f 1460 1464 1463 1459
f 1458 1460 1459 1457
f 1463 1464 1462 1461
o car-s-3-cabin
usemtl glass
v 22.6 20.3 0.95
v 22.6 20.3 1.45
v 22.6 21.9 0.95
v 22.6 21.9 1.45
v 24.932 20.3 0.95
v 24.932 20.3 1.45
v 24.932 21.9 0.95
v 24.932 21.9 1.45
f 1467 1471 1469 1465
f 1470 1472 1468 1466
f 1469 1470 1466 1465
f 1468 1472 1471 1467
f 1466 1468 1467 1465
f 1471 1472 1470 1469
o car-s-3-wheel-0
usemtl rubber
v 22 20.2 0
v 22 20.2 0.62
v 22 20.42 0
v 22 20.42 0.62
v 22.64 20.2 0
v 22.64 20.2 0.62
v 22.64 20.42 0
v 22.64 20.42 0.62
f 1475 1479 1477 1473
f 1478 1480 1476 1474
f 1477 1478 1474 1473
f 1476 1480 1479 1475
f 1474 1476 1475 1473
f 1479 1480 1478 1477
o car-s-3-wheel-1
usemtl rubber
v 24.76 20.2 0
v 24.76 20.2 0.62
v 24.76 20.42 0
v 24.76 20.42 0.62
v 25.4 20.2 0
v 25.4 20.2 0.62
v 25.4 20.42 0
v 25.4 20.42 0.62
f 1483 1487 1485 1481
f 1486 1488 1484 1482
f 1485 1486 1482 1481
f 1484 1488 1487 1483
f 1482 1484 1483 1481
f 1487 1488 1486 1485
o car-s-3-wheel-2
usemtl rubber
v 22 21.78 0
v 22 21.78 0.62
v 22 22 0
v 22 22 0.62
v 22.64 21.78 0
v 22.64 21.78 0.62
v 22.64 22 0
v 22.64 22 0.62
f 1491 1495 1493 1489
f 1494 1496 1492 1490
f 1493 1494 1490 1489
f 1492 1496 1495 1491
f 1490 1492 1491 1489
f 1495 1496 1494 1493
o car-s-3-wheel-3
usemtl rubber
v 24.76 21.78 0
v 24.76 21.78 0.62
v 24.76 22 0
v 24.76 22 0.62
v 25.4 21.78 0
v 25.4 21.78 0.62
v 25.4 22 0
v 25.4 22 0.62
f 1499 1503 1501 1497
f 1502 1504 1500 1498
f 1501 1502 1498 1497
f 1500 1504 1503 1499
f 1498 1500 1499 1497
f 1503 1504 1502 1501
o car-n-0-body
usemtl vehicle
v 5 28 0.3
v 5 28 0.95
v 5 29.8 0.3
v 5 29.8 0.95
v 9.4 28 0.3
v 9.4 28 0.95
v 9.4 29.8 0.3
v 9.4 29.8 0.95
f 1507 1511 1509 1505
f 1510 1512 1508 1506
f 1509 1510 1506 1505
f 1508 1512 1511 1507
f 1506 1508 1507 1505
f 1511 1512 1510 1509
o car-n-0-cabin
usemtl glass
v 6.1 28.1 0.95
v 6.1 28.1 1.45
v 6.1 29.7 0.95
v 6.1 29.7 1.45
v 8.432 28.1 0.95
v 8.432 28.1 1.45
v 8.432 29.7 0.95
v 8.432 29.7 1.45
f 1515 1519 1517 1513
f 1518 1520 1516 1514
f 1517 1518 1514 1513
f 1516 1520 1519 1515
f 1514 1516 1515 1513
f 1519 1520 1518 1517
o car-n-0-wheel-0
usemtl rubber
v 5.5 28 0
v 5.5 28 0.62
v 5.5 28.22 0
v 5.5 28.22 0.62
v 6.14 28 0
v 6.14 28 0.62
v 6.14 28.22 0
v 6.14 28.22 0.62
f 1523 1527 1525 1521
f 1526 1528 1524 1522
f 1525 1526 1522 1521
f 1524 1528 1527 1523
f 1522 1524 1523 1521
f 1527 1528 1526 1525
o car-n-0-wheel-1
usemtl rubber
v 8.26 28 0
v 8.26 28 0.62
v 8.26 28.22 0
v 8.26 28.22 0.62
v 8.9 28 0
v 8.9 28 0.62
v 8.9 28.22 0
v 8.9 28.22 0.62
f 1531 1535 1533 1529
f 1534 1536 1532 1530
f 1533 1534 1530 1529
f 1532 1536 1535 1531
f 1530 1532 1531 1529
f 1535 1536 1534 1533
o car-n-0-wheel-2
usemtl rubber
v 5.5 29.58 0
v 5.5 29.58 0.62
v 5.5 29.8 0
v 5.5 29.8 0.62
v 6.14 29.58 0
v 6.14 29.58 0.62
v 6.14 29.8 0
v 6.14 29.8 0.62
f 1539 1543 1541 1537
f 1542 1544 1540 1538
f 1541 1542 1538 1537
f 1540 1544 1543 1539
f 1538 1540 1539 1537
f 1543 1544 1542 1541
o car-n-0-wheel-3
usemtl rubber
v 8.26 29.58 0
v 8.26 29.58 0.62
v 8.26 29.8 0
v 8.26 29.8 0.62
v 8.9 29.58 0
v 8.9 29.58 0.62
v 8.9 29.8 0
v 8.9 29.8 0.62
f 1547 1551 1549 1545
f 1550 1552 1548 1546
f 1549 1550 1546 1545
f 1548 1552 1551 1547
f 1546 1548 1547 1545
f 1551 1552 1550 1549
o car-n-1-body
usemtl vehicle
v 12 28 0.3
v 12 28 0.95
v 12 29.8 0.3
v 12 29.8 0.95
v 16.4 28 0.3
v 16.4 28 0.95
v 16.4 29.8 0.3
v 16.4 29.8 0.95
f 1555 1559 1557 1553
f 1558 1560 1556 1554
f 1557 1558 1554 1553
f 1556 1560 1559 1555
f 1554 1556 1555 1553
f 1559 1560 1558 1557
o car-n-1-cabin
usemtl glass
v 13.1 28.1 0.95
v 13.1 28.1 1.45
v 13.1 29.7 0.95
v 13.1 29.7 1.45
v 15.432 28.1 0.95
v 15.432 28.1 1.45
v 15.432 29.7 0.95
v 15.432 29.7 1.45
f 1563 1567 1565 1561
f 1566 1568 1564 1562
f 1565 1566 1562 1561
f 1564 1568 1567 1563
f 1562 1564 1563 1561
f 1567 1568 1566 1565
o car-n-1-wheel-0
usemtl rubber
v 12.5 28 0
v 12.5 28 0.62
v 12.5 28.22 0
v 12.5 28.22 0.62
v 13.14 28 0
v 13.14 28 0.62
v 13.14 28.22 0
v 13.14 28.22 0.62
f 1571 1575 1573 1569
f 1574 1576 1572 1570
f 1573 1574 1570 1569
f 1572 1576 1575 1571
f 1570 1572 1571 1569
f 1575 1576 1574 1573
o car-n-1-wheel-1
usemtl rubber
v 15.26 28 0
v 15.26 28 0.62
v 15.26 28.22 0
v 15.26 28.22 0.62
v 15.9 28 0
v 15.9 28 0.62
v 15.9 28.22 0
v 15.9 28.22 0.62
f 1579 1583 1581 1577
f 1582 1584 1580 1578
f 1581 1582 1578 1577
f 1580 1584 1583 1579
f 1578 1580 1579 1577
f 1583 1584 1582 1581
o car-n-1-wheel-2
usemtl rubber
v 12.5 29.58 0
v 12.5 29.58 0.62
v 12.5 29.8 0
v 12.5 29.8 0.62
v 13.14 29.58 0
v 13.14 29.58 0.62
v 13.14 29.8 0
v 13.14 29.8 0.62
f 1587 1591 1589 1585
f 1590 1592 1588 1586
f 1589 1590 1586 1585
f 1588 1592 1591 1587
f 1586 1588 1587 1585
f 1591 1592 1590 1589
o car-n-1-wheel-3
usemtl rubber
v 15.26 29.58 0
v 15.26 29.58 0.62
v 15.26 29.8 0
v 15.26 29.8 0.62
v 15.9 29.58 0
v 15.9 29.58 0.62
v 15.9 29.8 0
v 15.9 29.8 0.62
f 1595 1599 1597 1593
f 1598 1600 1596 1594
f 1597 1598 1594 1593
f 1596 1600 1599 1595
f 1594 1596 1595 1593
f 1599 1600 1598 1597
o car-n-2-body
usemtl vehicle
v 50 28 0.3
v 50 28 0.95
v 50 29.8 0.3
v 50 29.8 0.95
v 54.4 28 0.3
v 54.4 28 0.95
v 54.4 29.8 0.3
v 54.4 29.8 0.95
f 1603 1607 1605 1601
f 1606 1608 1604 1602
f 1605 1606 1602 1601
f 1604 1608 1607 1603
f 1602 1604 1603 1601
f 1607 1608 1606 1605
o car-n-2-cabin
usemtl glass
v 51.1 28.1 0.95
v 51.1 28.1 1.45
v 51.1 29.7 0.95
v 51.1 29.7 1.45
v 53.432 28.1 0.95
v 53.432 28.1 1.45
v 53.432 29.7 0.95
v 53.432 29.7 1.45
f 1611 1615 1613 1609
f 1614 1616 1612 1610
f 1613 1614 1610 1609
f 1612 1616 1615 1611
f 1610 1612 1611 1609
f 1615 1616 1614 1613
o car-n-2-wheel-0
usemtl rubber
v 50.5 28 0
v 50.5 28 0.62
v 50.5 28.22 0
v 50.5 28.22 0.62
v 51.14 28 0
v 51.14 28 0.62
v 51.14 28.22 0
v 51.14 28.22 0.62
f 1619 1623 1621 1617
f 1622 1624 1620 1618
f 1621 1622 1618 1617
f 1620 1624 1623 1619
f 1618 1620 1619 1617
f 1623 1624 1622 1621
o car-n-2-wheel-1
usemtl rubber
v 53.26 28 0
v 53.26 28 0.62
v 53.26 28.22 0
v 53.26 28.22 0.62
v 53.9 28 0
v 53.9 28 0.62
v 53.9 28.22 0
v 53.9 28.22 0.62
f 1627 1631 1629 1625
f 1630 1632 1628 1626
f 1629 1630 1626 1625
f 1628 1632 1631 1627
f 1626 1628 1627 1625
f 1631 1632 1630 1629
o car-n-2-wheel-2
usemtl rubber
v 50.5 29.58 0
v 50.5 29.58 0.62
v 50.5 29.8 0
v 50.5 29.8 0.62
v 51.14 29.58 0
v 51.14 29.58 0.62
v 51.14 29.8 0
v 51.14 29.8 0.62
f 1635 1639 1637 1633
f 1638 1640 1636 1634
f 1637 1638 1634 1633
f 1636 1640 1639 1635
f 1634 1636 1635 1633
f 1639 1640 1638 1637
o car-n-2-wheel-3
usemtl rubber
v 53.26 29.58 0
v 53.26 29.58 0.62
v 53.26 29.8 0
v 53.26 29.8 0.62
v 53.9 29.58 0
v 53.9 29.58 0.62
v 53.9 29.8 0
v 53.9 29.8 0.62
f 1643 1647 1645 1641
f 1646 1648 1644 1642
f 1645 1646 1642 1641
f 1644 1648 1647 1643
f 1642 1644 1643 1641
f 1647 1648 1646 1645
o car-n-3-body
usemtl vehicle
v 58 28 0.3
v 58 28 0.95
v 58 29.8 0.3
v 58 29.8 0.95
v 62.4 28 0.3
v 62.4 28 0.95
v 62.4 29.8 0.3
v 62.4 29.8 0.95
f 1651 1655 1653 1649
f 1654 1656 1652 1650
f 1653 1654 1650 1649
f 1652 1656 1655 1651
f 1650 1652 1651 1649
f 1655 1656 1654 1653
o car-n-3-cabin
usemtl glass
v 59.1 28.1 0.95
v 59.1 28.1 1.45
v 59.1 29.7 0.95
v 59.1 29.7 1.45
v 61.432 28.1 0.95
v 61.432 28.1 1.45
v 61.432 29.7 0.95
v 61.432 29.7 1.45
f 1659 1663 1661 1657
f 1662 1664 1660 1658
f 1661 1662 1658 1657
f 1660 1664 1663 1659
f 1658 1660 1659 1657
f 1663 1664 1662 1661
o car-n-3-wheel-0
usemtl rubber
v 58.5 28 0
v 58.5 28 0.62
v 58.5 28.22 0
v 58.5 28.22 0.62
v 59.14 28 0
v 59.14 28 0.62
v 59.14 28.22 0
v 59.14 28.22 0.62
f 1667 1671 1669 1665
f 1670 1672 1668 1666
f 1669 1670 1666 1665
f 1668 1672 1671 1667
f 1666 1668 1667 1665
f 1671 1672 1670 1669
o car-n-3-wheel-1
usemtl rubber
v 61.26 28 0
v 61.26 28 0.62
v 61.26 28.22 0
v 61.26 28.22 0.62
v 61.9 28 0
v 61.9 28 0.62
v 61.9 28.22 0
v 61.9 28.22 0.62
f 1675 1679 1677 1673
f 1678 1680 1676 1674
f 1677 1678 1674 1673
f 1676 1680 1679 1675
f 1674 1676 1675 1673
f 1679 1680 1678 1677
o car-n-3-wheel-2
usemtl rubber
v 58.5 29.58 0
v 58.5 29.58 0.62
v 58.5 29.8 0
v 58.5 29.8 0.62
v 59.14 29.58 0
v 59.14 29.58 0.62
v 59.14 29.8 0
v 59.14 29.8 0.62
f 1683 1687 1685 1681
f 1686 1688 1684 1682
f 1685 1686 1682 1681
f 1684 1688 1687 1683
f 1682 1684 1683 1681
f 1687 1688 1686 1685
o car-n-3-wheel-3
usemtl rubber
v 61.26 29.58 0
v 61.26 29.58 0.62
v 61.26 29.8 0
v 61.26 29.8 0.62
v 61.9 29.58 0
v 61.9 29.58 0.62
v 61.9 29.8 0
v 61.9 29.8 0.62
f 1691 1695 1693 1689
f 1694 1696 1692 1690
f 1693 1694 1690 1689
f 1692 1696 1695 1691
f 1690 1692 1691 1689
f 1695 1696 1694 1693
o car-n-4-body
usemtl vehicle
v 64.5 28 0.3
v 64.5 28 0.95
v 64.5 29.8 0.3
v 64.5 29.8 0.95
v 68.9 28 0.3
v 68.9 28 0.95
v 68.9 29.8 0.3
v 68.9 29.8 0.95
f 1699 1703 1701 1697
f 1702 1704 1700 1698
f 1701 1702 1698 1697
f 1700 1704 1703 1699
f 1698 1700 1699 1697
f 1703 1704 1702 1701
o car-n-4-cabin
usemtl glass
v 65.6 28.1 0.95
v 65.6 28.1 1.45
v 65.6 29.7 0.95
v 65.6 29.7 1.45
v 67.932 28.1 0.95
v 67.932 28.1 1.45
v 67.932 29.7 0.95
v 67.932 29.7 1.45
f 1707 1711 1709 1705
f 1710 1712 1708 1706
f 1709 1710 1706 1705
f 1708 1712 1711 1707
f 1706 1708 1707 1705
f 1711 1712 1710 1709
o car-n-4-wheel-0
usemtl rubber
v 65 28 0
v 65 28 0.62
v 65 28.22 0
v 65 28.22 0.62
v 65.64 28 0
v 65.64 28 0.62
v 65.64 28.22 0
v 65.64 28.22 0.62
f 1715 1719 1717 1713
f 1718 1720 1716 1714
f 1717 1718 1714 1713
f 1716 1720 1719 1715
f 1714 1716 1715 1713
f 1719 1720 1718 1717
o car-n-4-wheel-1
usemtl rubber
v 67.76 28 0
v 67.76 28 0.62
v 67.76 28.22 0
v 67.76 28.22 0.62
v 68.4 28 0
v 68.4 28 0.62
v 68.4 28.22 0
v 68.4 28.22 0.62
f 1723 1727 1725 1721
f 1726 1728 1724 1722
f 1725 1726 1722 1721
f 1724 1728 1727 1723
f 1722 1724 1723 1721
f 1727 1728 1726 1725
o car-n-4-wheel-2
usemtl rubber
v 65 29.58 0
v 65 29.58 0.62
v 65 29.8 0
v 65 29.8 0.62
v 65.64 29.58 0
v 65.64 29.58 0.62
v 65.64 29.8 0
v 65.64 29.8 0.62
f 1731 1735 1733 1729
f 1734 1736 1732 1730
f 1733 1734 1730 1729
f 1732 1736 1735 1731
f 1730 1732 1731 1729
f 1735 1736 1734 1733
o car-n-4-wheel-3
usemtl rubber
v 67.76 29.58 0
v 67.76 29.58 0.62
v 67.76 29.8 0
v 67.76 29.8 0.62
v 68.4 29.58 0
v 68.4 29.58 0.62
v 68.4 29.8 0
v 68.4 29.8 0.62
f 1739 1743 1741 1737
f 1742 1744 1740 1738
f 1741 1742 1738 1737
f 1740 1744 1743 1739
f 1738 1740 1739 1737
f 1743 1744 1742 1741
o bus-body
usemtl bus
v 44 20.3 0.35
v 44 20.3 3.1
v 44 22.8 0.35
v 44 22.8 3.1
v 56 20.3 0.35
v 56 20.3 3.1
v 56 22.8 0.35
v 56 22.8 3.1
f 1747 1751 1749 1745
f 1750 1752 1748 1746
f 1749 1750 1746 1745
f 1748 1752 1751 1747
f 1746 1748 1747 1745
f 1751 1752 1750 1749
o bus-windows
usemtl glass
v 44.4 20.25 1.4
v 44.4 20.25 2.5
v 44.4 22.85 1.4
v 44.4 22.85 2.5
v 55.6 20.25 1.4
v 55.6 20.25 2.5
v 55.6 22.85 1.4
v 55.6 22.85 2.5
f 1755 1759 1757 1753
f 1758 1760 1756 1754
f 1757 1758 1754 1753
f 1756 1760 1759 1755
f 1754 1756 1755 1753
f 1759 1760 1758 1757
o bus-chassis
usemtl rubber
v 44.6 20.5 0
v 44.6 20.5 0.35
v 44.6 22.6 0
v 44.6 22.6 0.35
v 55.4 20.5 0
v 55.4 20.5 0.35
v 55.4 22.6 0
v 55.4 22.6 0.35
f 1763 1767 1765 1761
f 1766 1768 1764 1762
f 1765 1766 1762 1761
f 1764 1768 1767 1763
f 1762 1764 1763 1761
f 1767 1768 1766 1765
o delivery-van-cargo
usemtl vehicle
v 36.8 36 0.35
v 36.8 36 2.7
v 36.8 40.032 0.35
v 36.8 40.032 2.7
v 38.9 36 0.35
v 38.9 36 2.7
v 38.9 40.032 0.35
v 38.9 40.032 2.7
f 1771 1775 1773 1769
f 1774 1776 1772 1770
f 1773 1774 1770 1769
f 1772 1776 1775 1771
f 1770 1772 1771 1769
f 1775 1776 1774 1773
o delivery-van-cab
usemtl vehicle
v 36.8 40.032 0.35
v 36.8 40.032 2.106
v 36.8 41.6 0.35
v 36.8 41.6 2.106
v 38.9 40.032 0.35
v 38.9 40.032 2.106
v 38.9 41.6 0.35
v 38.9 41.6 2.106
f 1779 1783 1781 1777
f 1782 1784 1780 1778
f 1781 1782 1778 1777
f 1780 1784 1783 1779
f 1778 1780 1779 1777
f 1783 1784 1782 1781
o delivery-van-chassis
usemtl rubber
v 36.8 36.3 0
v 36.8 36.3 0.35
v 36.8 41.3 0
v 36.8 41.3 0.35
v 38.9 36.3 0
v 38.9 36.3 0.35
v 38.9 41.3 0
v 38.9 41.3 0.35
f 1787 1791 1789 1785
f 1790 1792 1788 1786
f 1789 1790 1786 1785
f 1788 1792 1791 1787
f 1786 1788 1787 1785
f 1791 1792 1790 1789
o ground-visual-only
usemtl ground
v 0 0 0
v 70 0 0
v 70 50 0
v 0 50 0
f 1793 1794 1795 1796
