# architecture-0.1; original synthetic architecture, meters, Z up
mtllib apartment.mtl
o south-wall
usemtl wall
v 0 0 0
v 0 0 3.2
v 0 0.2 0
v 0 0.2 3.2
v 18 0 0
v 18 0 3.2
v 18 0.2 0
v 18 0.2 3.2
f 3 7 5 1
f 6 8 4 2
f 5 6 2 1
f 4 8 7 3
f 2 4 3 1
f 7 8 6 5
o north-wall
usemtl wall
v 0 13.8 0
v 0 13.8 3.2
v 0 14 0
v 0 14 3.2
v 18 13.8 0
v 18 13.8 3.2
v 18 14 0
v 18 14 3.2
f 11 15 13 9
f 14 16 12 10
f 13 14 10 9
f 12 16 15 11
f 10 12 11 9
f 15 16 14 13
o west-wall
usemtl wall
v 0 0.2 0
v 0 0.2 3.2
v 0 13.8 0
v 0 13.8 3.2
v 0.2 0.2 0
v 0.2 0.2 3.2
v 0.2 13.8 0
v 0.2 13.8 3.2
f 19 23 21 17
f 22 24 20 18
f 21 22 18 17
f 20 24 23 19
f 18 20 19 17
f 23 24 22 21
o east-wall
usemtl wall
v 17.8 0.2 0
v 17.8 0.2 3.2
v 17.8 13.8 0
v 17.8 13.8 3.2
v 18 0.2 0
v 18 0.2 3.2
v 18 13.8 0
v 18 13.8 3.2
f 27 31 29 25
f 30 32 28 26
f 29 30 26 25
f 28 32 31 27
f 26 28 27 25
f 31 32 30 29
o apartment-0-0-door-left
usemtl wall
v 0.2 5.8 0
v 0.2 5.8 3.2
v 0.2 6 0
v 0.2 6 3.2
v 2.55 5.8 0
v 2.55 5.8 3.2
v 2.55 6 0
v 2.55 6 3.2
f 35 39 37 33
f 38 40 36 34
f 37 38 34 33
f 36 40 39 35
f 34 36 35 33
f 39 40 38 37
o apartment-0-0-door-right
usemtl wall
v 3.45 5.8 0
v 3.45 5.8 3.2
v 3.45 6 0
v 3.45 6 3.2
v 5.8 5.8 0
v 5.8 5.8 3.2
v 5.8 6 0
v 5.8 6 3.2
f 43 47 45 41
f 46 48 44 42
f 45 46 42 41
f 44 48 47 43
f 42 44 43 41
f 47 48 46 45
o apartment-0-0-door-lintel
usemtl wall
v 2.55 5.8 2.1
v 2.55 5.8 3.2
v 2.55 6 2.1
v 2.55 6 3.2
v 3.45 5.8 2.1
v 3.45 5.8 3.2
v 3.45 6 2.1
v 3.45 6 3.2
f 51 55 53 49
f 54 56 52 50
f 53 54 50 49
f 52 56 55 51
f 50 52 51 49
f 55 56 54 53
o apartment-0-1-door-left
usemtl wall
v 6.2 5.8 0
v 6.2 5.8 3.2
v 6.2 6 0
v 6.2 6 3.2
v 8.55 5.8 0
v 8.55 5.8 3.2
v 8.55 6 0
v 8.55 6 3.2
f 59 63 61 57
f 62 64 60 58
f 61 62 58 57
f 60 64 63 59
f 58 60 59 57
f 63 64 62 61
o apartment-0-1-door-right
usemtl wall
v 9.45 5.8 0
v 9.45 5.8 3.2
v 9.45 6 0
v 9.45 6 3.2
v 11.8 5.8 0
v 11.8 5.8 3.2
v 11.8 6 0
v 11.8 6 3.2
f 67 71 69 65
f 70 72 68 66
f 69 70 66 65
f 68 72 71 67
f 66 68 67 65
f 71 72 70 69
o apartment-0-1-door-lintel
usemtl wall
v 8.55 5.8 2.1
v 8.55 5.8 3.2
v 8.55 6 2.1
v 8.55 6 3.2
v 9.45 5.8 2.1
v 9.45 5.8 3.2
v 9.45 6 2.1
v 9.45 6 3.2
f 75 79 77 73
f 78 80 76 74
f 77 78 74 73
f 76 80 79 75
f 74 76 75 73
f 79 80 78 77
o apartment-0-2-door-left
usemtl wall
v 12.2 5.8 0
v 12.2 5.8 3.2
v 12.2 6 0
v 12.2 6 3.2
v 14.55 5.8 0
v 14.55 5.8 3.2
v 14.55 6 0
v 14.55 6 3.2
f 83 87 85 81
f 86 88 84 82
f 85 86 82 81
f 84 88 87 83
f 82 84 83 81
f 87 88 86 85
o apartment-0-2-door-right
usemtl wall
v 15.45 5.8 0
v 15.45 5.8 3.2
v 15.45 6 0
v 15.45 6 3.2
v 17.8 5.8 0
v 17.8 5.8 3.2
v 17.8 6 0
v 17.8 6 3.2
f 91 95 93 89
f 94 96 92 90
f 93 94 90 89
f 92 96 95 91
f 90 92 91 89
f 95 96 94 93
o apartment-0-2-door-lintel
usemtl wall
v 14.55 5.8 2.1
v 14.55 5.8 3.2
v 14.55 6 2.1
v 14.55 6 3.2
v 15.45 5.8 2.1
v 15.45 5.8 3.2
v 15.45 6 2.1
v 15.45 6 3.2
f 99 103 101 97
f 102 104 100 98
f 101 102 98 97
f 100 104 103 99
f 98 100 99 97
f 103 104 102 101
o apartment-1-0-door-left
usemtl wall
v 0.2 8 0
v 0.2 8 3.2
v 0.2 8.2 0
v 0.2 8.2 3.2
v 2.55 8 0
v 2.55 8 3.2
v 2.55 8.2 0
v 2.55 8.2 3.2
f 107 111 109 105
f 110 112 108 106
f 109 110 106 105
f 108 112 111 107
f 106 108 107 105
f 111 112 110 109
o apartment-1-0-door-right
usemtl wall
v 3.45 8 0
v 3.45 8 3.2
v 3.45 8.2 0
v 3.45 8.2 3.2
v 5.8 8 0
v 5.8 8 3.2
v 5.8 8.2 0
v 5.8 8.2 3.2
f 115 119 117 113
f 118 120 116 114
f 117 118 114 113
f 116 120 119 115
f 114 116 115 113
f 119 120 118 117
o apartment-1-0-door-lintel
usemtl wall
v 2.55 8 2.1
v 2.55 8 3.2
v 2.55 8.2 2.1
v 2.55 8.2 3.2
v 3.45 8 2.1
v 3.45 8 3.2
v 3.45 8.2 2.1
v 3.45 8.2 3.2
f 123 127 125 121
f 126 128 124 122
f 125 126 122 121
f 124 128 127 123
f 122 124 123 121
f 127 128 126 125
o apartment-1-1-door-left
usemtl wall
v 6.2 8 0
v 6.2 8 3.2
v 6.2 8.2 0
v 6.2 8.2 3.2
v 8.55 8 0
v 8.55 8 3.2
v 8.55 8.2 0
v 8.55 8.2 3.2
f 131 135 133 129
f 134 136 132 130
f 133 134 130 129
f 132 136 135 131
f 130 132 131 129
f 135 136 134 133
o apartment-1-1-door-right
usemtl wall
v 9.45 8 0
v 9.45 8 3.2
v 9.45 8.2 0
v 9.45 8.2 3.2
v 11.8 8 0
v 11.8 8 3.2
v 11.8 8.2 0
v 11.8 8.2 3.2
f 139 143 141 137
f 142 144 140 138
f 141 142 138 137
f 140 144 143 139
f 138 140 139 137
f 143 144 142 141
o apartment-1-1-door-lintel
usemtl wall
v 8.55 8 2.1
v 8.55 8 3.2
v 8.55 8.2 2.1
v 8.55 8.2 3.2
v 9.45 8 2.1
v 9.45 8 3.2
v 9.45 8.2 2.1
v 9.45 8.2 3.2
f 147 151 149 145
f 150 152 148 146
f 149 150 146 145
f 148 152 151 147
f 146 148 147 145
f 151 152 150 149
o apartment-1-2-door-left
usemtl wall
v 12.2 8 0
v 12.2 8 3.2
v 12.2 8.2 0
v 12.2 8.2 3.2
v 14.55 8 0
v 14.55 8 3.2
v 14.55 8.2 0
v 14.55 8.2 3.2
f 155 159 157 153
f 158 160 156 154
f 157 158 154 153
f 156 160 159 155
f 154 156 155 153
f 159 160 158 157
o apartment-1-2-door-right
usemtl wall
v 15.45 8 0
v 15.45 8 3.2
v 15.45 8.2 0
v 15.45 8.2 3.2
v 17.8 8 0
v 17.8 8 3.2
v 17.8 8.2 0
v 17.8 8.2 3.2
f 163 167 165 161
f 166 168 164 162
f 165 166 162 161
f 164 168 167 163
f 162 164 163 161
f 167 168 166 165
o apartment-1-2-door-lintel
usemtl wall
v 14.55 8 2.1
v 14.55 8 3.2
v 14.55 8.2 2.1
v 14.55 8.2 3.2
v 15.45 8 2.1
v 15.45 8 3.2
v 15.45 8.2 2.1
v 15.45 8.2 3.2
f 171 175 173 169
f 174 176 172 170
f 173 174 170 169
f 172 176 175 171
f 170 172 171 169
f 175 176 174 173
o partition-5.8-0.2
usemtl wall
v 5.8 0.2 0
v 5.8 0.2 3.2
v 5.8 5.8 0
v 5.8 5.8 3.2
v 6 0.2 0
v 6 0.2 3.2
v 6 5.8 0
v 6 5.8 3.2
f 179 183 181 177
f 182 184 180 178
f 181 182 178 177
f 180 184 183 179
f 178 180 179 177
f 183 184 182 181
o partition-5.8-8.2
usemtl wall
v 5.8 8.2 0
v 5.8 8.2 3.2
v 5.8 13.8 0
v 5.8 13.8 3.2
v 6 8.2 0
v 6 8.2 3.2
v 6 13.8 0
v 6 13.8 3.2
f 187 191 189 185
f 190 192 188 186
f 189 190 186 185
f 188 192 191 187
f 186 188 187 185
f 191 192 190 189
o partition-11.8-0.2
usemtl wall
v 11.8 0.2 0
v 11.8 0.2 3.2
v 11.8 5.8 0
v 11.8 5.8 3.2
v 12 0.2 0
v 12 0.2 3.2
v 12 5.8 0
v 12 5.8 3.2
f 195 199 197 193
f 198 200 196 194
f 197 198 194 193
f 196 200 199 195
f 194 196 195 193
f 199 200 198 197
o partition-11.8-8.2
usemtl wall
v 11.8 8.2 0
v 11.8 8.2 3.2
v 11.8 13.8 0
v 11.8 13.8 3.2
v 12 8.2 0
v 12 8.2 3.2
v 12 13.8 0
v 12 13.8 3.2
f 203 207 205 201
f 206 208 204 202
f 205 206 202 201
f 204 208 207 203
f 202 204 203 201
f 207 208 206 205
o bed-0
usemtl furniture
v 0.6 0.8 0
v 0.6 0.8 0.65
v 0.6 3 0
v 0.6 3 0.65
v 2.3 0.8 0
v 2.3 0.8 0.65
v 2.3 3 0
v 2.3 3 0.65
f 211 215 213 209
f 214 216 212 210
f 213 214 210 209
f 212 216 215 211
f 210 212 211 209
f 215 216 214 213
o wardrobe-0
usemtl wood
v 4.4 0.5 0
v 4.4 0.5 2.3
v 4.4 2 0
v 4.4 2 2.3
v 5.5 0.5 0
v 5.5 0.5 2.3
v 5.5 2 0
v 5.5 2 2.3
f 219 223 221 217
f 222 224 220 218
f 221 222 218 217
f 220 224 223 219
f 218 220 219 217
f 223 224 222 221
o table-0
usemtl wood
v 0.8 10.5 0
v 0.8 10.5 0.9
v 0.8 12 0
v 0.8 12 0.9
v 2.4 10.5 0
v 2.4 10.5 0.9
v 2.4 12 0
v 2.4 12 0.9
f 227 231 229 225
f 230 232 228 226
f 229 230 226 225
f 228 232 231 227
f 226 228 227 225
f 231 232 230 229
o sofa-0
usemtl furniture
v 4.2 10 0
v 4.2 10 1
v 4.2 13 0
v 4.2 13 1
v 5.5 10 0
v 5.5 10 1
v 5.5 13 0
v 5.5 13 1
f 235 239 237 233
f 238 240 236 234
f 237 238 234 233
f 236 240 239 235
f 234 236 235 233
f 239 240 238 237
o bed-1
usemtl furniture
v 6.6 0.8 0
v 6.6 0.8 0.65
v 6.6 3 0
v 6.6 3 0.65
v 8.3 0.8 0
v 8.3 0.8 0.65
v 8.3 3 0
v 8.3 3 0.65
f 243 247 245 241
f 246 248 244 242
f 245 246 242 241
f 244 248 247 243
f 242 244 243 241
f 247 248 246 245
o wardrobe-1
usemtl wood
v 10.4 0.5 0
v 10.4 0.5 2.3
v 10.4 2 0
v 10.4 2 2.3
v 11.5 0.5 0
v 11.5 0.5 2.3
v 11.5 2 0
v 11.5 2 2.3
f 251 255 253 249
f 254 256 252 250
f 253 254 250 249
f 252 256 255 251
f 250 252 251 249
f 255 256 254 253
o table-1
usemtl wood
v 6.8 10.5 0
v 6.8 10.5 0.9
v 6.8 12 0
v 6.8 12 0.9
v 8.4 10.5 0
v 8.4 10.5 0.9
v 8.4 12 0
v 8.4 12 0.9
f 259 263 261 257
f 262 264 260 258
f 261 262 258 257
f 260 264 263 259
f 258 260 259 257
f 263 264 262 261
o sofa-1
usemtl furniture
v 10.2 10 0
v 10.2 10 1
v 10.2 13 0
v 10.2 13 1
v 11.5 10 0
v 11.5 10 1
v 11.5 13 0
v 11.5 13 1
f 267 271 269 265
f 270 272 268 266
f 269 270 266 265
f 268 272 271 267
f 266 268 267 265
f 271 272 270 269
o bed-2
usemtl furniture
v 12.6 0.8 0
v 12.6 0.8 0.65
v 12.6 3 0
v 12.6 3 0.65
v 14.3 0.8 0
v 14.3 0.8 0.65
v 14.3 3 0
v 14.3 3 0.65
f 275 279 277 273
f 278 280 276 274
f 277 278 274 273
f 276 280 279 275
f 274 276 275 273
f 279 280 278 277
o wardrobe-2
usemtl wood
v 16.4 0.5 0
v 16.4 0.5 2.3
v 16.4 2 0
v 16.4 2 2.3
v 17.5 0.5 0
v 17.5 0.5 2.3
v 17.5 2 0
v 17.5 2 2.3
f 283 287 285 281
f 286 288 284 282
f 285 286 282 281
f 284 288 287 283
f 282 284 283 281
f 287 288 286 285
o table-2
usemtl wood
v 12.8 10.5 0
v 12.8 10.5 0.9
v 12.8 12 0
v 12.8 12 0.9
v 14.4 10.5 0
v 14.4 10.5 0.9
v 14.4 12 0
v 14.4 12 0.9
f 291 295 293 289
f 294 296 292 290
f 293 294 290 289
f 292 296 295 291
f 290 292 291 289
f 295 296 294 293
o sofa-2
usemtl furniture
v 16.2 10 0
v 16.2 10 1
v 16.2 13 0
v 16.2 13 1
v 17.5 10 0
v 17.5 10 1
v 17.5 13 0
v 17.5 13 1
f 299 303 301 297
f 302 304 300 298
f 301 302 298 297
f 300 304 303 299
f 298 300 299 297
f 303 304 302 301
o ground-visual-only
usemtl ground
v 0 0 0
v 18 0 0
v 18 14 0
v 0 14 0
f 305 306 307 308
