# architecture-0.1; original synthetic architecture, meters, Z up
mtllib street-block.mtl
o south-building-0
usemtl building
v 0 0 0
v 0 0 7
v 0 12 0
v 0 12 7
v 12 0 0
v 12 0 7
v 12 12 0
v 12 12 7
f 3 7 5 1
f 6 8 4 2
f 5 6 2 1
f 4 8 7 3
f 2 4 3 1
f 7 8 6 5
o south-building-1
usemtl building
v 13 0 0
v 13 0 10
v 13 12 0
v 13 12 10
v 25 0 0
v 25 0 10
v 25 12 0
v 25 12 10
f 11 15 13 9
f 14 16 12 10
f 13 14 10 9
f 12 16 15 11
f 10 12 11 9
f 15 16 14 13
o south-building-2
usemtl building
v 35 0 0
v 35 0 8
v 35 12 0
v 35 12 8
v 46 0 0
v 46 0 8
v 46 12 0
v 46 12 8
f 19 23 21 17
f 22 24 20 18
f 21 22 18 17
f 20 24 23 19
f 18 20 19 17
f 23 24 22 21
o south-building-3
usemtl building
v 47 0 0
v 47 0 11
v 47 12 0
v 47 12 11
v 60 0 0
v 60 0 11
v 60 12 0
v 60 12 11
f 27 31 29 25
f 30 32 28 26
f 29 30 26 25
f 28 32 31 27
f 26 28 27 25
f 31 32 30 29
o north-building-0
usemtl building
v 0 28 0
v 0 28 7
v 0 40 0
v 0 40 7
v 12 28 0
v 12 28 7
v 12 40 0
v 12 40 7
f 35 39 37 33
f 38 40 36 34
f 37 38 34 33
f 36 40 39 35
f 34 36 35 33
f 39 40 38 37
o north-building-1
usemtl building
v 13 28 0
v 13 28 10
v 13 40 0
v 13 40 10
v 25 28 0
v 25 28 10
v 25 40 0
v 25 40 10
f 43 47 45 41
f 46 48 44 42
f 45 46 42 41
f 44 48 47 43
f 42 44 43 41
f 47 48 46 45
o north-building-2
usemtl building
v 35 28 0
v 35 28 8
v 35 40 0
v 35 40 8
v 46 28 0
v 46 28 8
v 46 40 0
v 46 40 8
f 51 55 53 49
f 54 56 52 50
f 53 54 50 49
f 52 56 55 51
f 50 52 51 49
f 55 56 54 53
o north-building-3
usemtl building
v 47 28 0
v 47 28 11
v 47 40 0
v 47 40 11
v 60 28 0
v 60 28 11
v 60 40 0
v 60 40 11
f 59 63 61 57
f 62 64 60 58
f 61 62 58 57
f 60 64 63 59
f 58 60 59 57
f 63 64 62 61
o parked-car-0
usemtl vehicle
v 5 14 0
v 5 14 1.5
v 5 15.8 0
v 5 15.8 1.5
v 9.3 14 0
v 9.3 14 1.5
v 9.3 15.8 0
v 9.3 15.8 1.5
f 67 71 69 65
f 70 72 68 66
f 69 70 66 65
f 68 72 71 67
f 66 68 67 65
f 71 72 70 69
o planter-0
usemtl wood
v 5 25 0
v 5 25 0.65
v 5 26.2 0
v 5 26.2 0.65
v 6.2 25 0
v 6.2 25 0.65
v 6.2 26.2 0
v 6.2 26.2 0.65
f 75 79 77 73
f 78 80 76 74
f 77 78 74 73
f 76 80 79 75
f 74 76 75 73
f 79 80 78 77
o hedge-0
usemtl vegetation
v 5.15 25.15 0.65
v 5.15 25.15 2
v 5.15 26.05 0.65
v 5.15 26.05 2
v 6.05 25.15 0.65
v 6.05 25.15 2
v 6.05 26.05 0.65
v 6.05 26.05 2
f 83 87 85 81
f 86 88 84 82
f 85 86 82 81
f 84 88 87 83
f 82 84 83 81
f 87 88 86 85
o parked-car-1
usemtl vehicle
v 16 14 0
v 16 14 1.5
v 16 15.8 0
v 16 15.8 1.5
v 20.3 14 0
v 20.3 14 1.5
v 20.3 15.8 0
v 20.3 15.8 1.5
f 91 95 93 89
f 94 96 92 90
f 93 94 90 89
f 92 96 95 91
f 90 92 91 89
f 95 96 94 93
o planter-1
usemtl wood
v 16 25 0
v 16 25 0.65
v 16 26.2 0
v 16 26.2 0.65
v 17.2 25 0
v 17.2 25 0.65
v 17.2 26.2 0
v 17.2 26.2 0.65
f 99 103 101 97
f 102 104 100 98
f 101 102 98 97
f 100 104 103 99
f 98 100 99 97
f 103 104 102 101
o hedge-1
usemtl vegetation
v 16.15 25.15 0.65
v 16.15 25.15 2
v 16.15 26.05 0.65
v 16.15 26.05 2
v 17.05 25.15 0.65
v 17.05 25.15 2
v 17.05 26.05 0.65
v 17.05 26.05 2
f 107 111 109 105
f 110 112 108 106
f 109 110 106 105
f 108 112 111 107
f 106 108 107 105
f 111 112 110 109
o parked-car-2
usemtl vehicle
v 40 14 0
v 40 14 1.5
v 40 15.8 0
v 40 15.8 1.5
v 44.3 14 0
v 44.3 14 1.5
v 44.3 15.8 0
v 44.3 15.8 1.5
f 115 119 117 113
f 118 120 116 114
f 117 118 114 113
f 116 120 119 115
f 114 116 115 113
f 119 120 118 117
o planter-2
usemtl wood
v 40 25 0
v 40 25 0.65
v 40 26.2 0
v 40 26.2 0.65
v 41.2 25 0
v 41.2 25 0.65
v 41.2 26.2 0
v 41.2 26.2 0.65
f 123 127 125 121
f 126 128 124 122
f 125 126 122 121
f 124 128 127 123
f 122 124 123 121
f 127 128 126 125
o hedge-2
usemtl vegetation
v 40.15 25.15 0.65
v 40.15 25.15 2
v 40.15 26.05 0.65
v 40.15 26.05 2
v 41.05 25.15 0.65
v 41.05 25.15 2
v 41.05 26.05 0.65
v 41.05 26.05 2
f 131 135 133 129
f 134 136 132 130
f 133 134 130 129
f 132 136 135 131
f 130 132 131 129
f 135 136 134 133
o parked-car-3
usemtl vehicle
v 51 14 0
v 51 14 1.5
v 51 15.8 0
v 51 15.8 1.5
v 55.3 14 0
v 55.3 14 1.5
v 55.3 15.8 0
v 55.3 15.8 1.5
f 139 143 141 137
f 142 144 140 138
f 141 142 138 137
f 140 144 143 139
f 138 140 139 137
f 143 144 142 141
o planter-3
usemtl wood
v 51 25 0
v 51 25 0.65
v 51 26.2 0
v 51 26.2 0.65
v 52.2 25 0
v 52.2 25 0.65
v 52.2 26.2 0
v 52.2 26.2 0.65
f 147 151 149 145
f 150 152 148 146
f 149 150 146 145
f 148 152 151 147
f 146 148 147 145
f 151 152 150 149
o hedge-3
usemtl vegetation
v 51.15 25.15 0.65
v 51.15 25.15 2
v 51.15 26.05 0.65
v 51.15 26.05 2
v 52.05 25.15 0.65
v 52.05 25.15 2
v 52.05 26.05 0.65
v 52.05 26.05 2
f 155 159 157 153
f 158 160 156 154
f 157 158 154 153
f 156 160 159 155
f 154 156 155 153
f 159 160 158 157
o light-pole-0
usemtl metal
v 10 26.8 0
v 10 26.8 5
v 10 27 0
v 10 27 5
v 10.2 26.8 0
v 10.2 26.8 5
v 10.2 27 0
v 10.2 27 5
f 163 167 165 161
f 166 168 164 162
f 165 166 162 161
f 164 168 167 163
f 162 164 163 161
f 167 168 166 165
o light-pole-1
usemtl metal
v 22 26.8 0
v 22 26.8 5
v 22 27 0
v 22 27 5
v 22.2 26.8 0
v 22.2 26.8 5
v 22.2 27 0
v 22.2 27 5
f 171 175 173 169
f 174 176 172 170
f 173 174 170 169
f 172 176 175 171
f 170 172 171 169
f 175 176 174 173
o light-pole-2
usemtl metal
v 38 26.8 0
v 38 26.8 5
v 38 27 0
v 38 27 5
v 38.2 26.8 0
v 38.2 26.8 5
v 38.2 27 0
v 38.2 27 5
f 179 183 181 177
f 182 184 180 178
f 181 182 178 177
f 180 184 183 179
f 178 180 179 177
f 183 184 182 181
o light-pole-3
usemtl metal
v 49 26.8 0
v 49 26.8 5
v 49 27 0
v 49 27 5
v 49.2 26.8 0
v 49.2 26.8 5
v 49.2 27 0
v 49.2 27 5
f 187 191 189 185
f 190 192 188 186
f 189 190 186 185
f 188 192 191 187
f 186 188 187 185
f 191 192 190 189
o delivery-van
usemtl vehicle
v 37 22 0
v 37 22 2.6
v 37 24 0
v 37 24 2.6
v 42 22 0
v 42 22 2.6
v 42 24 0
v 42 24 2.6
f 195 199 197 193
f 198 200 196 194
f 197 198 194 193
f 196 200 199 195
f 194 196 195 193
f 199 200 198 197
o ground-visual-only
usemtl ground
v 0 0 0
v 60 0 0
v 60 40 0
v 0 40 0
f 201 202 203 204
